<?xml version="1.0" encoding="utf-8"?>
<!-- Generator: Adobe Illustrator 16.0.0, SVG Export Plug-In . SVG Version: 6.00 Build 0)  -->
<!DOCTYPE svg PUBLIC "-//W3C//DTD SVG 1.1//EN" "http://www.w3.org/Graphics/SVG/1.1/DTD/svg11.dtd">
<svg version="1.1" id="Layer_1" xmlns="http://www.w3.org/2000/svg" xmlns:xlink="http://www.w3.org/1999/xlink" x="0px" y="0px"
	 width="47.738px" height="46.202px" viewBox="0 0 47.738 46.202" enable-background="new 0 0 47.738 46.202" xml:space="preserve">
<g id="after-effects-cc" transform="translate(180.243243, 0.000000)">
	<g id="Camada_1_4_">
		<polygon id="Shape_23_" fill="#FFFFFF" points="-178.025,1.98 -134.579,1.98 -134.579,43.965 -178.025,43.965 		"/>
		<path id="Shape_24_" d="M-178.025,1.98h43.446v41.985h-43.446V1.98L-178.025,1.98z M-180,45.928h47.396V0.019H-180V45.928
			L-180,45.928z M-146.468,22.149c1.007,0,1.362,0,1.461-0.039c0-0.137,0.039-0.235,0.039-0.333c0-1.06-0.513-3.021-2.566-3.021
			c-1.896,0-2.705,1.648-2.903,3.395L-146.468,22.149L-146.468,22.149L-146.468,22.149z M-150.477,24.836
			c0.039,2.648,1.304,4.436,4.305,4.436c1.165,0,2.173-0.158,3.22-0.609c0.138-0.059,0.236-0.039,0.236,0.137v2.453
			c0,0.197-0.059,0.295-0.197,0.393c-1.047,0.51-2.35,0.746-3.97,0.746c-5.213,0-7.169-3.826-7.169-8.084
			c0-4.63,2.41-8.417,6.656-8.417c4.305,0,5.806,3.59,5.806,6.514c0,0.942-0.06,1.708-0.158,2.08
			c-0.04,0.157-0.099,0.216-0.257,0.255c-0.395,0.059-1.561,0.138-3.298,0.138h-5.174V24.836L-150.477,24.836z M-161.062,22.836
			c-0.553-2.178-1.896-6.926-2.39-9.221h-0.04c-0.415,2.295-1.501,6.18-2.311,9.221H-161.062L-161.062,22.836z M-166.611,26.014
			l-1.56,5.867c-0.04,0.156-0.099,0.215-0.296,0.215h-2.903c-0.197,0-0.237-0.059-0.197-0.295l5.608-19.481
			c0.099-0.353,0.158-0.627,0.197-1.609c0-0.137,0.059-0.196,0.158-0.196h4.147c0.138,0,0.197,0.039,0.237,0.196l6.279,21.129
			c0.04,0.158,0,0.256-0.157,0.256h-3.259c-0.158,0-0.256-0.059-0.296-0.195l-1.62-5.887H-166.611L-166.611,26.014L-166.611,26.014z
			"/>
	</g>
</g>
</svg>
