<?xml version="1.0" encoding="utf-8"?>
<!-- Generator: Adobe Illustrator 16.0.0, SVG Export Plug-In . SVG Version: 6.00 Build 0)  -->
<!DOCTYPE svg PUBLIC "-//W3C//DTD SVG 1.1//EN" "http://www.w3.org/Graphics/SVG/1.1/DTD/svg11.dtd">
<svg version="1.1" id="Layer_1" xmlns="http://www.w3.org/2000/svg" xmlns:xlink="http://www.w3.org/1999/xlink" x="0px" y="0px"
	 width="47.738px" height="46.202px" viewBox="0 0 47.738 46.202" enable-background="new 0 0 47.738 46.202" xml:space="preserve">
<g id="adobe-indesign-cs6" transform="translate(120.162162, 0.000000)">
	<g id="Group_2_">
		<g id="Camada_1_3_" transform="translate(3.761728, 3.317000)">
			<polyline id="Shape_20_" fill="#FFFFFF" points="-79.622,0.01 -79.622,38.752 -119.992,38.752 			"/>
			<path id="Shape_21_" d="M-105.211,9.505v19.554h-3.595V9.505H-105.211L-105.211,9.505z M-89.283,8.46v16.624
				c0,1.449,0.059,3.016,0.117,3.975h-3.215l-0.146-2.234h-0.059c-0.847,1.566-2.571,2.553-4.646,2.553
				c-3.391,0-6.079-2.871-6.079-7.223c-0.029-4.729,2.952-7.543,6.371-7.543c1.959,0,3.361,0.813,4.004,1.856h0.059V8.46H-89.283
				L-89.283,8.46z M-92.877,20.818c0-0.29-0.029-0.638-0.088-0.928c-0.321-1.393-1.461-2.524-3.098-2.524
				c-2.309,0-3.595,2.031-3.595,4.67c0,2.582,1.287,4.469,3.566,4.469c1.461,0,2.747-0.986,3.098-2.525
				c0.088-0.318,0.117-0.666,0.117-1.043V20.818L-92.877,20.818L-92.877,20.818z"/>
		</g>
		<g id="Camada_2">
			<path id="Shape_22_" d="M-118.011,1.993h43.759v42.253h-43.759V1.993L-118.011,1.993z M-120,46.221h47.738V0.019H-120V46.221
				L-120,46.221z"/>
		</g>
	</g>
</g>
</svg>
