<?xml version="1.0" encoding="utf-8"?>
<!-- Generator: Adobe Illustrator 16.0.0, SVG Export Plug-In . SVG Version: 6.00 Build 0)  -->
<!DOCTYPE svg PUBLIC "-//W3C//DTD SVG 1.1//EN" "http://www.w3.org/Graphics/SVG/1.1/DTD/svg11.dtd">
<svg version="1.1" id="Layer_1" xmlns="http://www.w3.org/2000/svg" xmlns:xlink="http://www.w3.org/1999/xlink" x="0px" y="0px"
	 width="45.012px" height="44.961px" viewBox="0 0 45.012 44.961" enable-background="new 0 0 45.012 44.961" xml:space="preserve">
<g id="processing3-logo.png" transform="translate(315.000000, 2.000000)">
	<g id="Camada_1_1_">
		<g id="Group_1_">
			<path id="Shape_6_" d="M-306.514,37.953c0.65-0.238,1.243-0.457,1.835-0.674c-0.01-0.035-0.021-0.07-0.031-0.104
				c-0.527,0.172-1.048,0.379-1.587,0.5c-0.244,0.055-0.603,0.023-0.78-0.125c-1.772-1.463-3.257-3.185-4.465-5.136
				c-0.124-0.203-0.167-0.531-0.104-0.762c0.845-3.088,1.708-6.172,2.588-9.252c0.108-0.379,0.338-0.725,0.517-1.084
				c0.811-1.625,1.623-3.248,2.568-4.855c0.188,1.536,0.377,3.072,0.567,4.619h-2.28c-0.007,0.043-0.013,0.085-0.02,0.127
				c0.502,0.059,1.004,0.125,1.507,0.175c0.87,0.088,0.852,0.086,0.961,0.98c0.47,3.834,0.951,7.666,1.431,11.498
				c0.02,0.154,0.063,0.307,0.221,0.439c-0.131-1.127-0.257-2.258-0.394-3.385c-0.361-2.984-0.722-5.969-1.098-8.953
				c-0.049-0.389,0.093-0.492,0.443-0.465c0.437,0.037,0.874,0.078,1.312,0.084c0.936,0.012,1.871,0.004,2.811-0.066
				c-1.357-0.104-2.715-0.228-4.075-0.302c-0.455-0.024-0.619-0.172-0.666-0.634c-0.137-1.341-0.333-2.675-0.504-4.013
				c-0.02-0.154-0.02-0.31-0.038-0.617c1.695,1.828,3.292,3.549,4.888,5.271c0.051-0.047,0.102-0.095,0.152-0.142
				c-1.637-1.792-3.273-3.584-4.938-5.406c1.584-2.664,3.193-5.37,4.801-8.076c0.755-1.27,1.534-2.524,2.251-3.814
				c0.615-1.108,1.156-2.257,1.734-3.385c0.081-0.157,0.189-0.3,0.304-0.479c2.921,1.448,5.804,2.877,8.687,4.306
				c0.027-0.055,0.055-0.111,0.082-0.166c-2.744-1.352-5.487-2.704-8.231-4.056c0.002-0.044,0.004-0.088,0.006-0.133
				c0.913-0.198,1.825-0.398,2.738-0.594c1.339-0.286,2.674-0.586,4.018-0.84c0.4-0.076,0.844-0.095,1.24-0.01
				c6.34,1.355,11.236,4.788,14.721,10.236c0.064,0.1,0.109,0.212,0.215,0.424c-3.402-1.097-6.707-2.163-10.01-3.228
				c-0.018,0.047-0.035,0.094-0.053,0.141c0.258,0.1,0.514,0.213,0.777,0.299c2.984,0.975,5.975,1.935,8.951,2.931
				c0.309,0.104,0.65,0.364,0.801,0.646c5.006,9.406,2.818,20.806-5.223,27.654c-2.066,1.76-4.346,3.156-6.904,4.035
				c-7.606,2.617-14.689,1.539-21.225-3.135c-0.119-0.086-0.231-0.178-0.343-0.273C-306.395,38.125-306.42,38.076-306.514,37.953
				L-306.514,37.953z M-293.398,9.908c0.509,0,0.961-0.015,1.411,0.005c0.292,0.013,0.43-0.08,0.465-0.383
				c0.077-0.65,0.212-1.295,0.269-1.946c0.028-0.32,0.166-0.477,0.447-0.508c0.828-0.09,1.664-0.262,2.486-0.213
				c1.359,0.08,2.318,0.938,2.652,2.168c0.441,1.626-0.092,3.325-1.516,4.233c-0.795,0.509-1.746,0.784-2.645,1.118
				c-0.381,0.141-0.809,0.16-1.195,0.232v2.295c0.219,0.012,0.402,0.004,0.578,0.033c0.967,0.165,1.963,0.241,2.891,0.535
				c1.246,0.395,2.049,1.294,2.271,2.628c0.406,2.428-0.879,4.368-3.35,4.971c-0.77,0.189-1.574,0.23-2.389,0.344v2.484
				c1.854-0.006,3.596-0.309,5.215-1.154c1.398-0.73,2.508-1.762,3.17-3.209c1.518-3.314,0.459-7.206-3.594-8.219
				c-0.068-0.017-0.131-0.058-0.203-0.091c0.502-0.291,1.016-0.531,1.461-0.863c0.465-0.347,0.908-0.743,1.279-1.184
				c2.164-2.563,1.668-7.309-2.369-8.47c-2.412-0.694-4.768-0.388-7.075,0.484c-0.109,0.041-0.248,0.193-0.25,0.295
				C-293.403,6.946-293.398,8.398-293.398,9.908L-293.398,9.908z M-297.574,17.377c0.015,0.074,0.034,0.127,0.034,0.179
				c0.003,5.068,0.002,10.134,0.012,15.201c0.001,0.346-0.144,0.408-0.449,0.445c-0.905,0.111-1.806,0.256-2.704,0.414
				c-0.137,0.023-0.35,0.184-0.356,0.291c-0.034,0.594-0.017,1.188-0.017,1.788h10.667c0.025-0.068,0.049-0.1,0.049-0.133
				c0.01-0.383,0.02-0.766,0.021-1.147c0.002-0.781,0.002-0.791-0.785-0.912c-0.897-0.139-1.798-0.256-2.76-0.391V14.753h-7.194
				c0,0.561,0.031,1.054-0.01,1.541c-0.036,0.429,0.141,0.568,0.538,0.623C-299.553,17.048-298.583,17.217-297.574,17.377
				L-297.574,17.377z M-300.403,22.028c-0.547,2.578-1.118,5.15-1.633,7.736c-0.407,2.047-0.747,4.109-1.111,6.165
				c-0.024,0.143-0.003,0.295-0.003,0.441c0.148-0.078,0.19-0.17,0.211-0.266c0.58-2.704,1.204-5.401,1.721-8.118
				C-300.843,26.017-300.12,24.087-300.403,22.028L-300.403,22.028z M-303.034,36.709c-0.002,0.045-0.004,0.088-0.006,0.131
				c4.309-0.059,8.617-0.117,12.926-0.176c0-0.066,0-0.131,0-0.197h-3.775c0-0.037,0-0.074-0.001-0.111h1.187
				c-0.001,0.016-0.001,0.031-0.001,0.047h-9.085c0.002,0.041,0.004,0.082,0.006,0.121c0.079,0.039,0.159,0.076,0.238,0.113
				c-0.006,0.025-0.013,0.049-0.019,0.072C-302.053,36.709-302.543,36.709-303.034,36.709L-303.034,36.709z M-280.617,15.748
				c-0.057,0.023-0.115,0.047-0.172,0.07c0.721,1.729,1.441,3.457,2.162,5.185c0.051-0.021,0.102-0.042,0.152-0.063
				C-279.189,19.208-279.902,17.478-280.617,15.748L-280.617,15.748z"/>
			<path id="Shape_7_" d="M-305.77,15.366c-2.316-1.606-4.617-3.203-6.938-4.812c1-2.038,2.256-3.835,3.776-5.45
				c2.733-2.901,6.018-4.911,9.806-6.162c1.063-0.351,1.756,0.072,2.504,0.63C-299.675,4.845-302.709,10.083-305.77,15.366
				L-305.77,15.366z"/>
			<path id="Shape_8_" d="M-312.03,31.632c-1.103-1.914-1.866-3.779-2.315-5.756c-0.277-1.221-0.408-2.475-0.615-3.711
				c-0.059-0.35,0.042-0.494,0.415-0.51c0.729-0.025,1.458-0.076,2.183-0.152c1.116-0.119,2.229-0.271,3.481-0.425
				C-309.934,24.606-310.958,28.04-312.03,31.632L-312.03,31.632z"/>
			<path id="Shape_9_" d="M-312.918,15.984c0.34,0.444,0.68,0.889,1.083,1.415c-1.05,0.364-2.018,0.7-3.094,1.075
				c0.26-2.666,0.929-5.121,2.02-7.523c2.276,1.478,4.51,2.928,6.812,4.422c-0.18,0.087-0.293,0.156-0.416,0.198
				c-1.516,0.525-3.036,1.037-4.547,1.577c-0.31,0.109-0.507,0.086-0.69-0.194c-0.17-0.258-0.362-0.507-0.578-0.726
				c-0.148-0.152-0.354-0.247-0.534-0.367C-312.882,15.902-312.901,15.943-312.918,15.984L-312.918,15.984z"/>
			<path id="Shape_10_" d="M-314.992,21.356c0-0.792-0.028-1.48,0.021-2.164c0.012-0.158,0.262-0.367,0.446-0.437
				c0.986-0.367,1.986-0.697,3.023-1.055c0.862,1.024,1.75,2.077,2.755,3.269C-310.912,21.105-312.911,21.228-314.992,21.356
				L-314.992,21.356z"/>
			<path id="Shape_11_" d="M-311.173,17.662c1.667-0.676,3.271-1.327,5.016-2.035c-0.877,1.806-1.687,3.473-2.524,5.199
				C-309.479,19.814-310.313,18.754-311.173,17.662L-311.173,17.662z"/>
			<path id="Shape_12_" d="M-289.502-1.689c-2.278,0.485-4.557,0.97-6.786,1.444c-0.412-0.389-0.799-0.754-1.268-1.198
				C-294.832-2.058-292.189-2.198-289.502-1.689L-289.502-1.689z"/>
			<path id="Shape_13_" fill="#FFFFFF" d="M-293.398,9.908c0-1.51-0.005-2.962,0.011-4.414c0.001-0.102,0.141-0.254,0.25-0.295
				c2.307-0.872,4.663-1.178,7.075-0.484c4.037,1.161,4.533,5.907,2.369,8.469c-0.371,0.441-0.814,0.838-1.279,1.184
				c-0.445,0.333-0.959,0.573-1.461,0.863c0.072,0.034,0.135,0.075,0.203,0.092c4.053,1.013,5.111,4.905,3.594,8.219
				c-0.662,1.447-1.771,2.479-3.17,3.209c-1.619,0.846-3.361,1.148-5.215,1.154v-2.484c0.814-0.113,1.619-0.154,2.389-0.344
				c2.471-0.605,3.756-2.545,3.35-4.971c-0.223-1.335-1.025-2.233-2.271-2.628c-0.928-0.294-1.924-0.37-2.891-0.535
				c-0.176-0.03-0.359-0.021-0.578-0.033v-2.295c0.387-0.072,0.813-0.092,1.195-0.233c0.898-0.333,1.85-0.608,2.645-1.117
				c1.424-0.909,1.957-2.607,1.516-4.233c-0.334-1.229-1.293-2.088-2.652-2.168c-0.822-0.049-1.658,0.124-2.486,0.213
				c-0.281,0.03-0.418,0.188-0.447,0.507c-0.057,0.652-0.191,1.296-0.269,1.947c-0.035,0.303-0.173,0.396-0.465,0.383
				C-292.437,9.893-292.889,9.908-293.398,9.908L-293.398,9.908z"/>
			<path id="Shape_14_" fill="#FFFFFF" d="M-297.574,17.377c-1.009-0.16-1.979-0.329-2.954-0.461
				c-0.397-0.054-0.574-0.193-0.538-0.623c0.041-0.487,0.01-0.979,0.01-1.541h7.194v18.36c0.962,0.135,1.863,0.252,2.76,0.391
				c0.787,0.121,0.787,0.131,0.785,0.912c-0.002,0.382-0.012,0.765-0.021,1.147c0,0.033-0.023,0.064-0.049,0.133h-10.667
				c0-0.6-0.018-1.194,0.017-1.788c0.007-0.107,0.22-0.268,0.356-0.293c0.897-0.156,1.799-0.301,2.704-0.412
				c0.306-0.037,0.45-0.1,0.449-0.445c-0.01-5.066-0.009-10.133-0.012-15.201C-297.54,17.504-297.559,17.452-297.574,17.377
				L-297.574,17.377z"/>
			<path id="Shape_15_" fill="#FFFFFF" d="M-300.403,22.028c0.283,2.059-0.44,3.988-0.815,5.959
				c-0.517,2.717-1.141,5.414-1.721,8.118c-0.021,0.096-0.063,0.188-0.211,0.266c0-0.146-0.021-0.299,0.003-0.441
				c0.364-2.056,0.704-4.118,1.111-6.165C-301.521,27.179-300.95,24.606-300.403,22.028L-300.403,22.028z"/>
			<path id="Shape_16_" fill="#FFFFFF" d="M-303.034,36.721h1.471c0.006-0.025,0.013-0.049,0.019-0.074
				c-0.08-0.039-0.159-0.078-0.238-0.117c-0.002-0.041-0.004-0.084-0.006-0.125h9.085c0-0.018,0-0.033,0-0.049h-1.186
				c0,0.037,0.001,0.076,0.001,0.115h3.775c0,0.068,0,0.135,0,0.203c-4.309,0.061-8.618,0.121-12.926,0.182
				C-303.038,36.811-303.036,36.766-303.034,36.721L-303.034,36.721z"/>
			<path id="Shape_17_" fill="#FFFFFF" d="M-280.617,15.748c0.715,1.73,1.428,3.461,2.143,5.191
				c-0.051,0.021-0.102,0.043-0.152,0.063c-0.721-1.728-1.441-3.456-2.162-5.185C-280.732,15.794-280.674,15.771-280.617,15.748
				L-280.617,15.748z"/>
		</g>
	</g>
</g>
</svg>
