<?xml version="1.0" encoding="utf-8"?>
<!-- Generator: Adobe Illustrator 16.0.0, SVG Export Plug-In . SVG Version: 6.00 Build 0)  -->
<!DOCTYPE svg PUBLIC "-//W3C//DTD SVG 1.1//EN" "http://www.w3.org/Graphics/SVG/1.1/DTD/svg11.dtd">
<svg version="1.1" id="Layer_1" xmlns="http://www.w3.org/2000/svg" xmlns:xlink="http://www.w3.org/1999/xlink" x="0px" y="0px"
	 width="47.738px" height="46.202px" viewBox="0 0 47.738 46.202" enable-background="new 0 0 47.738 46.202" xml:space="preserve">
<g id="photoshop-cc">
	<g id="Camada_1_2_">
		<polygon id="Shape_18_" fill="none" points="1.989,1.974 45.748,1.974 45.748,44.227 1.989,44.227 		"/>
		<path id="Shape_19_" d="M1.989,1.974h43.759v42.253H1.989V1.974L1.989,1.974z M0,46.202h47.738V0H0V46.202L0,46.202z
			 M32.184,18.954c-1.572,0-2.109,0.79-2.109,1.441c0,0.71,0.358,1.204,2.467,2.29c3.123,1.5,4.098,2.942,4.098,5.055
			c0,3.158-2.427,4.856-5.709,4.856c-1.73,0-3.223-0.355-4.077-0.849c-0.14-0.06-0.159-0.158-0.159-0.316V28.53
			c0-0.197,0.1-0.256,0.238-0.158c1.254,0.811,2.686,1.166,3.998,1.166c1.572,0,2.229-0.652,2.229-1.541
			c0-0.711-0.458-1.342-2.467-2.369c-2.824-1.342-3.998-2.705-3.998-4.976c0-2.547,2.009-4.659,5.49-4.659
			c1.71,0,2.904,0.256,3.561,0.553c0.158,0.099,0.198,0.257,0.198,0.395v2.705c0,0.158-0.099,0.257-0.298,0.197
			C34.77,19.29,33.477,18.954,32.184,18.954L32.184,18.954L32.184,18.954z M15.077,21.304c0.458,0.04,0.815,0.04,1.611,0.04
			c2.327,0,4.515-0.81,4.515-3.949c0-2.508-1.571-3.771-4.217-3.771c-0.796,0-1.552,0.04-1.91,0.06V21.304L15.077,21.304z
			 M11.537,10.819c0-0.138,0.279-0.237,0.438-0.237c1.273-0.059,3.163-0.099,5.132-0.099c5.51,0,7.658,3.001,7.658,6.832
			c0,5.015-3.66,7.167-8.155,7.167c-0.756,0-1.015-0.04-1.552-0.04v7.582c0,0.157-0.06,0.237-0.239,0.237h-3.043
			c-0.159,0-0.239-0.061-0.239-0.237V10.819L11.537,10.819L11.537,10.819z"/>
	</g>
</g>
</svg>
