<?xml version="1.0" encoding="utf-8"?>
<!-- Generator: Adobe Illustrator 16.0.0, SVG Export Plug-In . SVG Version: 6.00 Build 0)  -->
<!DOCTYPE svg PUBLIC "-//W3C//DTD SVG 1.1//EN" "http://www.w3.org/Graphics/SVG/1.1/DTD/svg11.dtd">
<svg version="1.1" id="Layer_1" xmlns="http://www.w3.org/2000/svg" xmlns:xlink="http://www.w3.org/1999/xlink" x="0px" y="0px"
	 width="38.714px" height="52.94px" viewBox="0 0 38.714 52.94" enable-background="new 0 0 38.714 52.94" xml:space="preserve">
<g id="Shape_28_">
	<path d="M38.656,12.484c0-0.471-0.172-0.942-0.517-1.295l-9.635-10.6C28.16,0.176,27.645,0,27.128,0H3.04C1.377,0,0,1.413,0,3.121
		v46.698c0,1.709,1.377,3.121,3.04,3.121h32.634c1.663,0,3.04-1.412,3.04-3.121L38.656,12.484L38.656,12.484z M35.616,50.585H3.04
		c-0.401,0-0.746-0.354-0.746-0.766V3.121c0-0.413,0.345-0.766,0.746-0.766h23.687v7.008c0,1.884,1.491,3.416,3.326,3.416h6.366
		v37.041C36.362,50.231,36.018,50.585,35.616,50.585L35.616,50.585z"/>
	<path d="M15.601,39.396c-0.229-0.354-0.574-0.412-0.918-0.117c-0.401,0.295-1.032,0.648-1.778,0.648
		c-1.663,0-2.408-1.355-2.408-2.65s0.688-2.533,2.408-2.533c0.631,0,1.205,0.236,1.606,0.473c0.401,0.234,0.688,0.176,0.917-0.178
		l0.287-0.529c0.229-0.354,0.172-0.707-0.172-0.943c-0.517-0.352-1.434-0.824-2.753-0.824c-2.639,0-4.531,2.002-4.531,4.535
		c0,2.65,1.721,4.594,4.531,4.594c1.434,0,2.466-0.59,2.982-1.061c0.344-0.236,0.344-0.588,0.114-0.941L15.601,39.396L15.601,39.396
		z"/>
	<path d="M19.787,35.333c0-0.354,0.287-0.59,0.918-0.59c0.573,0,0.975,0.236,1.376,0.414c0.344,0.176,0.688,0.234,0.918-0.236
		l0.286-0.59c0.172-0.354,0.172-0.646-0.229-0.941s-1.318-0.648-2.351-0.648c-1.721,0-3.098,1.061-3.098,2.709
		c0,2.768,3.785,2.592,3.785,3.828c0,0.354-0.286,0.59-0.917,0.59c-0.746,0-1.262-0.412-1.549-0.531
		c-0.401-0.234-0.688-0.176-0.918,0.178l-0.401,0.529c-0.287,0.471-0.114,0.707,0.115,0.941c0.458,0.354,1.548,0.885,2.753,0.885
		c1.949,0,3.039-1.297,3.039-2.768C23.572,36.335,19.787,36.628,19.787,35.333L19.787,35.333z"/>
	<path d="M27.473,35.333c0-0.354,0.286-0.59,0.917-0.59c0.574,0,0.976,0.236,1.377,0.414c0.344,0.176,0.688,0.234,0.917-0.236
		l0.287-0.59c0.172-0.354,0.172-0.646-0.229-0.941s-1.319-0.648-2.352-0.648c-1.721,0-3.097,1.061-3.097,2.709
		c0,2.768,3.785,2.592,3.785,3.828c0,0.354-0.287,0.59-0.918,0.59c-0.745,0-1.262-0.412-1.548-0.531
		c-0.401-0.234-0.688-0.176-0.918,0.178l-0.401,0.529c-0.287,0.471-0.115,0.707,0.114,0.941c0.459,0.354,1.549,0.885,2.753,0.885
		c1.95,0,3.04-1.297,3.04-2.768C31.258,36.335,27.473,36.628,27.473,35.333L27.473,35.333z"/>
</g>
</svg>
