<?xml version="1.0" encoding="utf-8"?>
<!-- Generator: Adobe Illustrator 16.0.0, SVG Export Plug-In . SVG Version: 6.00 Build 0)  -->
<!DOCTYPE svg PUBLIC "-//W3C//DTD SVG 1.1//EN" "http://www.w3.org/Graphics/SVG/1.1/DTD/svg11.dtd">
<svg version="1.1" id="Layer_1" xmlns="http://www.w3.org/2000/svg" xmlns:xlink="http://www.w3.org/1999/xlink" x="0px" y="0px"
	 width="47.738px" height="46.202px" viewBox="0 0 47.738 46.202" enable-background="new 0 0 47.738 46.202" xml:space="preserve">
<g id="adobe-illustrator-cs6" transform="translate(60.081081, 0.000000)">
	<g id="Group_3_">
		<g id="Camada_1_5_" transform="translate(3.570777, 3.503735)">
			<rect id="Rectangle-path" x="-56.371" y="3.733" fill="#070707" width="33.676" height="30.842"/>
			<path id="Shape_25_" fill="#FFFFFF" d="M-46.187,20.082h4.231l-2.116-8.182L-46.187,20.082L-46.187,20.082z M-59.989,0.002
				v39.336h40.575V0.002H-59.989L-59.989,0.002z M-39.633,29.053l-1.548-5.316h-5.728l-1.548,5.316h-3.922l5.521-18.8V8.195h5.264
				l6.295,20.858H-39.633L-39.633,29.053L-39.633,29.053z M-29.208,29.053h-4.231V13.187h4.231V29.053L-29.208,29.053z
				 M-31.298,11.283c-1.212,0-2.193-0.968-2.193-2.162c0-1.193,0.981-2.161,2.193-2.161c1.211,0,2.193,0.968,2.193,2.161
				C-29.105,10.315-30.087,11.283-31.298,11.283L-31.298,11.283z"/>
		</g>
		<g id="Camada_2_1_">
			<path id="Shape_26_" d="M-58.011,2.002h43.76V44.45h-43.76V2.002L-58.011,2.002z M-60,46.434h47.737V0.019H-60V46.434L-60,46.434
				z"/>
		</g>
	</g>
</g>
</svg>
