<?xml version="1.0" encoding="utf-8"?>
<!-- Generator: Adobe Illustrator 16.0.0, SVG Export Plug-In . SVG Version: 6.00 Build 0)  -->
<!DOCTYPE svg PUBLIC "-//W3C//DTD SVG 1.1//EN" "http://www.w3.org/Graphics/SVG/1.1/DTD/svg11.dtd">
<svg version="1.1" id="Layer_1" xmlns="http://www.w3.org/2000/svg" xmlns:xlink="http://www.w3.org/1999/xlink" x="0px" y="0px"
	 width="38.714px" height="52.028px" viewBox="0 0 38.714 52.028" enable-background="new 0 0 38.714 52.028" xml:space="preserve">
<g id="Shape_27_">
	<path d="M38.656,12.327c0-0.463-0.172-0.926-0.517-1.273L28.505,0.579C28.16,0.174,27.645,0,27.128,0H3.04C1.377,0,0,1.389,0,3.067
		v45.895c0,1.678,1.377,3.066,3.04,3.066h32.634c1.663,0,3.04-1.389,3.04-3.066L38.656,12.327L38.656,12.327z M35.616,49.714H3.04
		c-0.401,0-0.746-0.348-0.746-0.752V3.067c0-0.405,0.345-0.752,0.746-0.752h23.687v6.887c0,1.852,1.491,3.356,3.326,3.356h6.366
		v36.403C36.362,49.366,36.018,49.714,35.616,49.714L35.616,49.714z"/>
	<path d="M11.299,33.972h-0.631c-0.344,0-0.517,0.174-0.517,0.521v2.257H7.628v-2.257c0-0.348-0.172-0.521-0.516-0.521H6.481
		c-0.345,0-0.517,0.174-0.517,0.521v5.961c0,0.348,0.172,0.521,0.517,0.521h0.631c0.344,0,0.516-0.173,0.516-0.521v-2.199h2.523
		v2.199c0,0.348,0.173,0.521,0.517,0.521h0.631c0.344,0,0.516-0.173,0.516-0.521v-5.961C11.814,34.146,11.643,33.972,11.299,33.972
		L11.299,33.972z"/>
	<path d="M18.64,33.972h-4.875c-0.344,0-0.516,0.174-0.516,0.521v0.404c0,0.348,0.172,0.521,0.516,0.521h1.606v5.035
		c0,0.348,0.172,0.521,0.516,0.521h0.631c0.345,0,0.517-0.173,0.517-0.521v-5.035h1.605c0.345,0,0.517-0.174,0.517-0.521v-0.404
		C19.214,34.146,18.984,33.972,18.64,33.972L18.64,33.972z"/>
	<path d="M26.727,33.972h-0.86c-0.286,0-0.516,0.116-0.631,0.463l-0.86,2.547c-0.172,0.463-0.344,1.157-0.344,1.157l0,0
		c0,0-0.172-0.694-0.345-1.157l-0.917-2.604c-0.115-0.289-0.287-0.463-0.631-0.463h-0.86c-0.345,0-0.517,0.174-0.573,0.521
		l-0.459,6.02c-0.058,0.348,0.172,0.578,0.516,0.578h0.631c0.345,0,0.517-0.174,0.574-0.521l0.172-2.662
		c0.057-0.521,0-1.157,0-1.157l0,0c0,0,0.229,0.752,0.401,1.157l0.573,1.62c0.115,0.289,0.287,0.405,0.631,0.405h0.573
		c0.287,0,0.517-0.116,0.632-0.405l0.573-1.62c0.172-0.463,0.401-1.157,0.401-1.157l0,0c0,0-0.058,0.637,0,1.157l0.172,2.662
		c0.058,0.347,0.229,0.521,0.573,0.521H27.3c0.345,0,0.517-0.23,0.517-0.578l-0.459-5.961C27.243,34.146,27.07,33.972,26.727,33.972
		L26.727,33.972z"/>
	<path d="M33.609,39.528h-2.295v-5.035c0-0.348-0.172-0.521-0.516-0.521h-0.631c-0.344,0-0.517,0.174-0.517,0.521v5.961
		c0,0.348,0.173,0.521,0.517,0.521h3.498c0.345,0,0.517-0.173,0.517-0.521v-0.405C34.125,39.702,33.953,39.528,33.609,39.528
		L33.609,39.528z"/>
</g>
</svg>
