<?xml version="1.0" encoding="utf-8"?>
<!-- Generator: Adobe Illustrator 16.0.0, SVG Export Plug-In . SVG Version: 6.00 Build 0)  -->
<!DOCTYPE svg PUBLIC "-//W3C//DTD SVG 1.1//EN" "http://www.w3.org/Graphics/SVG/1.1/DTD/svg11.dtd">
<svg version="1.1" id="Layer_1" xmlns="http://www.w3.org/2000/svg" xmlns:xlink="http://www.w3.org/1999/xlink" x="0px" y="0px"
	 width="46.762px" height="46.754px" viewBox="0 0 46.762 46.754" enable-background="new 0 0 46.762 46.754" xml:space="preserve">
<g id="brackets" transform="translate(146.000000, 7.000000)">
	<g id="Camada_1">
		<path id="Shape" fill="#2B2B2B" d="M-99.238,30.402c0,5.143-4.208,9.352-9.352,9.352h-28.058c-5.144,0-9.353-4.209-9.353-9.352
			V2.351C-146-2.792-141.791-7-136.647-7h28.058c5.144,0,9.352,4.208,9.352,9.351V30.402L-99.238,30.402z"/>
		<path id="Shape_1_" fill="#FFFFFF" d="M-108.59-1.857c2.32,0,4.208,1.887,4.208,4.208v23.377c0,2.32-1.888,4.208-4.208,4.208
			h-28.058c-2.321,0-4.209-1.888-4.209-4.208V2.351c0-2.32,1.888-4.208,4.209-4.208H-108.59"/>
		<path id="Shape_2_" fill="#050505" d="M-108.59-1.857c2.32,0,4.208,1.887,4.208,4.208v23.377c0,2.32-1.888,4.208-4.208,4.208
			h-28.058c-2.321,0-4.209-1.888-4.209-4.208V2.351c0-2.32,1.888-4.208,4.209-4.208H-108.59L-108.59-1.857L-108.59-1.857z
			 M-108.59-7h-28.058C-141.791-7-146-2.792-146,2.351v23.377c0,5.143,4.209,9.351,9.353,9.351h28.058
			c5.144,0,9.352-4.208,9.352-9.351V2.351C-99.238-2.792-103.446-7-108.59-7L-108.59-7z"/>
		<g id="Group" transform="translate(10.287679, 9.818182)">
			<polygon id="Shape_3_" fill="#020202" points="-119.813,-7 -119.813,15.442 -131.504,15.442 -131.504,9.831 -124.957,9.831 
				-124.957,-1.857 -131.504,-1.857 -131.504,-7 			"/>
			<polygon id="Shape_4_" fill="#020202" points="-134.309,-7 -134.309,-1.857 -140.856,-1.857 -140.856,9.831 -134.309,9.831 
				-134.309,15.442 -146,15.442 -146,-7 			"/>
		</g>
	</g>
</g>
</svg>
