<?xml version="1.0" encoding="utf-8"?>
<!-- Generator: Adobe Illustrator 16.0.0, SVG Export Plug-In . SVG Version: 6.00 Build 0)  -->
<!DOCTYPE svg PUBLIC "-//W3C//DTD SVG 1.1//EN" "http://www.w3.org/Graphics/SVG/1.1/DTD/svg11.dtd">
<svg version="1.1" id="Layer_1" xmlns="http://www.w3.org/2000/svg" xmlns:xlink="http://www.w3.org/1999/xlink" x="0px" y="0px"
	 width="57.674px" height="52.138px" viewBox="0 0 57.674 52.138" enable-background="new 0 0 57.674 52.138" xml:space="preserve">
<path id="symbol" d="M49.502,4.315L39.426,0H18.248L8.173,4.315L0,13.637l28.839,38.501l28.835-38.501L49.502,4.315z M54.207,14.026
	l-7.612,5.871l-6.058-8.802l8.523-4.053L54.207,14.026z M42.912,21.639H14.764l5.768-10.213h16.613L42.912,21.639z M37.121,1.909
	l7.787,3.347L37.089,8.93H20.586l-7.82-3.674l7.701-3.349L37.121,1.909z M8.52,7.043l8.523,4.053l-6.059,8.802l-7.611-5.871
	L8.52,7.043z M6.47,19.799l4.878,3.815l11.655,18.947L6.47,19.799z M15.44,24.751h26.794L28.839,48.56L15.44,24.751z M34.576,42.562
	l11.656-18.947l4.877-3.815L34.576,42.562z"/>
</svg>
