<?xml version="1.0" encoding="utf-8"?>
<!-- Generator: Adobe Illustrator 16.0.0, SVG Export Plug-In . SVG Version: 6.00 Build 0)  -->
<!DOCTYPE svg PUBLIC "-//W3C//DTD SVG 1.1//EN" "http://www.w3.org/Graphics/SVG/1.1/DTD/svg11.dtd">
<svg version="1.1" id="Layer_1" xmlns="http://www.w3.org/2000/svg" xmlns:xlink="http://www.w3.org/1999/xlink" x="0px" y="0px"
	 width="51.772px" height="54.034px" viewBox="0 0 51.772 54.034" enable-background="new 0 0 51.772 54.034" xml:space="preserve">
<g>
	<path fill-rule="evenodd" clip-rule="evenodd" d="M1.126,24.711c15.682-2.064,31.332-4.124,47.051-6.193
		c0.117,0.78,0.236,1.535,0.344,2.292c0.168,1.191,0.332,2.385,0.494,3.578c0.15,1.112,0.301,2.226,0.445,3.338
		c0.188,1.443,0.361,2.888,0.555,4.33c0.225,1.688,0.469,3.374,0.697,5.063c0.303,2.245,0.568,4.496,0.904,6.736
		c0.303,2.033-0.352,3.729-1.967,4.495c-0.703,0.333-1.52,0.471-2.301,0.588c-2.045,0.309-4.098,0.562-6.148,0.828
		c-1.74,0.227-3.484,0.435-5.225,0.662c-1.947,0.254-3.893,0.521-5.838,0.779c-1.758,0.231-3.518,0.453-5.275,0.688
		c-2.273,0.302-4.543,0.615-6.816,0.916c-1.706,0.225-3.414,0.433-5.121,0.655c-1.172,0.152-2.348,0.284-3.512,0.481
		c-3.139,0.535-4.847-1.506-5.051-3.729c-0.205-2.231-0.576-4.447-0.866-6.671c-0.306-2.35-0.599-4.7-0.902-7.05
		c-0.202-1.562-0.425-3.12-0.618-4.684c-0.16-1.298-0.282-2.602-0.436-3.9C1.417,26.877,1.272,25.842,1.126,24.711z M3.566,26.362
		c0.255,1.932,0.504,3.821,0.755,5.711c0.219,1.651,0.447,3.301,0.66,4.953c0.229,1.773,0.438,3.55,0.67,5.323
		c0.262,2.012,0.586,4.018,0.799,6.034c0.211,2.003,1.426,3.169,3.447,3.106c0.728-0.023,1.453-0.146,2.177-0.241
		c2.255-0.298,4.509-0.611,6.765-0.907c2.273-0.299,4.549-0.578,6.822-0.877c2.51-0.329,5.02-0.677,7.529-1.006
		c2.24-0.293,4.482-0.568,6.723-0.858c2.102-0.273,4.199-0.563,6.303-0.831c1.471-0.188,2.744-1.117,2.963-2.458
		c0.133-0.812-0.066-1.687-0.172-2.525c-0.244-1.965-0.527-3.925-0.785-5.889c-0.191-1.463-0.357-2.929-0.551-4.392
		c-0.264-1.996-0.549-3.989-0.813-5.985c-0.191-1.446-0.355-2.896-0.545-4.343c-0.037-0.268-0.117-0.467-0.518-0.368
		c-0.568,0.142-1.166,0.167-1.75,0.244c-1.811,0.235-3.621,0.468-5.43,0.708c-1.598,0.213-3.193,0.441-4.791,0.652
		c-1.846,0.242-3.691,0.467-5.535,0.709c-1.617,0.212-3.23,0.445-4.846,0.655c-1.775,0.23-3.555,0.434-5.33,0.667
		c-2.496,0.329-4.988,0.681-7.482,1.01C8.308,25.763,5.983,26.053,3.566,26.362z"/>
	<path fill-rule="evenodd" clip-rule="evenodd" d="M8.6,9.722c1.531-0.463,2.983-0.892,4.428-1.347
		c0.274-0.086,0.442-0.048,0.686,0.114c1.931,1.287,3.882,2.544,5.823,3.817c0.273,0.179,0.523,0.392,0.875,0.657
		c-0.816,0.254-1.527,0.483-2.244,0.698c-0.715,0.213-1.432,0.427-2.155,0.606c-0.196,0.049-0.47,0.047-0.63-0.054
		c-2.188-1.388-4.362-2.797-6.537-4.206C8.765,9.956,8.714,9.858,8.6,9.722z"/>
	<path fill-rule="evenodd" clip-rule="evenodd" d="M18.292,6.767c1.559-0.47,2.969-0.9,4.385-1.311
		c0.154-0.044,0.381-0.026,0.512,0.058c2.037,1.307,4.064,2.628,6.09,3.953c0.258,0.169,0.49,0.376,0.82,0.633
		c-1.57,0.462-3.039,0.903-4.514,1.317c-0.152,0.043-0.377-0.032-0.523-0.125c-2.027-1.297-4.051-2.603-6.068-3.917
		C18.763,7.226,18.575,7.015,18.292,6.767z"/>
	<path fill-rule="evenodd" clip-rule="evenodd" d="M39.71,7.23c-1.035,0.313-2.084,0.526-3.041,0.948
		c-1.188,0.524-2.086,0.23-3.076-0.493c-1.473-1.078-3.053-2.01-4.58-3.017c-0.33-0.218-0.625-0.491-1.035-0.818
		c0.648-0.201,1.18-0.37,1.715-0.53c0.818-0.244,1.633-0.493,2.457-0.714c0.182-0.049,0.441-0.069,0.584,0.022
		c2.291,1.464,4.568,2.948,6.848,4.429C39.62,7.084,39.642,7.139,39.71,7.23z"/>
	<path fill-rule="evenodd" clip-rule="evenodd" d="M10.603,15.894c-1.649,0.492-3.14,0.941-4.637,1.37
		c-0.12,0.034-0.303-0.05-0.424-0.128c-1.781-1.152-3.549-2.325-5.34-3.464c-0.418-0.266-0.32-0.439-0.084-0.771
		c0.627-0.882,1.627-1.007,2.519-1.389c0.834-0.356,1.411-0.043,2.063,0.398c1.715,1.161,3.462,2.271,5.191,3.409
		C10.104,15.457,10.288,15.636,10.603,15.894z"/>
	<path fill-rule="evenodd" clip-rule="evenodd" d="M46.841,12.696c-0.705,0.994-1.338,1.886-1.973,2.776
		c-0.789,1.106-1.578,2.211-2.377,3.311c-0.084,0.115-0.219,0.251-0.344,0.269c-1.604,0.222-3.207,0.424-4.938,0.648
		c0.346-0.505,0.631-0.93,0.928-1.346c1.068-1.504,2.16-2.993,3.203-4.514c0.307-0.449,0.658-0.614,1.186-0.665
		c1.227-0.118,2.447-0.316,3.67-0.475C46.364,12.678,46.538,12.696,46.841,12.696z"/>
	<path fill-rule="evenodd" clip-rule="evenodd" d="M26.815,21.072c0.418-0.585,0.766-1.076,1.115-1.566
		c0.979-1.376,1.967-2.746,2.932-4.132c0.328-0.469,0.637-0.808,1.303-0.847c1.23-0.073,2.449-0.305,3.674-0.463
		c0.164-0.021,0.332-0.003,0.578-0.003c-0.104,0.18-0.16,0.301-0.236,0.408c-1.332,1.874-2.676,3.738-3.988,5.626
		c-0.234,0.339-0.537,0.332-0.854,0.375C29.876,20.667,28.413,20.86,26.815,21.072z"/>
	<path fill-rule="evenodd" clip-rule="evenodd" d="M26.052,15.395c-0.111,0.214-0.168,0.354-0.252,0.473
		c-1.342,1.888-2.684,3.775-4.041,5.652c-0.096,0.133-0.293,0.246-0.459,0.27c-1.531,0.217-3.066,0.412-4.717,0.629
		c0.129-0.234,0.203-0.41,0.313-0.563c1.336-1.871,2.67-3.742,4.023-5.601c0.111-0.152,0.346-0.269,0.537-0.297
		c1.24-0.18,2.482-0.333,3.725-0.49C25.437,15.436,25.694,15.424,26.052,15.395z"/>
	<path fill-rule="evenodd" clip-rule="evenodd" d="M6.28,23.733c0.558-0.784,1.066-1.503,1.578-2.218
		c0.819-1.149,1.676-2.274,2.444-3.457c0.356-0.547,0.772-0.786,1.401-0.847c1.348-0.131,2.689-0.32,4.141-0.499
		c-0.689,0.974-1.325,1.877-1.967,2.776c-0.799,1.121-1.599,2.24-2.412,3.351c-0.1,0.137-0.276,0.281-0.434,0.305
		c-1.484,0.211-2.971,0.396-4.457,0.588C6.513,23.74,6.448,23.733,6.28,23.733z"/>
	<path fill-rule="evenodd" clip-rule="evenodd" d="M37.521,0.932c1.35-0.33,2.564-0.716,3.813-0.909
		C42.651-0.182,44.458,1,44.931,2.269c0.336,0.905,0.582,1.843,0.902,2.755c0.105,0.299,0.018,0.41-0.242,0.493
		c-0.455,0.146-0.873,0.236-1.334-0.075c-2.105-1.417-4.23-2.805-6.348-4.204C37.823,1.181,37.747,1.111,37.521,0.932z"/>
	<path fill-rule="evenodd" clip-rule="evenodd" d="M0.407,18.717c1.709-0.223,3.387-0.442,5.215-0.682
		c-1.528,2.142-2.986,4.185-4.531,6.35C0.851,22.391,0.63,20.563,0.407,18.717z"/>
	<path fill-rule="evenodd" clip-rule="evenodd" fill="#FFFFFF" d="M3.566,26.362c2.417-0.31,4.741-0.6,7.065-0.907
		c2.494-0.329,4.986-0.681,7.482-1.01c1.775-0.233,3.555-0.437,5.33-0.667c1.615-0.21,3.229-0.443,4.846-0.655
		c1.844-0.242,3.689-0.467,5.535-0.709c1.598-0.211,3.193-0.439,4.791-0.652c1.809-0.24,3.619-0.473,5.43-0.708
		c0.584-0.076,1.182-0.102,1.75-0.244c0.4-0.1,0.48,0.1,0.518,0.368c0.189,1.447,0.354,2.896,0.545,4.343
		c0.264,1.996,0.549,3.989,0.813,5.985c0.193,1.463,0.359,2.929,0.551,4.392c0.258,1.964,0.541,3.924,0.785,5.889
		c0.105,0.839,0.305,1.714,0.172,2.525c-0.219,1.341-1.492,2.271-2.963,2.458c-2.104,0.268-4.201,0.558-6.303,0.831
		c-2.24,0.29-4.482,0.565-6.723,0.858c-2.51,0.329-5.02,0.677-7.529,1.006c-2.273,0.299-4.549,0.578-6.822,0.877
		c-2.256,0.296-4.51,0.609-6.765,0.907c-0.724,0.096-1.449,0.218-2.177,0.241c-2.021,0.063-3.236-1.104-3.447-3.106
		c-0.213-2.017-0.537-4.022-0.799-6.034c-0.232-1.773-0.44-3.55-0.67-5.323c-0.213-1.652-0.441-3.302-0.66-4.953
		C4.07,30.184,3.821,28.294,3.566,26.362z"/>
</g>
</svg>
