<?xml version="1.0" encoding="utf-8"?>
<!-- Generator: Adobe Illustrator 16.0.0, SVG Export Plug-In . SVG Version: 6.00 Build 0)  -->
<!DOCTYPE svg PUBLIC "-//W3C//DTD SVG 1.1//EN" "http://www.w3.org/Graphics/SVG/1.1/DTD/svg11.dtd">
<svg version="1.1" id="Layer_1" xmlns="http://www.w3.org/2000/svg" xmlns:xlink="http://www.w3.org/1999/xlink" x="0px" y="0px"
	 width="285.374px" height="57.997px" viewBox="0 0 285.374 57.997" enable-background="new 0 0 285.374 57.997"
	 xml:space="preserve">
<g>
	<title>Page 1</title>
	<desc>Created with Sketch.</desc>
	<g id="Page-1_5_">
		<g id="about_3_" transform="translate(-577.000000, -3081.000000)">
			<g id="Group-8_3_" transform="translate(108.000000, 3063.000000)">
				<g id="Page-1_6_" transform="translate(469.000000, 18.000000)">
					<path id="Fill-1_2_" fill="#1D1C1B" d="M97.799,56.408h1.813l1.833-4.316h5.5l1.833,4.316h1.813l-6.405-14.641L97.799,56.408z
						 M101.938,50.653l2.247-5.181l2.247,5.181H101.938z"/>
					<polygon id="Fill-2_1_" fill="#1D1C1B" points="211.137,42.319 207.018,53.097 202.878,42.319 201.066,42.319 207.018,56.959 
						212.95,42.319 					"/>
					<path id="Fill-3_1_" fill="#1D1C1B" d="M121.194,43.641c-1.715-1.321-3.745-1.321-6.386-1.321h-2.701v14.088h2.701h0.61
						c2.286,0,4.139-0.059,5.775-1.319c1.616-1.241,2.463-3.192,2.463-5.715C123.657,46.853,122.81,44.881,121.194,43.641
						 M120.129,53.826c-1.183,0.985-2.858,1.006-5.262,1.006h-1.065V43.877h1.065c2.425,0,4.099,0.039,5.262,1.024
						c1.164,0.965,1.774,2.463,1.774,4.453C121.903,51.344,121.273,52.881,120.129,53.826"/>
					<path id="Fill-5_1_" fill="#1D1C1B" d="M173.505,56.408h1.813l1.832-4.316h5.5l1.833,4.316h1.813l-6.406-14.641L173.505,56.408
						z M177.645,50.653l2.246-5.181l2.248,5.181H177.645z"/>
					<g id="Group-10_1_" transform="translate(66.241625, 42.168151)">
						<path id="Fill-6_1_" fill="#1D1C1B" d="M28.888,1.472c-1.715-1.321-3.745-1.321-6.386-1.321h-2.7v14.088h2.7h0.611
							c2.287,0,4.139-0.059,5.775-1.319c1.616-1.241,2.464-3.192,2.464-5.715C31.352,4.684,30.503,2.713,28.888,1.472
							 M27.824,11.658c-1.183,0.985-2.859,1.006-5.263,1.006h-1.064V1.709h1.064c2.424,0,4.099,0.039,5.263,1.024
							c1.163,0.965,1.773,2.463,1.773,4.453C29.598,9.176,28.966,10.713,27.824,11.658"/>
						<path id="Fill-8_1_" fill="#1D1C1B" d="M2.438,1.885C0.96,3.323,0.231,5.078,0.231,7.264c0,2.502,1.124,4.631,3.173,6.049
							c1.223,0.847,2.661,1.3,4.159,1.3c1.714,0,3.35-0.531,4.75-1.535V10.85c-1.282,1.498-2.838,2.228-4.612,2.228
							c-1.912,0-3.627-0.908-4.75-2.504C2.3,9.649,1.984,8.545,1.984,7.244c0-1.654,0.532-3.033,1.616-4.156
							c1.045-1.084,2.543-1.715,4.021-1.715c1.833,0,3.33,0.67,4.691,2.147V1.334C10.855,0.33,9.356-0.183,7.681-0.183
							C5.611-0.183,3.878,0.506,2.438,1.885"/>
					</g>
					<polygon id="Fill-11_1_" fill="#1D1C1B" points="81.432,56.408 83.107,56.408 83.107,42.319 81.432,42.319 					"/>
					<path id="Fill-12_1_" fill="#1D1C1B" d="M211.776,56.408h1.813l1.833-4.316h5.499l1.832,4.316h1.813l-6.405-14.641
						L211.776,56.408z M215.916,50.653l2.246-5.181l2.247,5.181H215.916z"/>
					<polygon id="Fill-13_1_" fill="#1D1C1B" points="197.321,56.408 198.996,56.408 198.996,42.319 197.321,42.319 					"/>
					<path id="Fill-14_1_" fill="#1D1C1B" d="M123.922,56.408h1.813l1.833-4.316h5.5l1.833,4.316h1.813l-6.405-14.641
						L123.922,56.408z M128.062,50.653l2.247-5.181l2.247,5.181H128.062z"/>
					<polygon id="Fill-15_1_" fill="#1D1C1B" points="153.131,56.408 154.807,56.408 154.807,42.319 153.131,42.319 					"/>
					<polygon id="Fill-16_1_" fill="#1D1C1B" points="138.172,56.408 139.768,56.408 139.768,45.827 150.077,56.959 150.077,42.319 
						148.48,42.319 148.48,53.019 138.172,41.768 					"/>
					<polygon id="Fill-17_1_" fill="#1D1C1B" points="185.022,43.916 189.003,43.916 189.003,56.407 190.699,56.407 190.699,43.916 
						194.66,43.916 194.66,42.319 185.022,42.319 					"/>
					<path id="Fill-18_1_" fill="#1D1C1B" d="M156.58,56.408h1.814l1.832-4.316h5.499l1.833,4.316h1.813l-6.405-14.641
						L156.58,56.408z M160.719,50.653l2.247-5.181l2.246,5.181H160.719z"/>
					<path id="Fill-19_1_" fill="#1D1C1B" d="M215.229,35.642c0.71-0.711,1.163-1.773,1.163-2.937c0-1.892-1.045-3.212-2.7-3.468
						c1.341-0.395,2.09-1.419,2.09-2.917c0-1.26-0.532-2.345-1.419-2.994c-0.887-0.65-2.011-0.71-3.548-0.71h-2.937v14.088h2.937
						C212.825,36.704,214.205,36.646,215.229,35.642L215.229,35.642z M209.514,24.075h1.301c2.228,0,3.252,0.413,3.252,2.443
						c0,1.713-0.985,2.266-3.252,2.266h-1.301V24.075z M209.514,30.104h1.301h0.492c0.868,0,1.557,0.02,2.148,0.374
						c0.77,0.434,1.163,1.203,1.163,2.227c0,0.887-0.354,1.654-0.927,2.068c-0.61,0.435-1.537,0.474-2.877,0.474h-1.301V30.104z"/>
					<polygon id="Fill-21_1_" fill="#1D1C1B" points="239.453,33.315 229.144,22.064 229.144,36.704 230.741,36.704 230.741,26.124 
						241.048,37.256 241.048,22.616 239.453,22.616 					"/>
					<g id="Group-26_1_" transform="translate(101.910193, 22.391858)">
						<path id="Fill-22_1_" fill="#1D1C1B" d="M2.401,12.52c1.419,1.379,3.331,2.167,5.322,2.167c1.971,0,3.903-0.769,5.341-2.167
							c1.419-1.381,2.188-3.213,2.188-5.222c0-2.01-0.749-3.842-2.188-5.241C11.645,0.678,9.714-0.09,7.724-0.09
							c-1.991,0-3.903,0.769-5.322,2.147C0.963,3.457,0.194,5.289,0.194,7.299C0.194,9.307,0.963,11.121,2.401,12.52 M3.644,3.161
							c1.083-1.104,2.523-1.694,4.08-1.694c1.558,0,2.976,0.591,4.08,1.694c1.104,1.104,1.694,2.562,1.694,4.138
							c0,1.575-0.591,2.995-1.694,4.099c-1.123,1.123-2.543,1.714-4.08,1.714c-1.557,0-2.957-0.591-4.08-1.714
							C2.54,10.273,1.948,8.874,1.948,7.299C1.948,5.722,2.54,4.284,3.644,3.161"/>
						<path id="Fill-24_1_" fill="#1D1C1B" d="M17.578,0.224v8.769c0,3.803,1.793,5.694,5.458,5.694c3.667,0,5.46-1.892,5.46-5.694
							V0.224h-1.695v8.769c0,2.817-1.143,4.138-3.765,4.138c-2.621,0-3.763-1.32-3.763-4.138V0.224H17.578z"/>
					</g>
					<path id="Fill-27_1_" fill="#1D1C1B" d="M258.964,36.704h1.813l1.833-4.315h5.499l1.833,4.315h1.813l-6.405-14.64
						L258.964,36.704z M263.103,30.951l2.247-5.182l2.246,5.182H263.103z"/>
					<polygon id="Fill-28_1_" fill="#1D1C1B" points="255.554,36.704 257.229,36.704 257.229,22.617 255.554,22.617 					"/>
					<polygon id="Fill-29_1_" fill="#1D1C1B" points="94.499,22.616 94.499,36.704 101.496,36.704 101.496,35.108 96.174,35.108 
						96.174,22.616 					"/>
					<polygon id="Fill-30_1_" fill="#1D1C1B" points="205.73,35.108 200.409,35.108 200.409,22.616 198.734,22.616 198.734,36.704 
						205.73,36.704 					"/>
					<polygon id="Fill-31_1_" fill="#1D1C1B" points="253.504,22.616 251.496,22.616 245.582,28.883 245.582,22.616 243.926,22.616 
						243.926,36.704 245.582,36.704 245.582,29.118 251.928,36.704 254.096,36.704 247.455,28.962 					"/>
					<path id="Fill-32_1_" fill="#1D1C1B" d="M90.813,36.704h1.813l-6.405-14.64l-6.387,14.64h1.814l1.833-4.315h5.499
						L90.813,36.704z M83.974,30.951l2.247-5.182l2.247,5.182H83.974z"/>
					<polygon id="Fill-33_1_" fill="#1D1C1B" points="142.824,24.213 146.805,24.213 146.805,36.704 148.5,36.704 148.5,24.213 
						152.461,24.213 152.461,22.616 142.824,22.616 					"/>
					<polygon id="Fill-34_1_" fill="#1D1C1B" points="162.355,35.147 156.599,35.147 156.599,29.75 162.355,29.75 162.355,28.192 
						156.599,28.192 156.599,24.153 162.355,24.153 162.355,22.616 154.924,22.616 154.924,36.704 162.355,36.704 					"/>
					<g id="Group-41_1_" transform="translate(66.241625, 22.391858)">
						<path id="Fill-35_1_" fill="#1D1C1B" d="M75.636,10.352c0-1.773-0.927-3.073-2.778-3.861l-2.011-0.887
							c-1.282-0.552-1.892-1.261-1.892-2.267c0-1.201,0.886-2.049,2.148-2.049c1.005,0,1.773,0.553,2.384,1.615l1.379-0.887
							c-0.688-1.398-1.95-2.128-3.646-2.128c-2.345,0-3.961,1.498-3.961,3.468c0,1.715,0.906,2.936,2.778,3.725l1.715,0.729
							c1.458,0.63,2.188,1.556,2.188,2.816c0,1.537-1.124,2.622-2.819,2.622c-1.418,0-2.384-0.888-2.798-2.602l-1.518,0.749
							c0.532,2.088,2.09,3.27,4.316,3.27C73.842,14.667,75.636,12.934,75.636,10.352"/>
						<path id="Fill-37_1_" fill="#1D1C1B" d="M127.86,8.993c0,2.817-1.144,4.138-3.765,4.138s-3.765-1.32-3.765-4.138V0.224h-1.695
							v8.769c0,3.803,1.794,5.694,5.46,5.694s5.459-1.892,5.459-5.694V0.224h-1.694V8.993z"/>
						<path id="Fill-39_1_" fill="#1D1C1B" d="M2.438,1.959C0.96,3.398,0.231,5.15,0.231,7.338c0,2.502,1.124,4.63,3.173,6.049
							c1.223,0.847,2.661,1.301,4.159,1.301c1.714,0,3.35-0.533,4.75-1.537v-2.227c-1.282,1.498-2.838,2.227-4.612,2.227
							c-1.912,0-3.627-0.906-4.75-2.502C2.3,9.722,1.984,8.619,1.984,7.318c0-1.654,0.532-3.034,1.616-4.156
							c1.045-1.084,2.543-1.716,4.021-1.716c1.833,0,3.33,0.671,4.691,2.148V1.408c-1.458-1.006-2.957-1.519-4.632-1.519
							C5.611-0.111,3.878,0.58,2.438,1.959"/>
					</g>
					<polygon id="Fill-42_1_" fill="#1D1C1B" points="218.916,36.704 226.346,36.704 226.346,35.147 220.59,35.147 220.59,29.749 
						226.346,29.749 226.346,28.192 220.59,28.192 220.59,24.153 226.346,24.153 226.346,22.616 218.916,22.616 					"/>
					<path id="Fill-43_1_" fill="#1D1C1B" d="M182.651,29.907v-0.473h-5.814v1.497h4.021c-0.196,2.758-2.286,4.631-5.085,4.631
						c-3.212,0-5.519-2.386-5.519-5.754c0-3.566,2.247-5.99,5.519-5.99c1.991,0,3.508,0.848,4.534,2.562l1.399-1.123
						c-1.321-1.99-3.312-2.955-5.993-2.955c-2.029,0-3.725,0.611-5.006,1.832c-1.518,1.439-2.267,3.33-2.267,5.675
						c0,2.856,1.321,5.182,3.627,6.442c0.946,0.513,2.147,0.828,3.547,0.828C179.911,37.079,182.651,34.399,182.651,29.907"/>
					<polygon id="Fill-45_1_" fill="#1D1C1B" points="273.469,36.704 275.067,36.704 275.067,26.124 285.374,37.256 285.374,22.617 
						283.778,22.617 283.778,33.315 273.469,22.064 					"/>
					<path id="Fill-46_1_" fill="#1D1C1B" d="M165.971,17.376c1.971,0,3.902-0.77,5.341-2.168c1.419-1.379,2.188-3.211,2.188-5.221
						s-0.748-3.842-2.188-5.241c-1.42-1.38-3.351-2.147-5.341-2.147c-1.991,0-3.903,0.768-5.322,2.147
						c-1.438,1.399-2.208,3.231-2.208,5.241s0.77,3.822,2.208,5.221C162.068,16.588,163.98,17.376,165.971,17.376 M161.89,5.85
						c1.085-1.104,2.523-1.694,4.081-1.694c1.557,0,2.976,0.591,4.079,1.694c1.104,1.104,1.695,2.562,1.695,4.138
						s-0.592,2.995-1.695,4.099c-1.123,1.122-2.542,1.713-4.079,1.713c-1.558,0-2.957-0.591-4.081-1.713
						c-1.104-1.124-1.694-2.522-1.694-4.099S160.787,6.972,161.89,5.85"/>
					<path id="Fill-48_1_" fill="#1D1C1B" d="M148.953,12.687h5.499l1.833,4.314h1.813l-6.405-14.639l-6.387,14.639h1.814
						L148.953,12.687z M151.693,6.066l2.246,5.182h-4.493L151.693,6.066z"/>
					<polygon id="Fill-49_1_" fill="#1D1C1B" points="93.395,6.421 103.703,17.553 103.703,2.914 102.107,2.914 102.107,13.612 
						91.798,2.362 91.798,17.001 93.395,17.001 					"/>
					<path id="Fill-50_1_" fill="#1D1C1B" d="M88.823,11.681V2.914h-1.695v8.767c0,2.818-1.144,4.139-3.765,4.139
						c-2.621,0-3.765-1.32-3.765-4.139V2.914h-1.694v8.767c0,3.805,1.793,5.695,5.459,5.695
						C87.029,17.376,88.823,15.485,88.823,11.681"/>
					<polygon id="Fill-52_1_" fill="#1D1C1B" points="68.798,10.047 74.554,10.047 74.554,8.489 68.798,8.489 68.798,4.45 
						74.554,4.45 74.554,2.914 67.123,2.914 67.123,17.001 68.798,17.001 					"/>
					<path id="Fill-53_1_" fill="#1D1C1B" d="M110.147,17.001c2.286,0,4.14-0.059,5.775-1.32c1.617-1.24,2.464-3.191,2.464-5.713
						c0-2.522-0.847-4.492-2.464-5.734c-1.714-1.319-3.744-1.319-6.385-1.319h-2.701v14.087h2.701H110.147z M108.531,4.47h1.065
						c2.424,0,4.099,0.04,5.262,1.025c1.162,0.965,1.773,2.463,1.773,4.453c0,1.989-0.63,3.526-1.773,4.473
						c-1.183,0.985-2.858,1.004-5.262,1.004h-1.065V4.47z"/>
					<path id="Fill-55_1_" fill="#1D1C1B" d="M122.514,12.687h5.499l1.833,4.314h1.813l-6.406-14.639l-6.385,14.639h1.813
						L122.514,12.687z M125.253,6.066l2.247,5.182h-4.493L125.253,6.066z"/>
					<g id="Group-63_1_" transform="translate(0.000000, 0.218438)">
						<path id="Fill-56_1_" fill="#1D1C1B" d="M135.176,15.857c0.968,0.671,2.073,1.084,3.235,1.23v1.287
							c0.163-0.016,0.493-0.016,0.624-0.016c0.715,0,1.056,0.211,1.056,0.682c0,0.438-0.325,0.649-0.959,0.649
							c-0.341,0-0.991-0.081-1.949-0.309v0.796c0.845,0.244,1.543,0.357,2.047,0.357c1.3,0,1.982-0.535,1.982-1.494
							c0-0.926-0.601-1.43-1.771-1.43h-0.228v-0.463c0.041,0.001,0.081,0.01,0.122,0.01c1.714,0,3.351-0.532,4.749-1.537v-2.227
							c-1.28,1.498-2.838,2.227-4.612,2.227c-1.912,0-3.627-0.906-4.749-2.502c-0.651-0.927-0.966-2.029-0.966-3.33
							c0-1.654,0.532-3.035,1.616-4.157c1.045-1.084,2.542-1.714,4.02-1.714c1.833,0,3.332,0.67,4.691,2.147V3.878
							c-1.458-1.006-2.957-1.518-4.632-1.518c-2.069,0-3.804,0.689-5.242,2.068c-1.479,1.438-2.208,3.192-2.208,5.379
							C132.003,12.31,133.126,14.439,135.176,15.857"/>
						<g id="Group-60_1_" transform="translate(149.268459, 0.000000)">
							<g id="Clip-59_1_">
							</g>
							<defs>
								<filter id="Adobe_OpacityMaskFilter" filterUnits="userSpaceOnUse" x="0.134" y="-0.218" width="4.663" height="1.842">
									<feColorMatrix  type="matrix" values="1 0 0 0 0  0 1 0 0 0  0 0 1 0 0  0 0 0 1 0"/>
								</filter>
							</defs>
							<mask maskUnits="userSpaceOnUse" x="0.134" y="-0.218" width="4.663" height="1.842" id="mask-2_1_">
								<g filter="url(#Adobe_OpacityMaskFilter)">
									<polygon id="path-1_1_" fill="#FFFFFF" points="4.797,-0.218 0.134,-0.218 0.134,1.623 4.797,1.623 									"/>
								</g>
							</mask>
							<path id="Fill-58_1_" mask="url(#mask-2_1_)" fill="#1D1C1B" d="M1.553,1.085c0.098,0,0.228,0.016,0.391,0.066l0.768,0.211
								c0.178,0.049,0.357,0.081,0.521,0.081c0.799,0,1.354-0.57,1.565-1.662H4.096C3.95,0.173,3.706,0.367,3.346,0.367
								c-0.114,0-0.245-0.032-0.424-0.081L2.139,0.06C1.993,0.009,1.83-0.007,1.667-0.007c-0.782,0-1.337,0.57-1.532,1.63h0.701
								C0.981,1.265,1.227,1.085,1.553,1.085"/>
						</g>
						<path id="Fill-61_1_" fill="#1D1C1B" d="M28.038,56.932C12.316,56.932,0,45.08,0,29.951C0,13.707,11.792,1.918,28.038,1.918
							c10.119,0,17.875,4.046,23.054,12.027l-2.314,1.492C44.075,8.188,37.291,4.664,28.038,4.664
							c-14.65,0-25.28,10.635-25.28,25.286c0,13.589,11.103,24.234,25.28,24.234c12.008,0,21.447-7.425,23.021-17.862h-8.011v-2.745
							h11.041l-0.113,1.478C52.992,47.731,42.083,56.932,28.038,56.932"/>
					</g>
					<path id="Fill-64_1_" fill="#1D1C1B" d="M3.315,31.031l-0.002-0.002L3.315,31.031z"/>
					<g id="Group-75_1_" transform="translate(3.297094, 11.904430)">
						<path id="Fill-65_1_" fill="#1D1C1B" d="M0-0.3"/>
						<path id="Fill-67_1_" fill="#1D1C1B" d="M0-0.3"/>
						<path id="Fill-69_1_" fill="#1D1C1B" d="M0.486,13.559c0.004-0.002,0.006-0.004,0.008-0.006
							c0.296-0.307,0.6-0.604,0.884-0.931c0.269-0.309,0.559-0.637,0.748-0.962c0.338-0.588-0.447-0.289-0.241-0.297
							c0.083,0.076,0.07,0.172,0.064,0.246c-0.015,0.18-0.216,0.432-0.38,0.607c-0.384,0.411-0.759,0.769-1.117,1.129
							C0.405,13.414,0.354,13.643,0.486,13.559"/>
						<path id="Fill-71_1_" fill="#1D1C1B" d="M0.461,14.38c0.006-0.008,0.013-0.014,0.02-0.021
							c0.372-0.488,0.723-0.928,1.083-1.341c0.303-0.349,0.856-0.99,1.104-1.362C2.744,11.54,2.882,11.38,2.81,11.22
							c-0.198,0.129-0.244,0.367-0.353,0.543c-0.111,0.182-0.525,0.642-0.674,0.801c-0.452,0.479-0.959,0.928-1.399,1.425
							C0.282,14.133,0.197,14.669,0.461,14.38"/>
						<path id="Fill-73_1_" fill="#1D1C1B" d="M47.026,15.917c-0.105-0.197-0.301-0.455-0.313-0.471
							c-0.011-0.014-0.6-0.604-0.986-0.719c-0.211-0.063-0.465-0.057-0.688-0.079c-0.229-0.021-0.457-0.04-0.673-0.108
							c-0.377-0.119-0.729-0.402-1.126-0.439c-0.806-0.072-1.065,0.759-1.846,0.799c-0.092-0.288-0.118-0.571-0.25-0.859
							c-0.115-0.252-0.347-0.473-0.375-0.736c-0.022-0.191,0.06-0.293,0.093-0.438c0.029-0.123,0.023-0.256,0.031-0.391
							c0.046-0.785,0.023-1.604-0.204-2.238c-0.129-0.364-0.303-0.714-0.482-1.056c0,0,0,0,0.001,0.001
							c-0.052-0.102-0.103-0.201-0.098-0.242c0.016-0.141,0.374-0.275,0.532-0.359c0.446-0.238,0.735-0.379,1.142-0.643
							c0.178-0.113,0.349-0.35,0.547-0.344c0.131,0.004,0.212,0.116,0.329,0.188h0.001c0.003-0.005,0.004-0.012,0.007-0.018
							c0.064,0.048,0.135,0.096,0.211,0.128c0.137,0.056,0.496,0.126,0.533-0.048c0.057-0.27-0.623-0.232-0.594-0.547
							c0.029-0.334,0.621-0.104,0.813-0.141c0.3-0.77-0.352-1.07-0.799-1.361c-0.239-0.156-0.467-0.33-0.719-0.453
							c-0.552-0.271-1.105-0.559-1.611-0.734c-0.149-0.354-0.425-0.577-0.892-0.611c-0.17-0.16-0.12-0.518-0.313-0.625
							c-0.149-0.084-0.379,0.009-0.563,0.063c-0.383,0.109-0.692,0.227-0.97,0.406c-0.133,0.087-0.326,0.284-0.27,0.377
							c0.055,0.093,0.24-0.044,0.348-0.11c0.115-0.073,0.225-0.134,0.36-0.188c0.21-0.084,0.621-0.256,0.739-0.109
							c0.17,0.203-0.286,0.301-0.457,0.375c-0.146,0.063-0.245,0.048-0.298,0.142c-0.105,0.187,0.02,0.447-0.172,0.516
							c-0.077,0.028-0.183,0.002-0.266-0.03c-0.308-0.123-0.544-0.463-0.892-0.549c0.041,0.237-0.093,0.383-0.235,0.564
							c-0.086,0.109-0.206,0.245-0.296,0.266c-0.248,0.053-0.361-0.113-0.486-0.234c-0.161-0.158-0.382-0.314-0.437-0.517
							c-0.081-0.298,0.208-0.505,0.172-0.704c-0.033-0.179-0.358-0.188-0.595-0.219c-0.262-0.036-0.54-0.094-0.72-0.094
							c-0.428,0-0.782,0.088-1.063,0.219c-0.143,0.066-0.402,0.148-0.36,0.266c0.042,0.117,0.328-0.041,0.485-0.109
							c0.44-0.189,1.564-0.113,1.57-0.034c0.005,0.078-0.194,0.251-0.381,0.269c-0.083,0.008-0.186-0.031-0.282-0.031
							c-0.322,0.001-0.714,0.1-0.722,0.241c-0.007,0.14,0.222,0.321,0.456,0.29c0.086-0.01,0.166-0.094,0.266-0.093
							c0.078,0,0.171,0.087,0.266,0.093c0.098,0.008,0.208-0.072,0.298-0.061c0.063,0.007,0.216,0.111,0.296,0.155
							c0.116,0.063,0.211,0.118,0.298,0.172c0.139,0.087,0.453,0.319,0.407,0.517c-0.081,0.346-0.822-0.021-0.986-0.016
							c-0.17,0.004-0.469,0.214-0.579-0.017c-0.029-0.142,0.064-0.233,0.016-0.344c-0.107-0.056-0.13,0.068-0.251,0.048
							c-0.209-0.238-0.317-0.095-0.579-0.157c-0.195-0.047-0.487-0.329-0.563-0.422c-0.122-0.147-0.149-0.354-0.298-0.36
							c-0.063-0.003-0.232,0.104-0.297,0.141c-0.551,0.311-0.777,0.676-1.048,1.221c-0.098,0.195-0.21,0.492-0.422,0.484
							c-0.2-0.006-0.438-0.334-0.518-0.548c-0.046-0.126-0.037-0.253-0.093-0.343c-0.09-0.145-0.298-0.193-0.406-0.328
							c-0.097-0.123-0.112-0.225-0.172-0.393c0.039-0.191,0.248-0.328,0.219-0.516c-0.021-0.138-0.325-0.234-0.501-0.313
							c-0.228-0.101-0.405-0.178-0.61-0.219c-0.292-0.059-0.692,0.016-0.97,0.063c-0.264,0.044-0.701,0.125-0.622,0.307
							c0.079,0.183,0.281-0.021,0.418-0.072c0.208-0.079,0.769-0.236,1.111-0.172c0.19,0.035,0.905,0.344,0.783,0.578
							c-0.106,0.203-0.421-0.125-0.517-0.188c-0.243-0.008-0.463-0.049-0.719-0.047c-0.234,0.002-0.586,0.028-0.627,0.188
							c-0.033,0.137,0.137,0.341,0.282,0.376c0.141,0.034,0.324-0.038,0.438,0.046c0.067,0.07,0.014,0.299,0.095,0.313
							c0.081,0.015,0.181-0.239,0.36-0.267c0.138-0.02,0.447,0.053,0.563,0.172c0.072,0.075,0.1,0.279,0.141,0.346
							c0.112,0.18,0.329,0.202,0.329,0.375c0,0.157-0.19,0.291-0.375,0.313c-0.219,0.026-0.499-0.145-0.561-0.099
							c-0.063,0.047,0.074,0.149,0.123,0.208c0.16,0.197,0.364,0.475,0.391,0.766c0.044,0.486-0.191,1.035-0.391,1.174
							s-0.524,0.191-0.86,0.141c-0.216-0.136-0.386-0.316-0.516-0.516c-0.045-0.068-0.09-0.199-0.167-0.188
							c-0.078,0.011-0.005,0.266-0.005,0.266s0.161,0.403,0.297,0.594c0.114,0.16,0.298,0.255,0.407,0.392
							c0.181,0.228,0.341,0.549,0.5,0.872c0.005,0.041,0.004,0.09-0.015,0.145c-0.03,0.091-0.377,0.123-0.579,0.141
							c-0.953,0.086-1.86,0.161-2.801,0.219c-0.5,0.031-0.872,0.07-1.142-0.156c-0.045-0.037-0.097-0.092-0.147-0.154
							c-0.001,0-0.001,0.002-0.002,0.003c-0.114-0.159-0.211-0.329-0.195-0.442c0.029-0.199,0.485-0.271,0.705-0.359
							c0.374-0.15,0.801-0.484,1.313-0.361c0.196,0.048,0.68,0.387,0.782,0.032c-0.176-0.116-0.557-0.116-0.563-0.36
							c-0.004-0.146,0.156-0.27,0.313-0.297c0.249-0.043,0.558,0.141,0.751,0.016c0.061-0.191-0.028-0.35,0-0.548
							c0.019-0.14,0.102-0.257,0.092-0.39c-0.024-0.402-0.424-0.572-0.734-0.705c-0.204-0.086-0.494-0.162-0.516-0.359
							c-0.02-0.17,0.142-0.479,0.313-0.531c0.103-0.031,0.283,0.021,0.422,0c0.232-0.037,0.456-0.303,0.658-0.282
							c0.19,0.02,0.319,0.382,0.524,0.246c0.205-0.134-0.131-0.159-0.196-0.246c0-0.068,0.005-0.14-0.015-0.188
							c-0.419-0.19-0.461-0.759-0.892-0.938c-0.466,0.342-0.9,0.58-1.236,1.032c-0.11,0.148-0.29,0.511-0.485,0.532
							c-0.256,0.026-0.655-0.308-0.782-0.423c-0.212-0.192-0.443-0.554-0.657-0.672c-0.165-0.093-0.901-0.184-0.908-0.407
							c0-0.013,0.003-0.026,0.007-0.041c0.723-0.198,1.363-0.374,1.773-0.488c1.56-0.434,8.03-2.289,8.622-2.459
							c0.592-0.17,2.091-0.602,2.091-0.602s0.279-0.248,0.04-0.296c-0.18,0.048-1.205,0.346-1.205,0.346s-8.037,2.32-9.105,2.634
							c-0.371,0.109-1.158,0.326-2.039,0.567c0.016-0.094-0.07-0.128-0.272-0.2V3.082c-0.15-0.034-0.304-0.093-0.45-0.126
							c-0.04-0.01-0.08-0.018-0.119-0.021c-0.013-0.002-0.029-0.003-0.043-0.006c-0.464-0.041-1.126,0.094-1.537,0.287
							c-0.127,0.061-0.365,0.216-0.344,0.313c0.021,0.097,0.191-0.037,0.266-0.078c0.256-0.139,0.592-0.277,0.907-0.328
							c0.317-0.052,1.231-0.119,1.174,0.25c-0.031,0.192-0.462,0.143-0.705,0.156c-0.497,0.029-1.012,0.137-1.062,0.246
							c-0.05,0.109,0.32,0.36,0.499,0.363c0.091,0.002,0.173-0.083,0.265-0.078c0.102,0.007,0.178,0.14,0.283,0.142
							c0.096,0.001,0.167-0.104,0.281-0.079c0.119,0.027,0.133,0.188,0.219,0.252c0.2-0.158,0.322-0.369,0.641-0.345
							c0.132,0.009,0.303,0.095,0.47,0.172c0.264,0.122,0.612,0.389,0.521,0.564c-0.091,0.177-0.375,0.095-0.616,0.171
							c-0.216,0.066-0.415,0.234-0.61,0.203c-0.181-0.03-0.253-0.233-0.422-0.25c0.016,0.109-0.031,0.204,0,0.281
							c0.552,0.236,1.155,0.42,1.173,1.188c-0.27,0.326-0.565,0.928-1.158,0.782c-0.347-0.086-0.497-0.447-0.579-0.782
							c-0.027-0.112-0.103-0.387-0.172-0.36c-0.068,0.027-0.063,0.588-0.015,0.736c0.089,0.271,0.373,0.646,0.657,0.75
							c0.117,0.043,0.279,0.035,0.391,0.094c0.212,0.113,0.294,0.449,0.267,0.72c-0.163,0.245-0.508,0.277-0.829,0.391
							c-0.691,0.243-1.486,0.452-2.191,0.626c-0.143-0.19-0.123-0.499-0.141-0.797c-0.017-0.285-0.025-0.587-0.031-0.877
							c-0.01-0.527,0.027-1.291,0.188-1.674c0.054-0.129,0.198-0.31,0.297-0.484c0.101-0.176,0.214-0.369,0.313-0.47
							c0.083-0.083,0.321-0.267,0.469-0.25c0.223,0.024,0.43,0.398,0.48,0.36c0.05-0.039,0.005-0.257-0.011-0.375
							c0.028-0.113,0.229-0.186,0.172-0.283c-0.218-0.037-0.238,0.149-0.438,0.157c-0.186,0.008-0.385-0.114-0.532-0.203
							c-0.16-0.098-0.288-0.216-0.391-0.345c-0.235-0.293-0.584-0.879-0.662-0.811c-0.05,0.042,0.016,0.16,0.063,0.283
							c0.007,0.021,0.016,0.043,0.021,0.063c0.013,0.042,0.021,0.084,0.019,0.123c0.002,0.075-0.014,0.161-0.075,0.234
							c-0.072,0.085-0.154,0.176-0.237,0.294c-0.111,0.029-0.185,0.051-0.214,0.06c-0.228,0.069-1.041,0.24-1.265,0.288
							c-0.066-0.053-0.126-0.092-0.174-0.117c-0.089-0.049-0.154-0.057-0.233-0.045c-0.081,0.012-0.581,0.078-0.754,0.081
							c-0.173,0.001-0.36-0.032-0.642,0.056c-0.282,0.088-1.417,0.467-2.188,0.516c-0.772,0.049-1.782,0.35-1.896,0.377
							s-0.233,0.025-0.369,0.014c-0.136-0.01-0.505-0.07-1.146-0.01C9.673,5.54,9.553,5.312,9.255,5.292
							C9.119,5.28,8.995,5.257,8.902,5.233c-0.006-0.04-0.027-0.078-0.069-0.115c-0.08-0.09,0.03-0.18,0.05-0.27
							c-0.08-0.268-0.318-0.516-0.14-0.824c-0.04-0.12-0.169-0.209-0.209-0.338c-0.01-0.09,0.05-0.149,0.1-0.219
							c0.01-0.209-0.08-0.408-0.219-0.567C7.928,2.552,7.261,2.651,6.684,2.722C6.316,2.81,5.919,2.85,5.61,3.099
							c-0.607,0.418-0.696,1.164-0.756,1.83c0,0-0.002,0.109,0.007,0.161s0.082,0.098,0.122,0.107
							c0.153,0.05,0.361-0.005,0.509,0.038c0.039,0.012,0.063,0.029,0.077,0.067c0.02,0.056,0.058,0.028,0.07,0.054
							C5.66,5.475,5.6,5.575,5.51,5.644C5.49,5.655,5.469,5.665,5.448,5.675C5.434,5.677,5.42,5.678,5.408,5.678
							c-0.026,0-0.132,0.007-0.281,0.039c-0.15,0.034-0.437,0.13-0.697,0.198c-0.261,0.07-0.791,0.184-1.113,0.506
							S2.668,7.434,2.583,7.569C2.431,7.81,1.823,8.218,1.671,8.675C1.519,9.13,1.252,9.571,1.172,9.718
							c-0.082,0.146-0.171,0.35-0.176,0.473s-0.04,0.193,0.037,0.328c0.078,0.134,0.108,0.232,0.299,0.271
							c0.191,0.037,0.604,0.09,0.934,0.129c0.33,0.038,1.378,0.079,1.61,0.132s0.373,0.089,0.522,0.301
							c0.095,0.137,0.219,0.313,0.395,0.422c0.095,0.098,0.194,0.311,0.18,0.534c-0.003,0.069-0.01,0.138-0.017,0.204
							c-0.067,0.062-0.123,0.154-0.146,0.302c-0.016,0.101-0.047,0.21-0.04,0.378c0.004,0.043,0.007,0.092,0.009,0.164
							c-0.296,0.895-0.87,1.393-1.384,1.34c-0.191-0.041-0.361-0.088-0.475-0.111c-0.153-0.034-0.277-0.057-0.381-0.071
							c-0.301-0.081-0.184-0.498-0.028-0.624c0.162-0.133,0.842-0.98,0.913-1.412c0.069-0.43,0.547-0.951,0.547-0.951
							s0.025-0.018,0.079-0.102s0.049-0.214-0.124-0.053c-0.12,0.111-0.202,0.133-0.57,0.754c-0.718,1.186-1.377,1.743-2.419,2.551
							c-0.041,0.027-0.085,0.059-0.135,0.092c-0.012,0.011-0.024,0.018-0.033,0.025c-0.363,0.23-0.687,0.622-0.727,1.245
							c-0.012,0.183,0.001,0.343,0.032,0.487c-0.065,0.455-0.099,1.117-0.026,1.241c0.072,0.122,0.129-0.629,0.397-0.573
							c0.157,0.147,0.341,0.248,0.519,0.314c0.251,0.091,0.308,0.264,0.266,0.412l0-0.001c-0.01,0.036-0.02,0.073-0.028,0.109
							c-0.088,0.382,0.042,1.265-0.22,1.439c-0.251,0.167-0.694-0.111-0.829-0.219c-0.003-0.002-0.005-0.004-0.006-0.006
							c-0.148-0.085-0.12,0.115-0.01,0.219c0.187,0.141,0.379,0.29,0.58,0.318c0.263,0.036,0.471-0.152,0.548-0.344
							c0.13-0.32,0.026-0.81,0.094-1.205c0.027-0.153,0.117-0.361,0.204-0.531c0.08-0.157,0.164-0.341,0.25-0.47
							c0.225-0.328,0.645-0.585,1.002-0.688c0.248-0.072,0.54-0.105,0.844-0.078c0.591,0.051,0.88,0.424,1.206,0.751
							c0.307,0.307,0.594,0.687,1.25,0.656c0.133-0.074,0.091-0.234,0.111-0.344c0.032-0.105,0.065-0.198,0.103-0.284
							c0.123-0.194,0.285-0.448,0.463-0.709c0.077-0.092,0.163-0.191,0.263-0.305c0.25-0.287,0.492-0.533,0.782-0.783
							c0.549-0.47,1.167-0.982,1.894-1.22c0.835-0.271,1.848-0.306,2.785-0.329c0.71-0.017,1.492-0.039,2.222-0.093
							c0.447-0.033,0.845-0.046,1.204-0.172c0.125-0.044,0.282-0.175,0.438-0.173c0.12,0.002,0.141,0.11,0.25,0.11
							c0.114-0.001,0.207-0.206,0.313-0.345c0.28-0.365,0.619-0.704,0.908-1.017c0.416-0.45,1.074-0.956,1.909-0.892
							c0.164,0.013,0.444,0.154,0.476,0.042c0.033-0.111-0.177-0.184-0.272-0.276c-0.142-0.137-0.289-0.271-0.329-0.516
							c-0.034-0.205-0.006-0.576,0.094-0.705c0.085-0.109,0.368-0.135,0.61-0.188c0.487-0.104,0.794-0.18,1.298-0.297
							c0.38-0.088,0.628-0.156,0.955-0.281c0.138-0.054,0.319-0.188,0.531-0.141c0.2,0.044,0.415,0.496,0.533,0.688
							c0.292,0.477,0.602,1.102,0.704,1.721c0.055,0.334,0.131,0.916,0.031,1.235c-0.056,0.18-0.243,0.407-0.391,0.438
							c-0.451,0.095-0.631-0.304-1.017-0.234c-0.038,0.164,0.13,0.252,0.235,0.328c0.106,0.076,0.226,0.162,0.359,0.219
							c0.501,0.211,1.107,0.223,1.189,0.845c0.025,0.192-0.039,0.495-0.125,0.626c-0.096,0.145-0.341,0.221-0.517,0.328
							c-0.131,0.081-0.311,0.336-0.548,0.281c-0.159-0.036-0.15-0.313-0.267-0.399c-0.116-0.085-0.392,0.337-0.53,0.571
							c-0.067,0.114-0.145,0.242-0.204,0.375c-0.054,0.125-0.168,0.328-0.063,0.407c0.106,0.078,0.329-0.312,0.516-0.422
							c0.144-0.083,0.333-0.12,0.486-0.172c0.48-0.165,0.83-0.437,1.235-0.735c0.494-0.363,0.929-0.908,1.706-0.923
							c0.565-0.01,1.141,0.211,1.674,0.36c0.538,0.15,1.04,0.287,1.627,0.391c0.204,0.145,0.309,0.395,0.438,0.672
							c0.116,0.246,0.275,0.42,0.141,0.752c0.042,0.213,0.442,0.37,0.407,0.641c-0.035,0.267-0.407,0.131-0.657,0.078
							c-0.195-0.041-0.388-0.057-0.423-0.234c0.051-0.102,0.286-0.016,0.391-0.063c0.075-0.071,0.08-0.211,0.047-0.313
							c-0.058-0.185-0.308-0.194-0.516-0.281c-0.148-0.062-0.392-0.206-0.47-0.298c-0.103-0.12-0.125-0.296-0.218-0.438
							c-0.192-0.293-0.582-0.28-0.939-0.453c-0.225-0.109-0.412-0.316-0.798-0.188c-0.111,0.037-0.188,0.141-0.296,0.203
							c-0.19,0.108-0.461,0.275-0.751,0.313c-0.352,0.046-0.664,0.038-0.97,0.141c-0.261,0.089-0.575,0.266-0.642,0.471
							c-0.038,0.118-0.004,0.275-0.047,0.406c-0.073,0.223-0.288,0.432-0.454,0.578c-0.409,0.361-0.908,0.693-1.674,0.721
							c-0.384,0.012-0.813-0.082-1.095-0.268c-0.249-0.162-0.395-0.463-0.751-0.375c-0.092,0.236,0.004,0.434,0.125,0.643
							c0.063,0.108,0.286,0.259,0.266,0.404c-0.013,0.106-0.397,0.308-0.485,0.361c-0.504,0.309-1.13,0.546-1.768,0.719
							c-0.849,0.231-1.899,0.396-2.91,0.313c-1.716-0.139-2.904-1.012-3.693-2.127c-0.09-0.127-0.231-0.434-0.36-0.469
							c-0.155-0.043-0.607,0.059-0.75,0.109c-0.188,0.066-0.396,0.239-0.344,0.359c0.054,0.121,0.304-0.016,0.5-0.016
							c0.217,0.002,0.723,0.23,0.736,0.423c0.01,0.153-0.169,0.14-0.151,0.239c0.018,0.1,0.393,0.178,0.588,0.309
							c0.668,0.442,1.066,1.575,0.548,2.393c-0.082,0.13-0.295,0.225-0.275,0.323c0.02,0.098,0.281,0.021,0.386,0.067
							c0.136,0.063,0.278,0.46,0.296,0.609c0.042,0.324-0.056,0.734-0.155,1.032c-0.082,0.246-0.303,0.71-0.22,0.939
							c0.063,0.175,0.393,0.217,0.642,0.234c0.24,0.018,0.482,0.018,0.719,0.016c0.791-0.005,1.482-0.153,2.159-0.016
							c0.287,0.118,0.355,0.486,0.532,0.766c0.083,0.133,0.242,0.27,0.36,0.408c0.129,0.152,0.24,0.317,0.344,0.422
							c0.112,0.114,0.442,0.296,0.328,0.5c-0.085,0.155-0.518,0.058-0.602-0.031c-0.084-0.089-0.276-0.837-0.649-1.078
							c-0.115-0.075-0.253-0.107-0.36-0.172c-0.073-0.046-0.181-0.207-0.281-0.22c-0.169-0.023-0.256,0.144-0.376,0.203
							c-0.283,0.006-0.576-0.022-0.86-0.032c-0.297-0.007-0.628,0.021-0.861-0.046c-0.096-0.026-0.166-0.151-0.25-0.172
							c-0.188-0.047-0.587-0.035-0.72,0.032c-0.093,0.046-0.106,0.264-0.234,0.297c-0.246,0.061-0.639-0.376-0.657-0.61
							c-0.01-0.141,0.086-0.291,0.095-0.438c0.013-0.269-0.122-0.584-0.204-0.876c-0.024-0.089-0.052-0.178-0.078-0.267
							c-0.002-0.011-0.003-0.021-0.005-0.032c-0.026-0.091-0.053-0.182-0.076-0.269c-0.002-0.003-0.003-0.007-0.005-0.01
							c-0.024-0.099-0.044-0.196-0.055-0.283c-0.048-0.438,0.253-0.888-0.235-0.954c-0.226-0.032-0.458,0.016-0.735,0
							c-0.299-0.019-0.591-0.067-0.751-0.017c-0.136,0.043-0.173,0.188-0.266,0.22c-0.204,0.069-0.476,0.008-0.673-0.032
							c-0.066-0.013-0.13-0.029-0.191-0.046c-0.006-0.003-0.013-0.006-0.02-0.009c-0.123-0.039-0.228-0.08-0.293-0.116
							c-0.009-0.005-0.019-0.012-0.027-0.017c-0.026-0.017-0.052-0.035-0.078-0.054c-0.004-0.004-0.008-0.006-0.014-0.01
							c-0.023-0.02-0.047-0.038-0.07-0.06c-0.524-0.479-0.631-1.434-1.012-2.082c-0.125-0.213-0.369-0.501-0.579-0.532
							c-0.278-0.04-0.593,0.124-0.86,0.142c-0.305,0.018-0.766-0.104-0.986-0.22C4.601,17.953,4.315,17.617,4,17.418
							c-0.155-0.099-0.397-0.231-0.579-0.251c-0.428-0.043-0.766,0.105-1.049,0.267c-0.212,0.12-0.463,0.321-0.58,0.501
							c-0.295,0.455-0.118,1.121-0.171,1.798c-0.032,0.397-0.268,0.877-0.673,0.922c-0.224,0.026-0.469-0.053-0.685-0.163
							c-0.13-0.066-0.125,0.208,0,0.26c0.015,0.006,0.025,0.013,0.033,0.018c0.161,0.072,0.346,0.129,0.574,0.105
							c0.183-0.019,0.533-0.282,0.501-0.156c-0.033,0.126-0.301,0.437-0.642,0.438c-0.147,0.001-0.315-0.045-0.463-0.114
							c-0.034-0.015-0.05,0.001-0.047,0.03c0.001,0.014,0.015,0.109,0.03,0.21c0.002,0.02,0.005,0.038,0.008,0.058
							c0,0,0.001,0,0.001,0.001c0.001,0.012,0.003,0.023,0.005,0.036v0.003c0.002,0.011,0.003,0.022,0.005,0.032
							c0,0.004,0,0.008,0.002,0.01c0.001,0.008,0.002,0.017,0.003,0.023c0.001,0.005,0.002,0.009,0.003,0.014
							c0,0.006,0.002,0.012,0.002,0.017c0,0.004,0.001,0.008,0.001,0.013c0.001,0.004,0.002,0.009,0.003,0.012
							c0,0.005,0.001,0.008,0.001,0.012c0.001,0.001,0.001,0.005,0.002,0.006c0,0.005,0,0.009,0.001,0.011
							c0.001,0.006,0.002,0.011,0.004,0.015c0.001,0.002,0.002,0.004,0.003,0.006c0.001,0.001,0.001,0.001,0.002,0.003
							c0.001,0.001,0.003,0.003,0.004,0.004s0.001,0.001,0.002,0.002c0.002,0.001,0.005,0.003,0.009,0.004
							c0.426,0.087,0.95,0.01,1.263-0.171h0.031c0.128,0.189,0.209,0.397,0.328,0.594c0.11,0.182,0.309,0.354,0.298,0.595
							c-0.419,0.1-0.424-0.242-0.799-0.171c-0.142,0.025-0.326,0.194-0.375,0.344c-0.077,0.23,0.035,0.579,0.251,0.656
							c0.42,0.15,0.526-0.239,0.986-0.141c0.032,0.165,0.07,0.325,0.141,0.453c-0.326,0.713-0.66,1.426-1.011,2.154
							c-0.007,0.017-0.013,0.04-0.002,0.066c0.012,0.031,0.059,0.16,0.063,0.173c0.005,0.014,0.026-0.007,0.032-0.022
							c0-0.001,0.001-0.003,0.002-0.004c0.118-0.231,0.242-0.479,0.337-0.678c0.082-0.172,0.259-0.723,0.469-0.517
							c-0.027,0.256-0.146,0.461-0.235,0.658c-0.131,0.29-0.286,0.6-0.437,0.907c-0.005,0.017-0.017,0.061-0.003,0.091
							c0.017,0.04,0.061,0.155,0.074,0.187c0.009,0.023,0.027,0.008,0.04-0.014c0.316-0.693,0.555-1.37,0.857-2.079
							c0.063-0.146,0.122-0.318,0.204-0.422c0.177-0.133,0.247,0.208,0.313,0.344c0.429,0.887,0.82,1.597,1.315,2.44
							c0.119,0.203,0.256,0.306,0.218,0.595c-0.036,0.29-0.405,0.704-0.625,0.875c-0.388,0.299-0.886,0.389-1.35,0.317
							c-0.025,0.004-0.009,0.039,0.001,0.064c0.012,0.029,0.057,0.111,0.062,0.119c0.005,0.009,0.019,0.021,0.048,0.025
							c0.152,0.014,0.315,0.011,0.488-0.01c0.941-0.115,1.479-0.846,1.799-1.611c0.281-0.672,0.417-1.43,0.548-2.331
							c0.207-1.443,0.125-3.063-0.157-4.41c-0.07-0.337-0.328-1.032,0.078-1.079c0.287-0.033,0.341,0.282,0.423,0.563
							c0.395,1.359,0.526,2.854,0.375,4.583c-0.144,1.647-0.5,3.493-1.471,4.332c-0.194,0.167-0.49,0.393-0.705,0.5
							c-0.206,0.104-0.437,0.176-0.676,0.219c-0.206,0.024-0.202-0.109,0.049-0.15c0.04-0.007,0.073-0.015,0.102-0.023
							c0.305-0.078,0.628-0.22,0.807-0.373C4.701,29.01,5,28.656,5.101,28.454c0.102-0.202,0.17-0.298,0.093-0.33
							c-0.078-0.031-0.265,0.312-0.397,0.461c-0.381,0.432-0.79,0.676-1.521,0.83c-0.055,0.009-0.115,0.019-0.178,0.023
							c-0.01,0.002-0.019,0.004-0.026,0.008H3.071c-0.003,0.002-0.005,0.004-0.007,0.006H3.062
							c-0.001,0.001-0.003,0.003-0.004,0.005H3.057c-0.005,0.006-0.007,0.011-0.009,0.017v0.002
							c-0.001,0.004-0.002,0.008-0.002,0.012v0.003v0.002c0.001,0.004,0.001,0.006,0.002,0.01c0,0.002,0,0.002,0.001,0.004
							c0,0.002,0.001,0.004,0.001,0.005c0.001,0,0.001,0.002,0.001,0.002s0,0.002,0,0.002c0,0,0.001,0.002,0.001,0.004
							c0.002,0.004,0.004,0.008,0.006,0.011c0.001,0.002,0.002,0.006,0.005,0.01c0.008,0.013,0.022,0.039,0.041,0.07
							c0.001,0,0.002,0.002,0.002,0.004c0,0.002,0,0.002,0.001,0.004c0.005,0.009,0.012,0.021,0.019,0.031
							c0.025,0.046,0.056,0.099,0.084,0.146c0.012,0.022,0.022,0.041,0.034,0.06c0.001,0.002,0.003,0.004,0.003,0.006
							c0.037,0.063,0.065,0.113,0.072,0.122c0.016,0.022,0.044,0.033,0.086,0.032c0.389-0.039,0.756-0.149,1.046-0.317
							c0.902-0.533,1.435-1.471,1.783-2.598c0.472,1.251,1.148,2.448,2.378,2.94c0.405,0.161,0.893,0.21,1.408,0.124
							c1.132-0.182,1.903-1.013,2.394-1.876c0.412-0.725,0.679-1.554,0.84-2.491c0.052-0.277,0.094-0.558,0.129-0.841
							c0.645-0.07,1.19-0.075,1.722-0.046c0.186,0.01,0.562,0.055,0.579,0.25c0.005,0.076-0.081,0.202-0.125,0.298
							c-0.134,0.282-0.252,0.613-0.407,0.859c-0.264,0.42-0.759,0.526-0.703,1.235c0.019,0.253,0.212,0.46,0.203,0.688
							c-0.016,0.382-0.418,0.52-0.469,0.845c-0.035,0.217,0.062,0.366,0.046,0.516c-0.023,0.225-0.39,0.427-0.266,0.689
							c0.063,0.13,0.457,0.093,0.72,0.093c0.617,0,1.066,0.017,1.643,0.017c0.251,0,0.669,0.037,0.751-0.08
							c0.048-0.066,0.023-0.202,0-0.234h1.049c0.292,0,0.859,0.09,0.876-0.172c0.011-0.163-0.234-0.344-0.329-0.453
							c-0.119-0.138-0.272-0.319-0.407-0.391c-0.152-0.08-0.335-0.078-0.422-0.22c-0.043-0.189-0.194-0.324-0.204-0.499
							c-0.009-0.163,0.127-0.329,0.187-0.517c0.071-0.222,0.116-0.433,0.111-0.689c0.071-0.198,0.424-0.116,0.594-0.218
							c-0.014-0.353-0.338-0.72-0.344-1.063c-0.003-0.19,0.109-0.376,0.188-0.533c0.081-0.159,0.126-0.313,0.22-0.469
							c0.144-0.241,0.435-0.709,0.688-0.688c0.21,0.02,0.262,0.301,0.375,0.455c0.146,0.074,0.355,0.098,0.375,0.249
							c0.012,0.098-0.095,0.177-0.126,0.298c-0.05,0.205-0.1,0.41,0.045,0.606c0.145,0.197,1.967,0.302,2.036,0.264
							c0.071-0.039,0.027-0.146,0.078-0.182c0.317,0.042,0.696,0.061,1.017,0.046c0.365-0.017,0.91-0.048,0.954-0.155
							c0.044-0.109-0.123-0.319-0.218-0.47c-0.089-0.141-0.179-0.323-0.297-0.423c-0.145-0.121-0.361-0.157-0.47-0.297
							c-0.218-0.278-0.296-0.704-0.563-0.939c-0.101-0.087-0.219-0.098-0.345-0.186c0.586,0.011,1.098-0.191,1.534-0.063
							c0.212,0.063,0.359,0.235,0.547,0.297c0.109,0.036,0.25,0.01,0.345,0.063c0.138,0.077,0.047,0.299,0.063,0.437
							c0.022,0.2,0.21,0.483,0.375,0.548c0.182,0.071,0.521,0.053,0.781,0.047c0.399-0.009,0.871-0.003,0.943-0.14
							c0.072-0.138-0.095-0.414-0.192-0.564c-0.1-0.154-0.206-0.336-0.344-0.453c-0.282-0.241-0.497-0.201-0.672-0.484
							c-0.053-0.085-0.072-0.197-0.141-0.298c-0.075-0.107-0.246-0.178-0.438-0.313c-0.095-0.065-0.163-0.154-0.251-0.188
							c-0.115-0.046-0.309-0.064-0.485-0.048c-0.272,0.026-0.564,0.073-0.875,0.078c-0.294,0.006-0.589,0.031-0.893,0.031
							c-0.629,0.003-1.262,0.075-1.767-0.046c-0.159-0.038-0.369-0.149-0.376-0.22c-0.012-0.12,0.322-0.327,0.422-0.422
							c0.32-0.305,0.545-0.576,0.798-0.892c0.133-0.165,0.23-0.357,0.36-0.484c0.094-0.093,0.463-0.406,0.61-0.406
							c0.121,0,0.244,0.156,0.375,0.265c0.135,0.112,0.273,0.201,0.375,0.282c0.26,0.207,0.495,0.386,0.798,0.517
							c0.304,0.131,0.616,0.253,0.923,0.375c0.313,0.125,0.666,0.246,0.877,0.438c0.207,0.188,0.393,0.5,0.547,0.814
							c0.148,0.299,0.294,0.706,0.328,1.032c0.034,0.331,0.008,0.604,0.188,0.859c0.128,0.184,0.496,0.301,0.766,0.282
							c0.195-0.015,0.378-0.188,0.595-0.251c0.296-0.087,0.696-0.017,1.032-0.031c0.296-0.013,0.602-0.033,0.908,0
							c0.333,0.037,0.541,0.166,0.813,0.298c0.224,0.107,0.665,0.215,0.72,0.406c0.043,0.145-0.089,0.283-0.109,0.391
							c-0.032,0.174-0.007,0.422,0.063,0.533c0.065,0.104,0.321,0.17,0.516,0.232c0.298,0.099,0.587,0.184,0.923,0.173
							c0.231-0.007,0.579-0.066,0.626-0.156c0.047-0.09-0.119-0.504-0.219-0.673c-0.153-0.258-0.521-0.367-0.642-0.642
							c-0.094-0.213-0.001-0.505-0.078-0.734c-0.176-0.523-0.7-0.552-1.377-0.579c-0.329-0.013-0.686-0.002-1.033-0.015
							c-0.281-0.012-0.665-0.037-1.017-0.063c-0.38-0.028-0.724-0.021-0.955-0.156c-0.196-0.114-0.531-0.598-0.595-0.845
							c-0.053-0.211,0.014-0.427,0.047-0.626c0.078-0.468,0.233-0.939,0.125-1.47c-0.035-0.177-0.121-0.315-0.141-0.501
							c-0.022-0.213,0.042-0.504,0.094-0.656c0.057-0.169,0.159-0.475,0.329-0.47c0.11,0.003,0.165,0.157,0.234,0.22
							c0.122,0.108,0.232,0.136,0.313,0.25c0.077,0.109,0.111,0.245,0.156,0.375c0.04,0.11,0.065,0.292,0.141,0.391
							c0.136,0.18,0.512,0.195,0.438,0.438c-0.042,0.142-0.279,0.133-0.359,0.235c-0.094,0.121-0.144,0.465-0.047,0.642
							c0.07,0.128,0.292,0.227,0.438,0.329c0.151,0.104,0.316,0.206,0.47,0.296c0.33,0.196,0.691,0.316,0.908,0.627
							c-0.007,0.523,0.091,0.894,0.735,0.828c0.375-0.039,0.856-0.105,1.345-0.125c0.498-0.021,0.999-0.039,1.377-0.015
							c0.166,0.01,0.291,0.109,0.422,0.124c0.237,0.026,0.476-0.033,0.501,0.156c0.012,0.102-0.127,0.225-0.141,0.344
							c-0.028,0.236,0.139,0.58,0.297,0.657c0.087,0.043,0.37,0.083,0.501,0.094c0.323,0.029,0.758,0.061,1.048,0.017
							c0.46-0.071,0.143-0.365-0.017-0.595c-0.113-0.164-0.164-0.297-0.266-0.423c-0.132-0.164-0.397-0.217-0.5-0.374
							c-0.063-0.096-0.068-0.21-0.11-0.299c-0.077-0.166-0.221-0.351-0.375-0.469c-0.352-0.271-1.072-0.22-1.581-0.156
							c-0.475,0.06-1.015,0.146-1.502,0.078c-0.323-0.046-0.833-0.59-0.86-0.859c-0.028-0.292,0.219-0.533,0.235-0.799
							c0.022-0.392-0.253-0.981,0.125-1.204c0.084-0.05,0.201-0.059,0.313-0.093c0.384-0.121,0.757-0.396,1.173-0.313
							c0.219,0.241,0.078,0.589,0.22,0.891c0.042,0.091,0.218,0.198,0.328,0.282c0.107,0.081,0.316,0.153,0.298,0.313
							c-0.012,0.101-0.17,0.132-0.235,0.219c-0.098,0.132-0.168,0.457-0.129,0.563c0.039,0.106,0.501,0.392,0.817,0.518
							c0.301,0.119,0.814,0.332,1.048,0.234c0.097-0.051,0.067-0.53,0-0.782c-0.036-0.136-0.12-0.275-0.188-0.406
							c-0.072-0.14-0.173-0.278-0.187-0.407c-0.018-0.156,0.059-0.366,0.015-0.532c-0.05-0.191-0.285-0.293-0.407-0.469
							c-0.081-0.117-0.106-0.259-0.172-0.392c-0.131-0.263-0.413-0.437-0.454-0.688c0.689,0.06,1.903,0.035,2.054,0.088
							c0.151,0.054,0.28,0.44,0.356,0.71c0.102,0.118,0.394,0.176,0.359,0.359c-0.023,0.123-0.186,0.094-0.281,0.173
							c-0.047,0.108-0.108,0.345-0.047,0.5c0.07,0.18,0.545,0.396,0.704,0.485c0.162,0.09,0.612,0.44,0.782,0.375
							c0.093-0.036,0.139-0.231,0.141-0.406c0.005-0.468,0.014-1.211-0.141-1.549c-0.095-0.209-0.329-0.359-0.485-0.516
							c-0.177-0.178-0.342-0.34-0.47-0.501c0.699-0.3,1.295-1.033,2.348-0.72c-0.277,0.343,0.01,0.534,0.266,0.688
							c0.425,0.255,1.347,0.585,1.531,0.508c0.186-0.077,0.013-0.771-0.013-1.118c0.336-0.118,0.593-0.339,0.97-0.298
							c0.321,0.035,0.646,0.247,0.814,0.438c0.096,0.108,0.118,0.276,0.235,0.391c0.16,0.156,0.471,0.192,0.532,0.423
							c-0.191,0.121-0.2,0.479-0.142,0.641c0.059,0.161,1.092,0.534,1.389,0.433c0.11-0.063,0.006-0.865-0.152-1.167
							c-0.073-0.14-0.223-0.213-0.297-0.36c-0.125-0.248-0.157-0.597-0.329-0.782c-0.147-0.159-0.441-0.182-0.703-0.234
							c-0.23-0.045-0.52-0.167-0.673-0.266c-0.224-0.144-0.396-0.35-0.657-0.453c-0.672-0.235-0.706-0.064-0.767-0.188
							c-0.08-0.105,0.201-0.258,0.329-0.359c0.128-0.101,0.213-0.257,0.344-0.345c0.128-0.084,0.325-0.127,0.501-0.188
							c0.168-0.057,0.362-0.173,0.516-0.188c0.509-0.048,0.712,0.451,1.064,0.548c0.329,0.089,0.661-0.167,0.807-0.063
							c0.145,0.104,0.062,0.693,0.289,0.851c0.193,0.12,0.529,0.102,0.783,0.089c0.216-0.011,0.582-0.016,0.617-0.211
							C47.27,16.266,47.101,16.056,47.026,15.917 M19.692,4.31c0.147-0.011,0.298,0.118,0.313,0.219
							c0.043,0.283-0.285,0.43-0.391,0.61c-0.236,0.403-0.154,0.891-0.297,1.439c-0.063,0.236-0.274,0.469-0.297,0.703
							c-0.025,0.264,0.09,0.584,0.141,0.875c0.055,0.316,0.144,0.619,0.172,0.846c0.041,0.324,0.006,0.484-0.344,0.5
							c-0.095-0.25-0.148-0.523-0.218-0.813c-0.086-0.349-0.173-0.757-0.142-1.22c0.043-0.611,0.159-1.258,0.296-1.752
							c0.064-0.228,0.145-0.467,0.267-0.75C19.287,4.745,19.482,4.326,19.692,4.31 M19.022,4.569
							c-0.023,0.062-0.048,0.122-0.074,0.185c0,0,0,0.001-0.001,0.001c-0.206,0.504-0.45,1.066-0.506,1.729
							c-0.033,0.381-0.016,0.805-0.016,1.22c0,0.631,0.021,1.277,0.094,1.768c-0.154,0.168-0.415,0.178-0.642,0.235
							c-1.571,0.401-3.291,0.762-5.054,0.985c-1.58,0.199-3.254-0.086-4.772-0.235c-0.206-0.02-0.44-0.042-0.751-0.079
							c-0.089-0.01-0.237-0.018-0.376-0.031c-0.032-0.023-0.058-0.043-0.067-0.057c-0.038-0.051-0.027-0.078,0.062-0.175
							c0.091-0.099,0.726-0.892,0.962-1.361c0.237-0.468,0.493-1.156,0.509-1.2c0.016-0.045,0.134-0.155,0.232-0.196
							C8.72,7.317,9.058,7.1,9.994,7.109c0.938,0.008,1.187-0.192,1.663-0.176c0.477,0.017,0.995,0.155,1.83-0.285
							c0.835-0.44,1.844-1.099,2.325-1.092c0.48,0.009,0.814,0.31,1.125,0.294c0.309-0.017,0.537-0.155,0.628-0.18
							c0.089-0.024,0.244,0,0.325-0.293c0.067-0.243,0.133-0.392,0.075-0.518C18.078,4.829,18.473,4.722,19.022,4.569 M17.33,10.552
							c0.328-0.057,0.682-0.116,0.986-0.174c0.058-0.011,0.078,0.002,0.069,0.097c-0.007,0.095-0.265,0.134-0.398,0.155
							c-1.793,0.283-3.65,0.661-5.617,0.734c-0.294,0.012-0.654,0.022-1.002,0.031c-0.347,0.01-1.062-0.051-1.02-0.104
							c0.041-0.055,1.436-0.084,2.131-0.084c0.688,0,1.349-0.105,2.002-0.203C15.444,10.86,16.399,10.713,17.33,10.552
							 M15.468,10.78c-0.009-0.049,0.202-0.092,0.313-0.119c0.557-0.139,1.143-0.264,1.753-0.392
							c0.272-0.058,0.783-0.191,0.79-0.156c0.005,0.034,0.027,0.089,0.007,0.156C17.421,10.475,15.476,10.829,15.468,10.78
							 M6.9,10.944c0.014-0.007,0.111-0.033,0.185-0.097h0.043c0.278,0,0.527,0.007,0.736,0.017
							c0.161,0.006,0.469-0.049,0.463,0.082c-0.005,0.132-0.919,0.125-1.387,0.09c-0.032-0.002-0.094-0.004-0.158-0.011
							C6.807,10.971,6.876,10.956,6.9,10.944 M7.489,10.661c-0.11-0.009-0.221-0.016-0.325-0.029c-0.011-0.051-0.04-0.1-0.076-0.141
							c0.686,0.044,1.683,0.128,1.686,0.213c0.003,0.098-0.159,0.072-0.237,0.066C8.199,10.747,7.881,10.691,7.489,10.661
							 M6.641,11.382c0.24,0.021,0.615,0.068,0.879,0.093c0.521,0.046,1.599,0.089,1.602,0.132c0.004,0.043-0.276,0.081-0.413,0.086
							c-0.188,0.009-0.386,0.014-0.58,0c-0.224-0.015-0.843-0.085-0.923-0.094c-0.08-0.008-0.288-0.063-0.422-0.094
							c-0.052-0.012-0.122-0.027-0.187-0.044C6.613,11.436,6.627,11.41,6.641,11.382 M8.969,5.559c0.102,0.004,0.398,0,0.509,0
							c0.11,0,0.303,0.071,0.454,0.125c0.151,0.055,0.19,0.074,0.362,0.025c0.171-0.049,0.544-0.1,0.88-0.051
							s0.517,0.078,0.692,0.063c0.371-0.033,1.061-0.25,1.411-0.347c0.35-0.097,0.764-0.153,1.093-0.225
							c0.33-0.071,0.388-0.093,0.7-0.187c0.311-0.094,1.002-0.33,1.247-0.338c0.244-0.009,0.682-0.022,0.791-0.012
							c0.108,0.011,0.375,0.079,0.42,0.111c0.046,0.033,0.133,0.12,0.009,0.195c-0.125,0.077-0.256,0.104-0.353,0.111
							c-0.098,0.01-0.128,0.027-0.145,0.041s-0.304,0.271-0.369,0.299c-0.065,0.027-0.161,0.055-0.246,0.016
							c-0.083-0.037-0.358-0.194-0.38-0.205c-0.022-0.012-0.057-0.022-0.092-0.006c-0.035,0.016-0.672,0.192-0.858,0.295
							C14.908,5.573,14.579,5.8,14.29,5.968c-0.29,0.168-0.931,0.605-1.781,0.652c-0.44,0.024-0.706-0.188-0.722-0.212
							s-0.142-0.069-0.264,0.013c-0.123,0.082-0.828,0.26-1.716,0.234C9.257,6.64,9.503,6.266,9.311,6.278
							C9.12,6.291,8.64,6.687,8.543,6.733C8.449,6.78,8.339,6.804,8.254,6.698C8.152,6.575,8.172,6.401,8.172,6.401
							C8.145,6.33,8.136,6.28,8.158,6.253C8.16,6.252,8.161,6.251,8.162,6.249C8.17,6.241,8.18,6.235,8.194,6.231
							c0.062-0.015,0.223-0.051,0.279-0.109C8.54,6.054,8.623,5.989,8.652,5.929C8.681,5.866,8.682,5.824,8.677,5.77
							C8.672,5.716,8.673,5.7,8.692,5.688C8.712,5.677,8.787,5.557,8.969,5.559 M8.057,4.571c0.139,0.06,0.139-0.129,0.209-0.199
							c0.109,0.029,0.199,0.1,0.277,0.17C8.623,4.66,8.733,4.8,8.663,4.938c-0.049,0.069-0.169,0.051-0.179,0.12
							c0.04,0.139-0.089,0.228-0.149,0.327c0.08,0.031,0.189,0.061,0.199,0.15c0.02,0.1,0.04,0.258-0.05,0.348
							c-0.12,0.079-0.289,0.06-0.457,0.06c-0.154,0-0.302-0.058-0.453-0.08C7.48,5.85,7.455,5.921,7.449,5.949
							C7.434,6.012,7.422,6.077,7.409,6.141l0.008,0.003c-0.009,0.031-0.02,0.064-0.029,0.096C7.366,6.331,7.337,6.421,7.291,6.5
							C7.283,6.505,7.275,6.509,7.266,6.512C7.256,6.519,7.245,6.523,7.235,6.52c-0.005,0-0.009,0-0.014-0.001
							C7.189,6.52,7.156,6.516,7.128,6.513C7.089,6.515,7.061,6.524,7.041,6.54C7,6.587,7.026,6.682,6.966,6.735
							c-0.014,0.004-0.03,0.008-0.048,0.01c-0.071,0.012-0.15-0.008-0.242-0.051C6.565,6.652,6.458,6.591,6.404,6.535
							c-0.005-0.009-0.01-0.016-0.015-0.023C6.343,6.462,6.31,6.402,6.283,6.347C6.149,6.138,6.041,5.97,5.862,5.745l-0.04-0.148
							c0.049-0.189,0.106-0.32,0.315-0.409c0.358-0.079,0.776-0.029,1.064,0.198l0.02-0.009l-0.06-0.369
							c-0.109-0.377,0.02-0.814,0.279-1.123c0.099-0.13,0.281-0.216,0.388-0.253c0.107-0.038,0.297-0.035,0.408,0.074
							c0.08,0.069,0.119,0.179,0.109,0.288c0,0.021,0,0.03-0.02,0.06c-0.09,0.109-0.239,0.05-0.359,0.1
							c-0.12,0.08-0.229,0.188-0.318,0.309C7.808,4.472,7.928,4.513,8.057,4.571 M5.322,4.66c-0.11-0.05-0.159-0.179-0.189-0.278
							C5.013,3.925,5.322,3.586,5.639,3.278l0.328-0.239C6.446,2.841,7.003,2.741,7.55,2.821C7.799,2.88,8.097,2.86,8.257,3.079
							c0.009,0.169-0.19,0.15-0.31,0.189C7.43,3.427,7.053,3.825,6.655,4.204C6.297,4.551,5.829,4.8,5.322,4.66 M5.251,5.927
							c0.055-0.047,0.13-0.088,0.275-0.093c0.045-0.001,0.119,0.009,0.179,0.058c0.055,0.043,0.104,0.031,0.26,0.335
							C5.986,6.266,6.04,6.381,6.063,6.428c0.017,0.038,0.063,0.147,0.084,0.184C6.23,6.746,6.337,6.804,6.481,6.891
							c0.056,0.033,0.116,0.061,0.18,0.08C6.714,6.987,6.77,6.997,6.828,7.002c0.048,0.004,0.098,0.003,0.149-0.003
							c0.228-0.025,0.361-0.117,0.477-0.223C7.497,6.737,7.57,6.648,7.6,6.605c0.083-0.116,0.119-0.185,0.134-0.284
							C7.744,6.254,7.812,6.239,7.849,6.24c0.056,0.003,0.042,0.036,0.054,0.051c0.013,0.017,0.075,0.302,0.092,0.355
							C8.01,6.7,8.183,7.22,8.054,7.739c-0.13,0.52-0.518,1.336-0.861,1.688c-0.194,0.196-0.448,0.314-0.299,0
							c0.048-0.098,0.093-0.202,0.118-0.277C7.08,8.95,7.096,8.834,7.118,8.746c0.034-0.122-0.071-0.087-0.112,0.03
							c-0.104,0.291-0.395,0.815-0.685,1.03c-0.183,0.132-0.275,0.172-0.429,0.204c-0.154,0.033-0.233,0.035-0.32,0.056
							c-0.085,0.021-0.321,0.077-0.366,0.065c-0.045-0.013-0.057-0.045-0.021-0.094c0.021-0.028,0.17-0.176,0.301-0.354
							c0.098-0.132,0.256-0.351,0.334-0.468C6.006,8.943,6.242,8.362,6.3,8.143C6.34,7.988,6.31,7.989,6.244,8.126
							c-0.226,0.466-0.528,0.93-0.642,1.081c-0.114,0.149-0.64,0.758-0.758,0.834c-0.118,0.078-0.236,0.103-0.39,0.05
							c-0.155-0.053-0.616-0.273-0.677-0.318C3.717,9.727,3.693,9.664,3.74,9.614c0.999-1.06,1.668-1.853,1.916-2.334
							C5.741,7.113,5.748,6.938,5.72,6.772c-0.029-0.16-0.062-0.422-0.249-0.58c-0.109-0.094-0.209-0.123-0.243-0.16
							C5.187,5.988,5.225,5.945,5.251,5.927 M4.423,10.765c-0.366-0.082-0.651-0.203-0.99-0.248s-0.943-0.1-1.088-0.112
							s-0.261-0.032-0.405-0.122c-0.145-0.09-0.243-0.163-0.309-0.195C1.567,10.054,1.345,9.925,1.4,9.735
							c0.055-0.188,0.184-0.412,0.236-0.531C1.709,9.04,1.813,8.77,1.887,8.682c0.169-0.201,0.739-0.586,0.815-0.734
							C2.777,7.8,2.719,7.615,2.907,7.246c0.187-0.37,0.589-1.097,1.684-1.097c0.286,0,0.963,0.09,0.787,0.791
							c-0.046,0.186-0.054,0.23-0.113,0.336C5.205,7.382,4.935,7.782,4.767,7.942c-0.169,0.16-0.262,0.312-0.872,0.379
							c-0.068,0.008-0.114,0-0.144,0.093C3.722,8.507,3.57,8.877,3.225,9.139C2.88,9.398,2.711,9.45,2.711,9.45
							s0.161,0.045,0.476,0.192c0.316,0.149,0.826,0.435,1.049,0.515c0.223,0.08,0.481,0.193,0.682,0.189
							c0.203-0.004,0.591-0.104,0.695-0.143c0.106-0.038,0.17-0.051,0.245-0.047s0.252,0.004,0.287,0.009
							c0.033,0.003,0.117,0.028,0.173,0.102c0.057,0.072,0.146,0.169,0.228,0.187c0.082,0.02,0.159,0.048,0.188,0.064
							c0.028,0.016,0.104,0.056,0.114,0.063c0.027,0.017,0.076,0.094-0.006,0.135s-0.137,0.029-0.173,0.021
							c-0.037-0.006-0.146-0.023-0.255-0.021s-0.146-0.005-0.227,0.051c-0.079,0.055-0.126,0.178-0.462,0.105
							c-0.336-0.07-0.475-0.161-0.589-0.163C5.021,10.708,4.79,10.847,4.423,10.765 M1.151,17.239
							c-0.411-0.055-0.917-0.415-0.917-1.156c0-0.742,0.642-1.237,0.884-1.357c0.242-0.119,0.58-0.131,1.038-0.125
							c0.458,0.006,0.91,0.165,1.176,0.219c0.268,0.053,0.494,0.039,0.707,0.035s0.536-0.114,0.604-0.118
							c0.068-0.005,0.151,0.005,0.181,0.077c0.03,0.072-0.064,0.152-0.129,0.203c0,0-0.197,0.165-0.608,0.193
							c-0.335,0.023-0.542-0.02-0.758-0.064s-0.962-0.216-1.174-0.24c-0.212-0.025-0.513-0.061-0.863,0.102
							c-0.351,0.164-0.693,0.762-0.706,1.104c-0.012,0.342,0.184,0.553,0.297,0.655c0.114,0.102,0.232,0.15,0.33,0.15
							c0.098,0,0.151-0.02,0.265,0.066c0.114,0.085,0.02,0.187-0.016,0.215C1.424,17.226,1.366,17.267,1.151,17.239 M2.372,16.464
							c-0.028,0.014-0.055,0.028-0.083,0.044c-0.196,0.097-0.409,0.182-0.547,0.216c-0.328,0.041-0.499-0.098-0.558-0.133
							c-0.138-0.086-0.125-0.366-0.09-0.537c0.074-0.359,0.638-1.063,1.043-0.994c0.405,0.066,0.473,0.099,1.042,0.244
							c0.044,0.012,0.086,0.021,0.126,0.03c0,0.001,0,0.002,0,0.002c0.148,0.048,0.908,0.265,0.438,0.647
							c-0.155,0.096-0.349,0.184-0.6,0.256C2.854,16.282,2.59,16.356,2.372,16.464 M17.033,12.317
							c-0.388,0.448-0.865,0.943-1.548,1.064c-0.561,0.1-1.21,0.119-1.863,0.172c-0.65,0.055-1.315,0.084-1.94,0.142
							c-0.672,0.062-1.363,0.042-1.923,0.202c-0.318,0.092-0.586,0.213-0.835,0.354c-0.042,0.027-0.24,0.162-0.495,0.348
							c-0.175,0.041-0.252-0.484-0.151-0.766c0.105-0.299,0.152-0.316,0.136-0.7c-0.016-0.384-0.163-0.626-0.198-0.717
							c-0.036-0.089-0.039-0.184-0.105-0.208c-0.064-0.025-0.17-0.006-0.203,0.109c-0.032,0.115-0.016,0.196,0.013,0.252
							c0.029,0.055,0.108,0.402,0.108,0.636c0,0.319-0.15,0.618-0.2,0.679c-0.048,0.059-0.045,0.106-0.045,0.162
							c0,0.055,0.024,0.609,0.019,0.729c-0.007,0.119-0.003,0.299-0.074,0.367c-0.001,0,0,0-0.001,0
							c-0.124,0.105-0.243,0.209-0.348,0.311c-0.01,0.011-0.023,0.022-0.036,0.036c-0.084,0.026-0.178-0.292-0.178-0.399
							c0-0.116-0.015-0.443-0.032-0.596c-0.018-0.151-0.021-0.228-0.027-0.311C7.1,14.1,7.065,13.966,6.999,14.065
							c-0.065,0.101-0.089,0.289-0.079,0.673c0.01,0.382,0.01,0.651,0.021,0.759c0.01,0.106,0.053,0.342-0.079,0.494l-0.017,0.021
							c-0.03,0.033-0.054,0.058-0.067,0.071c-0.075,0.083-0.141,0.164-0.206,0.249c-0.085,0.072-0.193,0.123-0.209-0.072
							c-0.027-0.326-0.038-0.674-0.07-1.005c-0.033-0.331-0.011-0.663-0.011-0.755c0-0.093-0.065-0.31-0.131-0.305
							c-0.064,0.006-0.083,0.268-0.078,0.416c0.01,0.246,0.065,1.387,0.048,1.827c-0.016,0.439-0.019,0.679-0.177,0.804
							s-0.396,0.104-0.396-0.174s0.086-0.652,0.044-1.249c-0.044-0.598-0.033-1.237-0.033-1.358c0-0.118,0.009-0.166-0.021-0.21
							c-0.029-0.042-0.106-0.127-0.136-0.017c-0.031,0.113-0.05,0.164-0.044,0.301c0.006,0.137,0.085,1.105,0.091,1.28
							c0.005,0.175-0.019,0.999-0.065,1.095c-0.047,0.096-0.076,0.143-0.172,0.109c-0.095-0.033-0.158-0.074-0.163-0.256
							c-0.005-0.183,0.011-0.648-0.002-1.006c-0.015-0.356-0.024-1.965-0.052-2.398c-0.027-0.435,0.011-0.445,0.011-0.479
							c0-0.032,0.069-0.152,0.107-0.174c0.039-0.021,0.203-0.096,0.326-0.088c0.092,0.004,0.229,0.046,0.257,0.164
							c0.041,0.171,0.158,0.478,0.082,0.695c-0.076,0.218-0.25,0.32-0.245,0.396c0.004,0.076,0.114,0.088,0.201,0.021
							c0.088-0.064,0.326-0.363,0.332-0.586c0.005-0.224-0.018-0.424-0.097-0.541c-0.126-0.188-0.247-0.225-0.247-0.289
							c0-0.146,0.061-0.432,0.179-0.479s0.214-0.064,0.312-0.03c0.098,0.035,0.479,0.206,0.479,0.687
							c0,0.311-0.156,0.682-0.218,0.854c-0.063,0.17-0.147,0.244-0.179,0.277c-0.033,0.031-0.041,0.078-0.033,0.111
							c0.008,0.031,0.03,0.057,0.038,0.063c0.008,0.004,0.036,0.002,0.063-0.012c0.027-0.014,0.376-0.273,0.449-0.635
							c0.081-0.412,0.073-0.588,0.062-0.734s-0.047-0.4-0.083-0.479c-0.015-0.029-0.069-0.123-0.192-0.21
							c0.345,0.075,0.883,0.173,1.461,0.2c0.022-0.001,0.043,0.001,0.064,0.003C8.162,12.099,8.2,12.1,8.238,12.102
							c0.751-0.01,1.695-0.285,2.417-0.344c0.825-0.068,1.642-0.107,2.457-0.22c1.195-0.165,2.383-0.286,3.566-0.5
							c0.476-0.087,1.424-0.358,1.387-0.208c-0.038,0.149-0.113,0.222-0.203,0.346C17.591,11.548,17.339,11.965,17.033,12.317
							 M17.921,11.63c-0.093-0.081-0.027-0.219,0.034-0.297c0.054-0.068,0.346-0.338,0.407-0.345
							c0.042-0.003,0.108-0.014,0.105,0.068C18.464,11.138,18.014,11.712,17.921,11.63 M19.131,10.357
							c-0.071-0.026-0.092-0.181-0.049-0.229s0.253-0.093,0.282-0.021C19.391,10.182,19.201,10.384,19.131,10.357 M21.57,9.19
							c-2.876,0.717-5.759,1.436-8.981,1.83c-0.485,0.06-1.456,0.143-1.48,0.08c-0.026-0.063,0.216-0.066,0.308-0.08
							c0.834-0.121,1.7-0.22,2.503-0.359c0.919-0.16,1.845-0.335,2.769-0.516c1.827-0.358,3.57-0.852,5.258-1.299
							c0.043-0.013,0.216-0.078,0.219,0.094C22.167,9.09,21.713,9.155,21.57,9.19 M25.701,4.497c0.25-0.203,0.676-0.596,0.771-0.563
							c0.094,0.033,0.122,0.33,0.027,0.422c-0.054,0.054-0.177,0.049-0.25,0.078c-0.384,0.157-0.655,0.959-0.872,0.842
							C25.159,5.157,25.553,4.704,25.701,4.497 M23.556,5.248c0.039-0.245,0.509-0.267,0.829-0.218
							c0.343,0.051,0.655,0.324,0.986,0.531c0.164,0.104,0.326,0.192,0.484,0.266c0.248,0.114,0.521,0.131,0.705,0.281
							c0.072,0.061,0.342,0.342,0.359,0.438c0.076,0.419-0.389,0.378-0.579,0.203c-0.112-0.103-0.1-0.266-0.234-0.313
							c-0.195,0.034-0.369-0.084-0.517,0c0.002,0.131,0.174,0.18,0.203,0.33c0.02,0.096-0.042,0.208-0.046,0.344
							c-0.003,0.084,0.045,0.158,0.031,0.219c-0.03,0.132-0.278,0.348-0.441,0.262c-0.161-0.084,0.167-0.271,0.16-0.465
							c-0.227,0.015-0.564,0.095-0.845,0.047C24.348,7.12,24.074,6.8,23.886,6.563c-0.12-0.152-0.254-0.262-0.251-0.471
							c0.067-0.181,0.341-0.019,0.485-0.063c0.064-0.285-0.215-0.279-0.359-0.375C23.654,5.585,23.529,5.425,23.556,5.248
							 M23.338,8.251c-0.028-0.109,0.169-0.313,0.234-0.358c0.314-0.221,1.409-0.333,1.499-0.155
							c0.09,0.178-0.626,0.527-1.061,0.594C23.843,8.354,23.379,8.416,23.338,8.251 M12.277,25.362
							c0.028,0.132-0.14,0.692-0.267,0.689c-0.112-0.003-0.204-0.301-0.266-0.423c-0.108-0.215-0.202-0.313-0.267-0.469
							c0.125-0.006,0.188,0.075,0.329,0.094c0.139,0.019,0.305-0.045,0.4,0.007c0.016,0.014,0.027,0.032,0.033,0.059l0.019-0.004
							C12.265,25.33,12.271,25.345,12.277,25.362 M2.191,20.97l0.001-0.001c0.017-0.036,0.042-0.075,0.072-0.117
							c0.052-0.071,0.115-0.147,0.17-0.229c0.104-0.151,0.204-0.307,0.25-0.421c0.14-0.34,0.172-0.745,0.266-1.088
							c0.001-0.002,0.002-0.005,0.002-0.007c0.014-0.048,0.029-0.096,0.045-0.141c0.024-0.064,0.074-0.158,0.137-0.234
							c0.004-0.004,0.007-0.01,0.012-0.014v-0.001c0.053-0.058,0.113-0.102,0.18-0.111c0.09-0.013,0.154,0.012,0.201,0.063
							c0.104,0.119,0.115,0.379,0.127,0.624c0.004,0.068,0.01,0.129,0.016,0.188l0.002-0.003c0.016,0.126,0.034,0.24,0.03,0.333
							c-0.015,0.336-0.24,0.721-0.375,1.078c-0.095,0.249-0.177,0.897-0.422,1.018c-0.279,0.136-0.403-0.169-0.517-0.377
							c-0.083-0.153-0.229-0.317-0.219-0.483C2.17,21.023,2.179,20.996,2.191,20.97 M3.969,18.934
							c-0.19-0.051-0.256-0.689,0.061-0.61C4.26,18.382,4.078,18.833,3.969,18.934 M3.358,21.484
							c0.167-0.585,0.391-1.173,0.625-1.689c0.078-0.168,0.121-0.486,0.376-0.453c0.169,0.212-0.046,0.638-0.141,0.923
							c-0.2,0.601-0.387,1.191-0.688,1.736c-0.034,0.06-0.13,0.316-0.281,0.219C3.152,22.156,3.301,21.683,3.358,21.484
							 M6.799,19.634c0.029-0.039,0.064-0.069,0.11-0.089c0.047,0.041,0.094,0.141,0.094,0.141s-0.379,0.726-0.468,0.72
							C6.459,20.399,6.688,19.858,6.799,19.634 M8.264,21.216c0.02,0.015,0.041,0.026,0.062,0.038
							c0.014,0.01,0.028,0.018,0.042,0.026c0.035,0.021,0.071,0.041,0.107,0.061v0.001c0.075,0.039,0.151,0.078,0.232,0.111
							c0.027,0.06,0.051,0.118,0.076,0.177c0.06,0.145,0.115,0.286,0.175,0.434c0.077,0.191,0.206,0.386,0.203,0.641
							c-0.16,0.094-0.38,0.054-0.579,0.063c-0.563,0.022-1.205,0.082-1.69,0c0.001-0.85,0.369-1.467,0.72-2.019
							c0.091,0.065,0.181,0.133,0.27,0.201C8.006,21.043,8.131,21.134,8.264,21.216 M9.134,21.61
							c0.084,0.034,0.169,0.069,0.264,0.093c0.033,0.068,0.067,0.141,0.101,0.216c0.019,0.043,0.039,0.086,0.056,0.133h0.002
							c0.069,0.17,0.123,0.352,0.123,0.543c-0.249,0.061-0.346-0.231-0.438-0.407c-0.054-0.102-0.105-0.205-0.152-0.311
							c-0.048-0.114-0.091-0.228-0.129-0.33C9.019,21.566,9.076,21.588,9.134,21.61 M10.569,22.413
							c0.001-0.002,0.002-0.005,0.003-0.009c0.004-0.011,0.008-0.023,0.012-0.035c0-0.004,0.002-0.007,0.002-0.009
							c0.005-0.013,0.011-0.026,0.016-0.041c0.001-0.003,0.001-0.007,0.003-0.01c0.005-0.014,0.011-0.028,0.015-0.042
							c0.002-0.003,0.003-0.005,0.004-0.008c0.006-0.016,0.012-0.029,0.018-0.042c0-0.002,0.001-0.003,0.002-0.005
							c0.006-0.014,0.012-0.026,0.018-0.039l0.004-0.008c0.007-0.014,0.013-0.025,0.02-0.037c0.002-0.003,0.003-0.006,0.005-0.009
							c0.006-0.011,0.014-0.022,0.021-0.034c0.001-0.002,0.002-0.004,0.004-0.005c0.006-0.01,0.015-0.02,0.021-0.028
							c0.001-0.001,0.002-0.003,0.003-0.004c0.008-0.01,0.016-0.017,0.024-0.024c0.002-0.002,0.004-0.003,0.005-0.004
							c0.009-0.007,0.017-0.014,0.026-0.019c0.001-0.001,0.003-0.003,0.005-0.003c0.01-0.005,0.019-0.009,0.029-0.011
							c0,0,0.002,0,0.003-0.001c0.009-0.002,0.019-0.002,0.028-0.002h0.005c0.01,0.001,0.021,0.004,0.031,0.008
							c0.002,0.001,0.005,0.001,0.006,0.002c0.011,0.004,0.021,0.01,0.033,0.019c0.002,0.001,0.004,0.003,0.005,0.004
							c0.012,0.008,0.024,0.018,0.037,0.029c-0.05,0.227-0.146,0.408-0.266,0.564c-0.093,0.008-0.141-0.027-0.188-0.063
							c0.009-0.026,0.02-0.06,0.032-0.098C10.56,22.438,10.564,22.426,10.569,22.413 M11.177,22.055
							c0.007-0.013,0.014-0.023,0.021-0.034c0.032-0.021,0.066-0.038,0.101-0.057c0.013,0.002,0.026,0.004,0.041,0.011
							c0.006,0.003,0.012,0.008,0.019,0.016c0.11,0.4,0.372,0.904,0.249,1.341c-0.001,0-0.001,0.001-0.001,0.001
							c-0.009,0.004-0.019,0.004-0.029,0.003c-0.049-0.024-0.091-0.067-0.126-0.121c-0.056-0.093-0.107-0.219-0.145-0.307
							c-0.088-0.207-0.14-0.536-0.143-0.721C11.165,22.142,11.17,22.099,11.177,22.055 M11.839,24.932
							c-0.111,0.121-0.41-0.092-0.423-0.24c-0.011-0.12,0.077-0.258,0.234-0.22C11.769,24.501,11.951,24.809,11.839,24.932
							 M11.282,23.412c0.057,0.154,0.111,0.312,0.087,0.497c-0.027,0.212-0.195,0.406-0.204,0.609
							c-0.058-0.123-0.169-0.233-0.172-0.359c-0.002-0.074,0.071-0.206,0.109-0.329c0.061-0.191,0.104-0.354,0.11-0.61
							C11.232,23.286,11.257,23.348,11.282,23.412 M10.883,23.423c-0.167,0.038-0.387,0.005-0.547-0.015
							c-0.09-0.145-0.123-0.347-0.125-0.579c0.127-0.115,0.418-0.038,0.61-0.031C10.934,22.907,10.951,23.279,10.883,23.423
							 M10.514,21.985c-0.001,0.005-0.003,0.011-0.005,0.017c-0.008,0.029-0.018,0.059-0.029,0.087
							c-0.002,0.006-0.004,0.012-0.006,0.018c-0.012,0.028-0.024,0.056-0.037,0.083c-0.002,0.002-0.003,0.005-0.005,0.008
							c-0.012,0.025-0.027,0.048-0.042,0.07c-0.1,0.146-0.25,0.227-0.492,0.155c-0.151-0.045-0.199-0.228-0.251-0.404
							c-0.003-0.012-0.006-0.021-0.009-0.032c-0.008-0.026-0.016-0.05-0.024-0.075c-0.002-0.004-0.003-0.01-0.005-0.015
							c-0.008-0.025-0.018-0.048-0.028-0.07c-0.002-0.004-0.004-0.008-0.006-0.012c-0.01-0.022-0.023-0.045-0.037-0.064
							c0.326,0.056,0.675,0.086,1.001,0.141C10.532,21.923,10.523,21.954,10.514,21.985 M10.038,23.22
							c-0.19,0.129-0.363-0.054-0.579-0.078c-0.4-0.043-0.875,0.011-1.33,0.017c-0.442,0.005-0.88,0.01-1.282-0.017v-0.14
							c0.567-0.084,1.258,0.003,1.893-0.032c0.378-0.02,0.772-0.113,1.063-0.094C9.993,22.89,10.081,23.028,10.038,23.22
							 M6.831,20.654c0.092-0.248,0.161-0.476,0.297-0.688c0.127,0.187,0.229,0.396,0.36,0.578c-0.111,0.183-0.29,0.57-0.438,0.782
							c-0.095,0.138-0.265,0.198-0.392,0.047C6.612,21.113,6.75,20.876,6.831,20.654 M6.847,23.455
							c-0.001-0.027,0.011-0.04,0.031-0.047c0.849,0.032,1.781-0.021,2.566,0.109c0.049,0.066,0.048,0.159,0.078,0.25
							c0.03,0.093,0.109,0.186,0.109,0.251c0.001,0.105-0.164,0.32-0.234,0.453c-0.474,0.904-0.926,1.723-1.44,2.628
							c-0.063,0.112-0.228,0.382-0.282,0.391c-0.149,0.024-0.261-0.346-0.312-0.469c-0.094-0.227-0.145-0.401-0.204-0.563
							c-0.139-0.38-0.302-0.758-0.344-1.204C6.766,24.727,6.751,23.97,6.847,23.455 M7.973,27.428
							c0.434-0.808,0.895-1.624,1.33-2.409c0.062-0.11,0.146-0.397,0.25-0.438c0.111-0.042,0.158,0.019,0.172,0.063
							c0.021,0.069-0.125,0.313-0.188,0.438c-0.416,0.841-0.856,1.603-1.33,2.424c-0.053,0.093-0.144,0.373-0.297,0.329
							C7.721,27.779,7.952,27.466,7.973,27.428 M8.364,27.584c0.348-0.802,0.861-1.472,1.237-2.235
							c0.16-0.33,0.278-0.86,0.547-1.018c0.19-0.076,0.263,0.133,0.344,0.298c0.303,0.623,0.478,1.063,0.797,1.705
							c0.101,0.201,0.309,0.465,0.298,0.702c-0.015,0.277-0.229,0.621-0.423,0.908c-0.289,0.425-0.662,0.849-1.267,0.923
							c-0.473,0.058-0.998-0.011-1.361-0.22c-0.167-0.095-0.385-0.355-0.375-0.563C8.167,27.948,8.306,27.719,8.364,27.584
							 M10.868,24.988c-0.05-0.128-0.3-0.646-0.017-0.611c0.108,0.015,0.242,0.394,0.298,0.501c0.185,0.354,0.342,0.681,0.516,1.049
							c0.121,0.254,0.324,0.504,0.203,0.798c-0.152,0.026-0.203-0.15-0.266-0.251C11.315,26.007,11.085,25.553,10.868,24.988
							 M6.612,19.201c-0.046,0.124-0.288,0.203-0.422,0.077C6.115,18.833,6.75,18.825,6.612,19.201 M2.466,18.716
							c0.094-0.234,0.406-0.684,0.625-0.798c0.144-0.075,0.362-0.13,0.579-0.109c0.8,0.078,1.3,0.74,2.096,0.798
							c0.195,0.014,0.358-0.061,0.595-0.031c-0.041,0.147-0.253,0.186-0.407,0.203c-0.375,0.043-0.752-0.048-1.048-0.203
							c-0.453-0.236-0.63-0.568-1.331-0.469c-0.194,0.027-0.551,0.288-0.672,0.453c-0.063,0.085-0.123,0.211-0.188,0.375
							c-0.037,0.094-0.099,0.36-0.219,0.344C2.347,19.258,2.407,18.861,2.466,18.716 M1.73,20.139
							c0.095-0.313,0.051-0.793,0.078-1.11c-0.001-0.039,0.025-0.049,0.048-0.062c0.198,0.046,0.221,0.607,0.187,0.905
							c-0.037,0.327-0.212,0.569-0.313,0.705C1.486,20.512,1.674,20.325,1.73,20.139 M1.996,21.75
							c-0.099-0.17-0.167-0.282-0.234-0.438c0.091-0.056,0.159-0.135,0.281-0.156c0.053,0.124,0.143,0.254,0.235,0.406
							c0.08,0.129,0.234,0.296,0.235,0.406c0.001,0.129-0.141,0.208-0.235,0.188C2.172,22.134,2.056,21.854,1.996,21.75
							 M2.622,23.11c-0.265,0.076-0.513-0.056-0.766,0c-0.138,0.03-0.189,0.162-0.329,0.157c-0.395-0.017-0.372-0.644,0-0.673
							c0.14-0.012,0.221,0.117,0.344,0.141c0.237,0.045,0.832-0.144,0.845,0.188C2.72,23.014,2.682,23.028,2.622,23.11 M3.295,23.58
							c-0.122,0.046-0.236,0.034-0.391,0c-0.217-0.186-0.013-0.526-0.063-0.828c-0.027-0.165-0.266-0.244-0.235-0.423
							c0.054-0.309,0.512,0.067,0.626,0.172c0.115,0.104,0.224,0.291,0.36,0.344c0.114,0.045,0.262,0.012,0.376,0.016
							c0.242,0.011,0.492,0.016,0.734,0.016c0.238,0,0.494-0.041,0.688,0.063c0.039,0.056,0.027,0.112,0.016,0.188
							c-0.325,0.078-0.671,0.033-1.095,0.015c-0.191-0.007-0.474-0.034-0.611,0.017C3.545,23.215,3.495,23.504,3.295,23.58
							 M4.86,27.006c-0.163-0.004-0.31-0.414-0.375-0.532c-0.222-0.399-0.414-0.773-0.625-1.188c-0.089-0.171-0.3-0.485-0.251-0.642
							c0.167-0.089,0.372,0.351,0.47,0.517c0.225,0.385,0.445,0.821,0.688,1.203C4.852,26.499,5.248,27.016,4.86,27.006
							 M5.564,24.331c-0.033,0.577-0.093,0.866-0.188,1.455c-0.04,0.247-0.07,0.561-0.235,0.577c-0.17,0.019-0.376-0.37-0.485-0.547
							c-0.285-0.462-0.512-0.819-0.767-1.298c-0.085-0.161-0.291-0.533-0.235-0.781c0.078-0.342,0.6-0.297,0.986-0.314
							c0.287-0.011,0.811-0.063,0.923,0.142C5.623,23.674,5.574,24.131,5.564,24.331 M5.345,20.953
							c0.047,0.282,0.13,0.494,0.172,0.797c0.033,0.237,0.108,0.701-0.015,0.861c-0.052,0.065-0.245,0.111-0.36,0.124
							c-0.424,0.048-0.917-0.047-1.282-0.063c-0.302-0.3-0.101-0.77,0.046-1.157c0.18-0.474,0.345-0.85,0.532-1.345
							c0.103-0.274,0.183-0.679,0.375-0.643c0.174,0.035,0.277,0.44,0.345,0.643C5.25,20.446,5.302,20.692,5.345,20.953
							 M12.996,26.285c-0.128,0.763-0.451,1.501-0.814,2.003c-0.362,0.501-0.931,0.974-1.486,1.33
							c-0.093,0.058-0.204,0.106-0.313,0.156c-0.089,0.041-0.298,0.146-0.33,0.032c-0.033-0.115,0.274-0.223,0.409-0.314
							c0.284-0.19,0.55-0.397,0.813-0.625c0.114-0.099,0.336-0.313,0.282-0.392c-0.054-0.077-0.253,0.121-0.344,0.203
							c-0.384,0.35-0.718,0.675-1.424,0.751c-0.367,0.041-0.574,0.009-0.892-0.095c-0.052-0.015-0.41-0.161-0.461-0.058
							c-0.052,0.104,0.364,0.2,0.374,0.386c0.009,0.186-0.397-0.056-0.523-0.124c-0.896-0.489-1.385-1.354-1.799-2.346
							c-0.062-0.148-0.172-0.446-0.088-0.506c0.084-0.06,0.135,0.171,0.183,0.255c0.247,0.442,0.546,0.926,0.829,1.36
							c0.11,0.168,0.35,0.5,0.423,0.438c0.074-0.061-0.306-0.532-0.469-0.813c-0.157-0.272-0.492-0.762-0.423-0.86
							c0.069-0.097,0.221,0.252,0.297,0.391c0.323,0.596,0.764,1.159,1.393,1.487c0.275,0.143,0.549,0.273,0.923,0.281
							c0.548,0.011,0.923-0.232,1.252-0.485c0.805-0.618,1.25-1.608,1.627-2.689c0.082-0.233,0.159-0.68,0.375-0.703
							C13.17,25.307,13.053,25.947,12.996,26.285 M14.857,27.162c0.018-0.142,0.232-0.291,0.314-0.392
							c0.296-0.361,0.545-0.985,0.797-1.298c0.035-0.043,0.114-0.115,0.156-0.124c0.11-0.027,0.215,0.07,0.235,0.171
							c0.035,0.176-0.108,0.324-0.156,0.485c-0.048,0.158-0.037,0.274-0.125,0.391c-0.186,0.245-0.604,0.413-0.642,0.735
							c-0.019,0.167,0.096,0.29,0.063,0.438c-0.012,0.058-0.079,0.216-0.25,0.218C15.068,27.789,14.829,27.392,14.857,27.162
							 M14.876,29.626c-0.094-0.146,0.263-0.633,0.569-0.607c0.114,0.011,0.356,0.201,0.371,0.314
							C15.864,29.669,14.97,29.772,14.876,29.626 M16.42,29.118c-0.242,0.063-0.674-0.263-0.687-0.492
							c-0.009-0.15,0.271-0.478,0.422-0.475C16.408,28.153,16.652,28.918,16.42,29.118 M16.407,27.882
							c-0.278-0.073-0.587-0.392-0.5-0.688c0.028-0.096,0.281-0.344,0.375-0.454c0.011-0.013,0.021-0.044,0.046-0.047
							c0.142,0.058,0.295,0.102,0.423,0.172C16.787,27.353,16.52,27.541,16.407,27.882 M18.122,29.206
							c0.089,0.226-0.203,0.311-0.457,0.251c-0.169-0.042-0.334-0.134-0.324-0.273c0-0.009,0.001-0.019,0.003-0.027
							c0-0.003,0.003-0.006,0.004-0.009c0-0.004,0.001-0.009,0.002-0.014C17.409,28.968,18.033,28.979,18.122,29.206 M17.361,28.179
							c-0.101,0.13-0.203,0.296-0.423,0.188c-0.206-0.499,0.06-0.964,0.125-1.424c0.214,0.031,0.443,0.048,0.657,0.079
							C17.757,27.46,17.576,27.899,17.361,28.179 M25.147,23.744c0.022-0.164,0.353-0.272,0.59-0.203
							c0.107,0.021,0.203,0.071,0.257,0.159c0.204,0.322-0.756,0.426-0.85,0.144C25.133,23.809,25.135,23.776,25.147,23.744
							 M33.616,22.752c0.339-0.017,0.659-0.047,1.002-0.048c0.083,0,0.669-0.089,0.641,0.141c-0.019,0.16-0.742,0.245-0.938,0.266
							c-0.182,0.021-0.397-0.006-0.579,0c-0.281,0.009-0.586,0.051-0.814,0c-0.08-0.017-0.196-0.098-0.188-0.187
							C32.761,22.729,33.391,22.762,33.616,22.752 M44.135,17.509c0.105-0.169,0.751,0.158,0.621,0.429
							C44.627,18.209,44.031,17.678,44.135,17.509 M39.344,12.49c0.071,0.04,0.14,0.104,0.219,0.141
							c0.133,0.063,0.345,0.076,0.375,0.22c0.04,0.183-0.191,0.424-0.296,0.516c-0.069,0.061-0.285,0.14-0.25,0.25
							c0.048,0.154,0.435-0.018,0.517-0.031c0.183-0.031,0.398,0.066,0.5,0.141c0.139,0.104,0.297,0.297,0.267,0.596
							c-0.028,0.27-0.154,0.633-0.25,0.781c-0.072,0.111-0.293,0.355-0.423,0.376c-0.184,0.029-0.442-0.163-0.61-0.251
							c-0.412-0.214-0.699-0.348-1.158-0.547c-0.242-0.106-0.575-0.265-0.907-0.188c-0.185,0.042-0.385,0.166-0.579,0.25
							c-0.15,0.064-0.382,0.237-0.61,0.219c-0.231-0.019-0.423-0.347-0.516-0.609c-0.093-0.266-0.092-0.615-0.157-0.86
							c-0.05-0.194-0.193-0.392-0.203-0.595c-0.007-0.181,0.098-0.337,0.142-0.516c0.05-0.207,0.049-0.467,0.093-0.705
							c0.046-0.249,0.067-0.502,0.063-0.756l0,0c0.005-0.105,0.018-0.233,0.016-0.354c0.162-0.105,0.357-0.099,0.531-0.126
							c0.553-0.087,1.114-0.136,1.627-0.328c0.322-0.12,0.627-0.25,0.923-0.392c0.304-0.145,0.592-0.301,0.892-0.406
							c0.195-0.068,0.322,0.063,0.415,0.248c0.018,0.042,0.037,0.085,0.055,0.127c0.254,0.633,0.495,1.24,0.36,2.128
							c-0.034,0.224-0.112,0.474-0.266,0.548c-0.331,0.159-0.888-0.157-0.952-0.063C39.095,12.397,39.267,12.448,39.344,12.49
							 M35.838,10.113c0.408-0.081,0.869-0.13,1.315-0.203c0.598-0.099,1.563-0.487,1.626-0.438
							c0.064,0.049-0.169,0.153-0.265,0.203c-0.518,0.269-1.133,0.473-1.863,0.563c-0.399,0.051-1.128,0.161-1.158,0.049
							C35.466,10.173,35.72,10.138,35.838,10.113 M41.659,7.892c-0.313,0.228-0.666,0.394-1.063,0.594
							c-0.146,0.073-0.404,0.271-0.595,0.219c-0.027-0.007-0.051-0.022-0.071-0.042c-0.024-0.043-0.046-0.087-0.07-0.131
							c-0.089-0.17-0.238-0.473-0.219-0.625c0.023-0.182,0.341-0.321,0.548-0.453c0.23-0.148,0.442-0.293,0.656-0.344
							c0.381-0.094,0.75-0.008,1.019,0.106c0.098,0.053,0.165,0.126,0.171,0.222C42.048,7.648,41.779,7.805,41.659,7.892
							 M40.361,4.858c0.358,0.088,0.843,0.273,1.189,0.438c0.364,0.174,0.662,0.404,1.016,0.625
							c0.198,0.123,0.455,0.227,0.392,0.516c-0.035,0.152-0.19,0.228-0.329,0.313c-0.056,0.036-0.111,0.095-0.156,0.109
							c-0.343,0.116-0.714-0.139-0.971-0.204c-0.159-0.109-0.231-0.381-0.39-0.516c-0.06-0.049-0.249-0.095-0.235-0.203
							c0.012-0.096,0.148-0.102,0.25-0.094c0.194,0.016,0.532,0.21,0.576,0.141c0.044-0.069-0.304-0.257-0.498-0.344
							c-0.299-0.135-0.603-0.246-0.86-0.406C40.305,5.123,40.232,4.923,40.361,4.858 M36.793,5.421
							c0.091-0.125,0.158-0.211,0.298-0.25c0.196,0.182,0.42,0.019,0.579-0.094c0.295,0.039,0.54-0.055,0.751,0.047
							c0.086,0.041,0.126,0.207,0.204,0.219c0.084,0.014,0.154-0.105,0.163-0.14c0.01-0.034-0.129-0.267-0.181-0.267
							c-0.054,0-0.284-0.162-0.217-0.391c0.098-0.107,0.293-0.036,0.422,0C38.919,4.511,38.912,4.364,39,4.31
							c0.215,0.089,0.395-0.035,0.625-0.048c0.302-0.016,0.622,0.131,0.61,0.36c-0.005,0.116-0.108,0.194-0.187,0.219
							c-0.2,0.063-0.505-0.019-0.568,0.112c-0.063,0.131,0.481,0.293,0.661,0.576c0.131,0.207,0.267,0.693,0.188,0.97
							c-0.098,0.346-0.483,0.583-0.829,0.72c-0.086,0.033-0.174,0.09-0.25,0.094c-0.379,0.016-0.415-0.361-0.563-0.609
							c-0.412,0.08-0.135,0.4,0.031,0.656c0.271,0.419,0.543,0.842,0.79,1.282c-0.002,0-0.004-0.002-0.006-0.003
							c0.044,0.08,0.072,0.158,0.061,0.223c-0.034,0.197-0.661,0.345-0.86,0.406c-0.947,0.295-1.978,0.6-3.113,0.688
							c-0.089-0.039-0.145-0.111-0.181-0.203c-0.016-0.086-0.033-0.172-0.053-0.252h0.001C35.35,9.423,35.35,9.34,35.354,9.253
							c0.105-0.235,0.326-0.228,0.642-0.313c0.196-0.053,0.319-0.178,0.516-0.156c0.03,0.002,0.061,0.012,0.093,0.024
							c0.031,0.024,0.062,0.047,0.095,0.069c0.064,0.044,0.152,0.096,0.244,0.146c0,0,0,0.001,0.001,0.001
							c0.221,0.117,0.474,0.225,0.539,0.184c0.092-0.057-0.044-0.246-0.003-0.361c0.183-0.146,0.409,0.073,0.58,0.031
							c0.17-0.043,0.158-0.29,0.188-0.501c0.057-0.134,0.165-0.178,0.187-0.298c0.048-0.244-0.175-0.54-0.328-0.719
							c-0.317-0.373-0.685-0.681-1.064-1.032c-0.155-0.143-0.471-0.398-0.469-0.563C36.575,5.644,36.724,5.517,36.793,5.421
							 M36.024,5.901c0.113-0.189,0.498,0.166,0.706,0.35c0.351,0.305,0.684,0.598,0.986,0.953c0.152,0.178,0.416,0.33,0.36,0.578
							c-0.165-0.005-0.46-0.002-0.625-0.016c-0.136,0.043-0.104,0.251-0.188,0.344c-0.232,0.028-0.355-0.217-0.517-0.358
							c-0.17-0.15-0.368-0.268-0.5-0.407c-0.065-0.068-0.167-0.205-0.156-0.313c0.014-0.151,0.24-0.21,0.266-0.359
							C36.412,6.33,35.912,6.091,36.024,5.901 M36.164,8.268c0.036,0.015,0.068,0.029,0.098,0.046
							c0.082,0.358-0.232,0.431-0.532,0.517c-0.193,0.055-0.433,0.206-0.594,0.109c-0.013-0.008-0.024-0.02-0.036-0.032
							c-0.019-0.04-0.039-0.081-0.058-0.124c-0.063-0.146-0.237-0.447-0.203-0.564c0.031-0.107,0.261-0.123,0.422-0.124
							C35.525,8.093,35.902,8.172,36.164,8.268 M32.897,5.202c0.233-0.001,0.379-0.264,0.626-0.266
							c0.153-0.002,0.319,0.107,0.407,0.172c0.125,0.093,0.164,0.258,0.297,0.313c0.114,0.047,0.255,0.024,0.375,0.063
							c0.13,0.041,0.285,0.152,0.407,0.25c0.146,0.119,0.342,0.241,0.36,0.438c0.03,0.342-0.259,0.619-0.423,0.814
							c-0.152,0.182-0.246,0.377-0.516,0.422c-0.493,0.084-0.958-0.325-1.126-0.641c-0.049-0.095-0.097-0.23-0.094-0.33
							c0.006-0.176,0.181-0.367,0.086-0.43c-0.094-0.062-0.194,0.086-0.249,0.184c-0.092,0.201-0.032,0.609,0.016,0.729
							c0.049,0.119,0.293,0.477,0.506,0.676c0.202,0.189,0.456,0.338,0.625,0.532c0.146,0.167,0.267,0.382,0.365,0.624
							c0.037,0.126,0.045,0.248-0.004,0.346c-0.107,0.211-0.719,0.354-1.001,0.422c-0.76,0.186-1.548,0.359-2.347,0.484
							c-0.407,0.064-1.104,0.182-1.221,0.156c-0.069-0.014-0.076-0.048-0.07-0.086c0.057-0.178,0.11-0.38,0.211-0.398
							c0.217-0.037,0.408,0.445,0.658,0.109c-0.019-0.143-0.139-0.184-0.079-0.328c0.112-0.269,0.466,0.043,0.595,0.047
							c0.195,0.007,0.421-0.232,0.453-0.328c0.027-0.077,0.022-0.176,0.047-0.267c0.051-0.183,0.135-0.327,0.141-0.468
							c0.015-0.334-0.097-0.737-0.188-1.018c-0.102-0.313-0.393-0.53-0.328-0.954c0.036-0.233,0.258-0.493,0.406-0.704
							c0.07-0.097,0.158-0.201,0.235-0.313c0.083-0.117,0.145-0.269,0.22-0.328C32.437,5.001,32.874,4.862,32.897,5.202
							 M29.297,9.803c-0.003-0.021-0.002-0.043,0.001-0.064c0.033-0.192,0.316-0.226,0.438-0.22
							c0.044,0.002,0.075,0.027,0.093,0.064c0.011,0.025,0.017,0.051,0.016,0.076c-0.004,0.117-0.213,0.41-0.31,0.445
							C29.493,10.122,29.402,9.988,29.297,9.803 M30.347,10.237c0.55-0.104,1.102-0.151,1.658-0.264
							c0.729-0.15,2.088-0.547,2.127-0.471c0.041,0.077-0.268,0.17-0.422,0.219c-1.067,0.341-2.248,0.674-3.614,0.735
							c-0.075,0.003-0.22-0.003-0.234-0.063C29.848,10.335,30.185,10.269,30.347,10.237 M31.317,5.405
							c0.277-0.492,0.525-0.892,0.986-1.189c0.118-0.076,0.298,0.11,0.298,0.219c-0.001,0.133-0.264,0.357-0.36,0.471
							c-0.386,0.447-0.745,0.888-0.986,1.454C30.739,6.231,31.13,5.737,31.317,5.405 M29.862,6.766
							c0.179,0.008,0.38,0.223,0.442,0.143c0.063-0.08-0.2-0.379-0.27-0.598c-0.026-0.082-0.104-0.174-0.02-0.34
							c0.085-0.168,0.472-0.006,0.629,0.137c0.391,0.357,0.824,1.027,1.064,1.611c0.045,0.112,0.093,0.352,0.093,0.359
							c0.008,0.123-0.013,0.314-0.125,0.313c-0.122,0-0.131-0.261-0.22-0.266c-0.248,0.132-0.057,0.619-0.313,0.704
							c-0.151,0.05-0.257-0.131-0.281-0.219c-0.051-0.182,0.02-0.449-0.031-0.596c-0.048-0.138-0.225-0.195-0.375-0.328
							c-0.118-0.104-0.217-0.229-0.329-0.344c-0.127-0.131-0.272-0.26-0.313-0.344C29.773,6.915,29.764,6.827,29.862,6.766
							 M28.674,8.236c0.209,0.093,0.611,0.13,0.875,0.173c0.148,0.137,0.339,0.26,0.344,0.499c0.001,0.06-0.022,0.12-0.051,0.183
							c-0.016,0.028-0.035,0.057-0.059,0.084c-0.204,0.052-0.6,0.104-0.688,0.078c-0.063-0.019-0.117-0.088-0.165-0.16
							c-0.003-0.004-0.005-0.008-0.007-0.012c-0.135-0.265-0.374-0.657-0.373-0.752C28.552,8.233,28.622,8.214,28.674,8.236
							 M24.73,9.722c1.042-0.047,2.229-0.099,3.208-0.203c0.182-0.02,0.392-0.079,0.548-0.078c0.064,0,0.202-0.024,0.203,0.109
							c0.002,0.118-0.257,0.132-0.328,0.141c-0.902,0.115-2.055,0.105-2.989,0.188c-0.315,0.028-0.996,0.092-1.022-0.041
							C24.323,9.704,24.612,9.727,24.73,9.722 M29.878,14.618c-0.155,0.043-0.33,0.029-0.484,0
							c-0.858-0.168-1.741-0.543-2.582-0.672c-0.195-0.031-0.446-0.064-0.642-0.018c-0.223,0.055-0.38,0.226-0.657,0.251
							c-0.249-0.272-0.086-0.644-0.172-0.97c-0.048-0.188-0.207-0.34-0.266-0.517c-0.048-0.146-0.072-0.346-0.109-0.53
							c-0.108-0.547-0.109-1.181-0.296-1.658c-0.004-0.01-0.008-0.02-0.012-0.029c-0.012-0.059-0.016-0.113-0.004-0.158
							c0.054-0.211,0.548-0.229,0.829-0.251c1.006-0.081,2.063-0.182,2.973-0.235c0.191-0.011,0.348,0.023,0.455,0.11
							c0.055,0.045,0.105,0.116,0.149,0.206c0.014,0.035,0.025,0.07,0.038,0.106c0.118,0.351,0.238,0.763,0.235,1.282
							c-0.003,0.479-0.028,1.019-0.313,1.221c-0.144,0.102-0.34,0.107-0.564,0.094c-0.097-0.007-0.241-0.069-0.296,0.031
							c-0.01,0.131,0.154,0.127,0.233,0.156c0.101,0.036,0.212,0.087,0.313,0.125c0.21,0.079,0.469,0.127,0.657,0.219
							c0.21,0.104,0.429,0.404,0.501,0.627C29.922,14.192,29.985,14.433,29.878,14.618 M30.238,13.882
							c-0.053-0.159-0.166-0.317-0.25-0.438c-0.07-0.1-0.253-0.28-0.281-0.406c-0.061-0.273,0.126-0.532,0.141-0.829
							c0.02-0.431-0.104-0.974-0.109-1.376c0-0.028,0.002-0.059,0.005-0.09c0.003-0.006,0.007-0.014,0.011-0.02
							c0.082-0.148,0.749-0.158,1.126-0.219c0.375-0.061,0.753-0.125,1.126-0.204c0.747-0.157,1.465-0.392,2.159-0.517
							c0.109-0.02,0.356-0.027,0.469,0.017c0.092,0.035,0.211,0.126,0.269,0.235c0.022,0.12,0.042,0.24,0.06,0.358
							c0.066,0.43,0.118,0.921,0.016,1.376c-0.043,0.196-0.089,0.398-0.125,0.627c-0.058,0.363-0.066,0.731-0.375,0.828
							c-0.385,0.119-0.873-0.089-1.189-0.188c0.073,0.504,0.818,0.398,1.251,0.563c0.162,0.063,0.272,0.268,0.345,0.408
							c0.079,0.152,0.173,0.388,0.062,0.578c-0.302,0.041-0.458-0.23-0.657-0.344c-0.2-0.116-0.571-0.327-0.86-0.346
							c-0.239-0.014-0.483,0.078-0.751,0.095c-0.119,0.007-0.261-0.022-0.391,0c-0.278,0.048-0.605,0.356-0.845,0.563
							c-0.142,0.121-0.552,0.607-0.767,0.625c-0.089,0.008-0.172-0.055-0.25-0.094C30.331,14.712,30.365,14.268,30.238,13.882
							 M30.613,16.198c-0.019-0.226-0.161-0.422-0.125-0.627c0.023-0.131,0.317-0.318,0.422-0.391
							c0.176-0.123,0.34-0.239,0.469-0.344c0.259-0.21,0.612-0.559,0.97-0.642c0.25-0.058,0.667-0.021,0.892-0.046
							c0.444-0.054,0.767,0.191,1.049,0.359c0.155,0.092,0.305,0.201,0.454,0.297c0.335,0.213,0.703,0.33,0.986,0.516
							c0.084,0.056,0.227,0.199,0.251,0.234c0.078,0.123,0.057,0.281,0.078,0.471c0.016,0.135,0.112,0.366,0.204,0.516
							c0.115,0.188,0.521,0.506,0.282,0.688c-0.125,0.096-0.639-0.023-0.783-0.094c-0.151-0.073-0.303-0.28-0.25-0.406
							c0.055-0.131,0.33-0.061,0.391-0.172c0.064-0.117-0.147-0.428-0.235-0.485c-0.142-0.093-0.438-0.087-0.563-0.141
							c-0.227-0.097-0.364-0.487-0.595-0.626c-0.09-0.055-0.265-0.075-0.36-0.125c-0.241-0.125-0.386-0.369-0.657-0.329
							c-0.191,0.03-0.327,0.295-0.47,0.36c-0.165,0.075-0.407,0.104-0.611,0.094c-0.348-0.014-0.596-0.046-0.797,0.173
							c-0.053,0.058-0.079,0.149-0.125,0.218c-0.095,0.145-0.325,0.49-0.47,0.549C30.88,16.302,30.774,16.282,30.613,16.198
							 M34.791,16.322c0.148-0.103,0.255,0.112,0.375,0.203c-0.227,0.134-0.306,0.415-0.344,0.735
							c-0.132-0.035-0.287-0.047-0.406-0.094C34.359,16.911,34.631,16.432,34.791,16.322 M34.009,16.839
							c-0.352,0.157-0.662-0.127-1.064-0.156c-0.212-0.016-0.437,0.032-0.657,0.016c-0.351-0.026-0.71-0.15-0.893-0.313
							c0.035-0.13,0.176-0.285,0.33-0.407c0.12-0.094,0.299-0.249,0.438-0.281c0.108-0.023,0.24,0.008,0.344,0
							c0.347-0.021,0.768-0.145,1.017-0.281c0.193-0.105,0.306,0.152,0.422,0.267c0.186,0.184,0.411,0.272,0.563,0.375
							C34.333,16.296,34.293,16.711,34.009,16.839 M29.893,17.966c0.216,0.07,0.444,0.143,0.61,0.187
							c0.079,0.021,0.15-0.03,0.204,0.078c-0.141,0.171-0.507,0.401-0.782,0.329c-0.146-0.039-0.26-0.163-0.391-0.266
							c-0.172-0.137-0.354-0.197-0.392-0.423C29.294,17.697,29.629,17.878,29.893,17.966 M25.231,16.432
							c0.299-0.371,0.563-0.771,1.158-0.845c0.146-0.019,0.296,0.007,0.454-0.017c0.19-0.027,0.374-0.157,0.547-0.172
							c0.274-0.021,0.868,0.19,1.049,0.359c0.066,0.063,0.115,0.191,0.187,0.281c0.143,0.181,0.45,0.291,0.455,0.485
							c0.001,0.124-0.104,0.159-0.188,0.267c-0.082,0.104-0.104,0.196-0.219,0.219c-0.136,0.026-0.322-0.041-0.485-0.078
							c-0.323-0.072-0.58-0.143-0.923-0.203c-0.168-0.029-0.35-0.082-0.501-0.063c-0.265,0.033-0.44,0.294-0.688,0.359
							c-0.328,0.087-0.592,0.059-0.971,0.047C24.882,16.824,25.104,16.589,25.231,16.432 M18.111,22.989
							c-0.034,0.061-0.398,0.087-0.422,0.043c-0.023-0.043,0.109-0.177,0.22-0.184C18.001,22.844,18.145,22.93,18.111,22.989
							 M16.015,21.015c0.119-0.316,0.313-0.74,0.564-0.844c0.36-0.15,0.937-0.157,1.214-0.063c0.277,0.098,0.146,0.748,0.069,1.173
							c-0.14,0.769-0.699,1.347-1.11,1.768C15.6,23.177,15.705,21.841,16.015,21.015 M14.309,23.313
							c-0.046,0.204-0.445,0.309-0.672,0.22c-0.184-0.071-0.41-0.29-0.36-0.517c0.024-0.104,0.087-0.215,0.141-0.313
							c0.09-0.16,0.115-0.356,0.313-0.375c0.138-0.014,0.241,0.166,0.344,0.344C14.171,22.838,14.365,23.075,14.309,23.313
							 M17.304,24.596c-0.167-0.002-0.232-0.313-0.186-0.404c0.047-0.093,0.398-0.161,0.455,0.011
							C17.624,24.352,17.434,24.598,17.304,24.596 M18.327,24.935c-0.108,0.203-0.141,0.42-0.292,0.438
							c-0.251,0.031-0.482-0.306-0.384-0.604c0.094-0.284,0.454-0.614,0.731-0.639c0.114-0.01,0.233,0.028,0.256,0.184
							C18.681,24.605,18.433,24.738,18.327,24.935 M20.224,24.222c-0.441,0.077-0.649-0.367-0.923-0.47
							c-0.474,0.001-0.897,0.001-1.313,0.016c-0.435,0.015-0.891,0.078-1.299-0.03c-0.201-0.055-0.371-0.216-0.673-0.235
							c-0.4-0.026-1.033,0.104-1.282-0.062c-0.306-0.206-0.202-0.651-0.172-1.032c0.081-1.064-0.193-1.884-0.705-2.394
							c-0.04-0.04-0.244-0.205-0.235-0.329c0.026-0.369,0.461-0.077,0.61,0c0.364,0.188,1.036,0.219,1.289,0.444
							c0.254,0.226-0.042,1.268-0.068,1.871c-0.006,0.119,0.022,0.307,0.032,0.5c0.007,0.161-0.024,0.354,0.031,0.485
							c0.081,0.194,0.534,0.262,0.845,0.281c0.771,0.049,1.358,0,2.097-0.063c0.18-0.016,0.368-0.009,0.531-0.031
							c0.311-0.044,0.57-0.104,0.845,0c0.138,0.051,0.28,0.196,0.407,0.313c0.095,0.087,0.287,0.252,0.281,0.423
							C20.517,24.06,20.357,24.198,20.224,24.222 M21.938,24.997c-0.025,0.009-0.05,0.016-0.075,0.02
							c-0.001,0.009-0.003,0.017-0.007,0.023c-0.116,0.028-0.221-0.003-0.3-0.053c-0.129-0.055-0.225-0.151-0.261-0.231
							c-0.065-0.146-0.021-0.2,0-0.267c0.061-0.193,0.221-0.217,0.42-0.224C21.914,24.262,22.065,24.66,21.938,24.997
							 M22.321,23.799c0.02,0.166-0.508,0.25-0.72,0.266c-0.292,0.023-0.903,0.033-0.814-0.266c0.04-0.135,0.607-0.152,0.814-0.155
							C21.688,23.641,22.301,23.636,22.321,23.799 M20.568,22.626c0.313,0.046,0.673-0.012,1.018-0.015
							c0.671-0.009,1.325-0.058,2.003-0.063c0.309-0.003,0.676-0.097,0.986-0.031c0.199,0.042,0.487,0.298,0.422,0.5
							c-0.063,0.196-0.314,0.124-0.47,0.032c-0.212-0.129-0.319-0.316-0.688-0.281c-0.239,0.021-0.505,0.124-0.814,0.156
							c-0.566,0.058-1.202,0.062-1.767,0.125c-0.444,0.049-0.88,0.169-1.158-0.047c-0.175-0.218-0.2-0.636-0.516-0.643
							c-0.16-0.003-0.198,0.141-0.283,0.22c-0.075,0.072-0.205,0.169-0.328,0.173c-0.212,0.003-0.517-0.276-0.532-0.454
							c-0.015-0.177,0.203-0.492,0.297-0.798c0.119-0.386,0.048-0.878,0.187-1.109c0.119-0.197,0.478-0.366,0.705-0.188
							c0.26,0.202,0.349,0.966,0.266,1.406c-0.033,0.179-0.148,0.296-0.141,0.455C19.769,22.374,20.254,22.581,20.568,22.626
							 M21.773,19.967c-0.149,0.121-0.278,0.229-0.392,0.345c-0.187,0.192-0.283,0.391-0.453,0.531
							c-0.092,0.075-0.276,0.176-0.407,0.156c-0.205-0.03-0.354-0.387-0.438-0.594c-0.051-0.128-0.064-0.269-0.11-0.406
							c-0.042-0.132-0.119-0.269-0.125-0.392c-0.025-0.483,0.308-0.591,0.61-0.798c0.189-0.13,0.287-0.277,0.501-0.297
							c0.165-0.015,0.238,0.121,0.344,0.233c0.172,0.183,0.367,0.361,0.579,0.548c0.115,0.102,0.25,0.213,0.25,0.297
							C22.134,19.713,21.9,19.864,21.773,19.967 M26.999,21.687c-0.1-0.231-0.637-0.344-0.704-0.641
							c-0.113-0.496,0.409-0.415,0.453-0.782c-0.532-0.065-1.143,0.18-1.751,0.141c-0.438-0.029-0.849-0.11-1.158-0.281
							c-0.17-0.095-0.684-0.424-0.642-0.736c0.018-0.133,0.255-0.278,0.407-0.343c0.325-0.141,0.763-0.248,1.189-0.36
							c0.42-0.11,0.835-0.248,1.205-0.328c0.401-0.088,0.684,0.047,0.985,0.203c0.191,0.099,0.365,0.186,0.392,0.358
							c0.033,0.208-0.078,0.442-0.172,0.61c-0.09,0.162-0.255,0.3-0.25,0.486c0.093,0.098,0.182,0.049,0.282,0.093
							c0.314,0.138,0.472,0.828,0.469,1.346c-0.002,0.34-0.032,1.144-0.36,1.142C26.992,22.594,27.114,21.956,26.999,21.687
							 M28.165,23.789c0.185,0.105,0.716,0.07,1.134,0.104c0.572,0.046,1.201,0.027,1.737,0.032c0.292,0.003,0.541,0.07,0.782,0.094
							c0.21,0.021,0.415-0.049,0.548,0c0.2,0.073,0.378,0.402,0.266,0.61c-0.205,0.063-0.344-0.228-0.423-0.215
							c-0.08,0.014-0.402,0.238-0.703,0.184c-0.239-0.044-0.471-0.285-0.751-0.33c-0.395-0.061-0.893-0.029-1.361-0.046
							c-0.238-0.009-0.468-0.001-0.705-0.016c-0.229-0.015-0.466-0.083-0.657-0.063c-0.151,0.017-0.274,0.149-0.422,0.125
							c-0.322-0.05-0.347-0.92-0.151-1.026C27.655,23.135,27.98,23.684,28.165,23.789 M29.314,19.122
							c-0.048-0.09-0.188-0.179-0.297-0.282c-0.186-0.172-0.36-0.358-0.595-0.452c-0.275-0.11-0.569-0.113-0.829-0.204
							c-0.343-0.119-0.566-0.424-1.064-0.406c-0.318,0.012-0.65,0.106-0.955,0.188c-0.601,0.16-1.13,0.362-1.689,0.594
							c-0.357,0.147-0.639,0.367-1.095,0.344c-0.198-0.009-0.643-0.12-0.642-0.297c0.001-0.221,0.458-0.153,0.704-0.204
							c0.475-0.096,0.768-0.498,1.22-0.703c0.403-0.183,0.981-0.207,1.456-0.313c0.553-0.123,0.956-0.373,1.517-0.406
							c0.226-0.014,0.679,0.105,0.86,0.203c0.183,0.099,0.305,0.333,0.423,0.5c0.125,0.179,0.268,0.395,0.407,0.517
							c0.1,0.088,0.258,0.127,0.359,0.22c0.088,0.08,0.156,0.183,0.25,0.266c0.244,0.213,0.633,0.468,0.83,0.72
							c0.149,0.189,0.279,0.465,0.25,0.734c-0.283,0.075-0.564,0.019-0.72-0.078C29.412,19.88,29.479,19.43,29.314,19.122
							 M30.68,21.349c-0.046,0.028-0.905-0.337-0.855-0.575c0.049-0.239,0.898-0.298,0.961,0.152
							C30.807,21.079,30.727,21.321,30.68,21.349 M30.268,19.216c-0.091-0.091-0.234-0.167-0.25-0.313
							c0.044-0.114,0.262-0.088,0.422-0.063c0.417,0.068,1.015,0.345,1.174,0.674c0.069,0.142,0.059,0.387,0.078,0.642
							c0.015,0.206,0.08,0.416,0.094,0.578c0.023,0.279-0.006,0.705-0.281,0.72c-0.374,0.02-0.247-0.354-0.251-0.626
							C31.24,19.996,30.709,19.657,30.268,19.216 M31.849,23.235c-0.036,0.282-0.57,0.115-0.61-0.062
							c-0.017-0.074,0.038-0.193,0.047-0.25c0.032-0.222-0.07-0.474-0.031-0.673c0.07-0.36,0.619-0.218,0.563,0.234
							c-0.017,0.136-0.224,0.313-0.23,0.407C31.579,22.984,31.875,23.03,31.849,23.235 M33.163,18.809
							c-0.03,0.11-0.605,0.217-0.845,0.235c-0.329,0.024-0.536-0.055-0.798-0.142c-0.128-0.043-0.44-0.11-0.454-0.219
							c-0.02-0.159,0.376-0.241,0.469-0.266c0.228-0.064,0.407-0.125,0.626-0.125c0.124,0,0.384,0.101,0.579,0.188
							C32.852,18.53,33.203,18.662,33.163,18.809 M34.806,19.17c0.188,0.274,0.287,0.63,0.438,0.938c-0.147,0.15-0.53,0.14-0.673,0
							c-0.129-0.126-0.112-0.358-0.203-0.547c-0.084-0.178-0.296-0.337-0.454-0.516c-0.245-0.28-0.343-0.643-0.391-1.127
							c-0.147-0.191-0.326,0.027-0.563,0.048c-0.214,0.017-0.447-0.066-0.611-0.142c-0.16-0.073-0.332-0.266-0.468-0.266
							c-0.196,0-0.198,0.177-0.235,0.313c-0.122,0.093-0.289,0.231-0.438,0.188c-0.171-0.05-0.134-0.25-0.172-0.454
							c-0.03-0.154-0.125-0.283-0.094-0.406c0.123-0.1,0.271-0.057,0.423-0.063c0.443-0.018,0.926-0.178,1.314-0.172
							c0.269,0.004,0.454,0.181,0.688,0.219c0.45,0.429,0.714,0.99,1.063,1.518C34.54,18.864,34.691,19,34.806,19.17 M37.905,18.872
							c0.129,0.165,0.267,0.43,0.171,0.568c-0.095,0.138-0.662-0.078-0.765-0.443c-0.035-0.121-0.042-0.303-0.11-0.391
							c-0.097-0.129-0.441-0.144-0.688-0.173c-0.786-0.088-1.513-0.115-2.237-0.265c-0.17-0.211-0.294-0.468-0.423-0.721
							c0.083-0.109,0.166-0.14,0.375-0.125c0.67,0.049,1.44,0.256,2.097,0.517c0.324,0.129,0.616,0.239,0.875,0.438
							C37.448,18.467,37.735,18.655,37.905,18.872 M40.173,17.37c-0.021,0.049-1.162-0.178-1.611,0.016
							c-0.169,0.074-0.284,0.297-0.454,0.407c-0.231,0.15-0.453,0.175-0.673,0.297c-0.22-0.087-0.381-0.234-0.594-0.328
							c-0.083-0.216,0.023-0.614-0.063-0.876c-0.057-0.172-0.245-0.328-0.25-0.484c-0.014-0.342,0.703-0.555,1.032-0.58
							c0.377-0.026,1.27,0.225,0.626,0.408c-0.11,0.031-0.238,0.022-0.25,0.124c-0.017,0.144,0.24,0.183,0.438,0.172
							c0.345-0.017,0.44-0.194,0.782-0.155c0.216,0.023,0.634,0.175,0.721,0.266c0.078,0.083,0.255,0.375,0.281,0.469
							C40.184,17.206,40.195,17.321,40.173,17.37 M40.078,16.511c-0.39-0.415-1.114-0.457-1.532-0.877
							c0.014-0.085,0.07-0.117,0.041-0.25c-0.03-0.133-0.562-0.193-0.871-0.094c-0.141,0.046-0.297,0.162-0.469,0.234
							c-0.176,0.074-0.36,0.122-0.501,0.204c-0.181,0.106-0.284,0.285-0.438,0.344c-0.033-0.136-0.029-0.269-0.063-0.422
							c-0.021-0.1-0.111-0.2-0.094-0.281c0.023-0.114,0.286-0.155,0.391-0.204c0.283-0.131,0.536-0.427,0.908-0.406
							c0.65,0.036,0.942,0.205,1.423,0.453c0.54,0.279,1.037,0.465,1.565,0.798c0.186,0.118,0.595,0.386,0.61,0.563
							c0.015,0.185-0.218,0.383-0.391,0.391C40.347,16.979,40.232,16.672,40.078,16.511 M40.489,17.474
							c0.065-0.246,0.917-0.155,0.919,0.163C41.414,18.105,40.425,17.72,40.489,17.474 M42.035,16.542
							c0.132-0.018,0.325,0.025,0.359,0.094c0.061,0.117-0.101,0.416-0.172,0.5c-0.142,0.168-0.461,0.261-0.642,0.203
							c-0.062-0.039-0.153-0.398-0.047-0.547C41.598,16.703,41.914,16.557,42.035,16.542 M43.56,14.608
							c-0.034,0.221-0.526,0.254-0.79,0.354c-0.245,0.094-0.288,0.323-0.454,0.563c-0.199,0.289-0.545,0.682-0.789,0.588
							c-0.244-0.094-0.209-0.334-0.15-0.51c0.072-0.208,0.518-0.42,0.689-0.578c0.334-0.31,0.498-0.693,1.063-0.752
							C43.404,14.247,43.595,14.388,43.56,14.608 M46.704,15.809c-0.184,0.223-0.74,0.084-0.731-0.172
							C45.981,15.327,46.763,15.397,46.704,15.809"/>
					</g>
				</g>
			</g>
		</g>
	</g>
</g>
</svg>
