<?xml version="1.0" encoding="utf-8"?>
<!-- Generator: Adobe Illustrator 16.0.0, SVG Export Plug-In . SVG Version: 6.00 Build 0)  -->
<!DOCTYPE svg PUBLIC "-//W3C//DTD SVG 1.1//EN" "http://www.w3.org/Graphics/SVG/1.1/DTD/svg11.dtd">
<svg version="1.1" id="Layer_1" xmlns="http://www.w3.org/2000/svg" xmlns:xlink="http://www.w3.org/1999/xlink" x="0px" y="0px"
	 width="174.783px" height="43.676px" viewBox="0 0 174.783 43.676" enable-background="new 0 0 174.783 43.676"
	 xml:space="preserve">
<g>
	<title>Page 1</title>
	<desc>Created with Sketch.</desc>
	<g id="Page-1_2_">
		<g id="about_1_" transform="translate(-1157.000000, -3101.000000)">
			<g id="Group-8_1_" transform="translate(108.000000, 3063.000000)">
				<g id="Page-1_3_" transform="translate(1049.000000, 38.000000)">
					<g id="Group-3_1_" transform="translate(171.977547, 22.898639)">
						<g id="Clip-2_1_">
						</g>
						<defs>
							<filter id="Adobe_OpacityMaskFilter" filterUnits="userSpaceOnUse" x="0.022" y="-0.225" width="2.783" height="2.813">
								<feColorMatrix  type="matrix" values="1 0 0 0 0  0 1 0 0 0  0 0 1 0 0  0 0 0 1 0"/>
							</filter>
						</defs>
						<mask maskUnits="userSpaceOnUse" x="0.022" y="-0.225" width="2.783" height="2.813" id="mask-2_1_">
							<g filter="url(#Adobe_OpacityMaskFilter)">
								<polygon id="path-1_1_" fill="#FFFFFF" points="2.804,2.588 2.804,-0.225 0.023,-0.225 0.023,2.588 								"/>
							</g>
						</mask>
						<path id="Fill-1_1_" mask="url(#mask-2_1_)" d="M0.81,1.943V0.42h0.721c0.33,0,0.496,0.156,0.496,0.412
							c0,0.293-0.199,0.367-0.25,0.385c0.092,0.018,0.225,0.086,0.225,0.326c0,0.178,0.023,0.34,0.082,0.402L1.798,1.943
							C1.761,1.879,1.761,1.793,1.761,1.72c0-0.281-0.055-0.404-0.303-0.404H1.074L1.072,1.943H0.81z M1.074,0.637v0.477
							l0.432,0.002c0.168,0,0.26-0.086,0.26-0.244c0-0.195-0.127-0.234-0.264-0.234H1.074z M1.416-0.225
							c0.768,0.002,1.391,0.631,1.389,1.406c0,0.779-0.623,1.406-1.391,1.406c-0.77-0.002-1.393-0.631-1.391-1.408
							C0.023,0.404,0.646-0.225,1.416-0.225L1.416-0.225z M1.416-0.024c-0.656,0-1.193,0.539-1.195,1.203
							c0,0.666,0.537,1.205,1.193,1.205c0.658,0,1.191-0.537,1.191-1.203C2.607,0.517,2.074-0.022,1.416-0.024L1.416-0.024z"/>
					</g>
					<g id="Group-6_1_" transform="translate(0.000000, 0.287528)">
						<g id="Clip-5_1_">
						</g>
						<defs>
							<filter id="Adobe_OpacityMaskFilter_1_" filterUnits="userSpaceOnUse" x="0" y="-0.288" width="43.218" height="43.676">
								<feColorMatrix  type="matrix" values="1 0 0 0 0  0 1 0 0 0  0 0 1 0 0  0 0 0 1 0"/>
							</filter>
						</defs>
						<mask maskUnits="userSpaceOnUse" x="0" y="-0.288" width="43.218" height="43.676" id="mask-4_1_">
							<g filter="url(#Adobe_OpacityMaskFilter_1_)">
								<polygon id="path-3_1_" fill="#FFFFFF" points="21.608,43.388 0,43.388 0,-0.288 21.608,-0.288 43.218,-0.288 
									43.218,43.388 								"/>
							</g>
						</mask>
						<path id="Fill-4_1_" mask="url(#mask-4_1_)" d="M28.467,9.99c-0.056,0.088-0.107,0.174-0.151,0.264
							c0,0.102-0.124,0.145-0.119,0.25c-0.146,0.119-0.076,0.342-0.228,0.439c-0.063,0.168-0.194,0.32-0.271,0.502
							c-0.126,0.168-0.159,0.398-0.277,0.588c0.112,0.16,0.324,0.336,0.526,0.336c0.27-0.379,0.533-0.756,0.768-1.158
							c0.14-0.191,0.244-0.371,0.416-0.588c0.019-0.057,0.046-0.104,0.078-0.146C28.967,10.304,28.718,10.144,28.467,9.99
							L28.467,9.99z M29.408,10.617c-0.07,0.16-0.183,0.275-0.299,0.445c-0.068,0.133-0.132,0.211-0.229,0.352
							c-0.041,0.115-0.11,0.242-0.214,0.348c-0.084,0.266-0.333,0.461-0.472,0.705v0.154c0.207,0.146,0.372,0.383,0.636,0.383
							c0.111-0.047,0.042-0.18,0.178-0.201c0.03-0.055,0.113-0.117,0.121-0.201c0.353-0.295,0.545-0.674,0.865-0.973l0.266-0.332
							C29.985,11.06,29.7,10.834,29.408,10.617L29.408,10.617z M30.449,11.461c-0.171,0.225-0.343,0.418-0.561,0.672
							c-0.026,0.146-0.198,0.188-0.214,0.334c-0.192,0.078-0.242,0.314-0.401,0.441c-0.131,0.084-0.14,0.23-0.249,0.35
							c0.062,0.152,0.209,0.244,0.305,0.348c0.173-0.014,0.276-0.256,0.429-0.313c0.131-0.23,0.346-0.357,0.497-0.537
							c0.113-0.029,0.183-0.184,0.284-0.219c0.172-0.176,0.347-0.334,0.518-0.494C30.86,11.841,30.657,11.648,30.449,11.461
							L30.449,11.461z M31.222,12.211c-0.196,0.195-0.327,0.432-0.586,0.559c-0.076,0.182-0.313,0.266-0.413,0.42
							c-0.072,0.047-0.162,0.137-0.217,0.223c-0.103,0.035-0.172,0.117-0.234,0.193c-0.055,0.1-0.215,0.121-0.167,0.254
							c0.167,0.154,0.264,0.537,0.555,0.439c0.42-0.355,0.794-0.762,1.224-1.076c0.152-0.105,0.297-0.217,0.438-0.338
							C31.628,12.654,31.428,12.427,31.222,12.211L31.222,12.211z M32.012,13.121c-0.231,0.182-0.47,0.354-0.665,0.543
							c-0.067,0.037-0.109,0.105-0.165,0.166c-0.208,0.135-0.319,0.344-0.561,0.42c-0.042,0.084-0.174,0.168-0.25,0.23
							c-0.102,0.037-0.15,0.189-0.081,0.285c0.054,0.07,0.081,0.184,0.179,0.203c0.242-0.055,0.415-0.215,0.614-0.32
							c0.426-0.34,0.889-0.658,1.354-0.965C32.299,13.492,32.157,13.302,32.012,13.121L32.012,13.121z M32.569,13.875
							c-0.447,0.287-0.877,0.617-1.333,0.893c-0.118,0.168-0.396,0.225-0.451,0.418c-0.041,0.029-0.082,0.035-0.117,0.086
							c0.027,0.172-0.013,0.426,0.235,0.418c0.311-0.229,0.678-0.32,0.976-0.584c0.329-0.213,0.757-0.383,1.084-0.623
							C32.837,14.277,32.707,14.074,32.569,13.875L32.569,13.875z M33.137,14.773c-0.061,0.027-0.125,0.051-0.193,0.064
							c-0.505,0.314-1.046,0.645-1.599,0.887c-0.137-0.006-0.249,0.063-0.357,0.133c0,0.133,0.123,0.217,0.08,0.371
							c0.078,0.139,0.258,0.189,0.395,0.119c0.167-0.105,0.374-0.17,0.566-0.238c0.346-0.201,0.699-0.34,1.032-0.5
							c0.135-0.074,0.274-0.146,0.414-0.213C33.366,15.185,33.254,14.976,33.137,14.773L33.137,14.773z M33.591,15.627
							c-0.301,0.129-0.614,0.252-0.885,0.416c-0.139-0.031-0.164,0.094-0.284,0.137c-0.385,0.146-0.738,0.336-1.078,0.586
							c0.008,0.133,0.181,0.119,0.166,0.266c0.035,0.078,0.139,0.197,0.235,0.219c0.399-0.063,0.656-0.328,1.064-0.42
							c0.342-0.197,0.718-0.357,1.09-0.514C33.802,16.082,33.699,15.853,33.591,15.627L33.591,15.627z M34.002,16.57
							c-0.08,0.021-0.165,0.047-0.229,0.094c-0.375,0.252-0.852,0.383-1.279,0.57c-0.12,0.035-0.215,0.098-0.335,0.168
							c-0.068,0.189-0.399,0.021-0.364,0.287c0.118,0.154,0.221,0.344,0.4,0.42c0.4-0.063,0.809-0.279,1.245-0.355
							c0.269-0.119,0.573-0.168,0.843-0.285C34.224,17.16,34.118,16.861,34.002,16.57L34.002,16.57z M34.391,17.701
							c-0.306,0.08-0.613,0.178-0.905,0.303c-0.427,0.09-0.862,0.209-1.257,0.357c-0.062,0.049-0.105,0.104-0.085,0.178
							c0.159,0.127,0.084,0.352,0.228,0.49c0.009,0.086-0.026,0.225,0.106,0.219c0.642-0.133,1.313-0.209,1.936-0.383
							c0.087-0.008,0.174-0.021,0.259-0.039C34.593,18.443,34.501,18.07,34.391,17.701L34.391,17.701z M32.754,20.169
							c0.66-0.059,1.419-0.068,2.104-0.172l0.087-0.014c0.504-0.016,1.063-0.111,1.541-0.146c0.036,0.029,0.105,0.098,0.104,0.168
							c-0.146,0.113-0.39,0.057-0.567,0.117c-0.361-0.027-0.754,0.082-1.142,0.1c-0.083,0.004-0.165,0.004-0.248-0.002
							c-0.623,0-1.205,0.125-1.796,0.154c-0.238,0.166,0.039,0.451-0.017,0.682c0.016,0.098-0.042,0.182,0.048,0.238
							c0.462,0.07,0.961-0.006,1.445,0.066c0.2-0.045,0.417-0.066,0.627-0.055l0.003,0.258c-0.604,0-1.194-0.043-1.792-0.039
							c-0.104,0.063-0.311-0.039-0.346,0.133c0.034,0.217-0.159,0.461-0.083,0.691c0.572,0.168,1.182,0.26,1.757,0.436
							c0.139,0.01,0.272,0.029,0.403,0.053c0.039-0.408,0.061-0.826,0.061-1.248l-0.003-0.283c-0.005-0.363-0.027-0.725-0.06-1.084
							c0.388-0.018,0.78-0.127,1.142-0.1c0.178-0.061,0.421-0.004,0.567-0.117c0.001-0.07-0.068-0.139-0.104-0.168
							c-0.478,0.035-1.037,0.131-1.541,0.146l-0.087,0.014c-0.033-0.289-0.078-0.576-0.127-0.857
							c-0.07,0.012-0.143,0.02-0.215,0.025c-0.192,0.104-0.457,0.061-0.65,0.166c-0.366-0.02-0.677,0.162-1.028,0.131
							c-0.105,0.059-0.195,0.016-0.298,0.102c0.061,0.154,0.02,0.361,0.102,0.486C32.621,20.087,32.71,20.142,32.754,20.169
							L32.754,20.169z M34.854,23.115c-0.67-0.131-1.345-0.252-1.987-0.449c-0.085,0.006-0.187-0.016-0.214,0.082
							c-0.146,0.148,0.047,0.436-0.179,0.539c-0.059,0.305,0.302,0.229,0.461,0.385c0.312,0.092,0.614,0.203,0.912,0.322
							c0.302,0.053,0.555,0.188,0.819,0.303C34.746,23.91,34.809,23.515,34.854,23.115L34.854,23.115z M34.611,24.554
							c-0.109-0.031-0.221-0.057-0.335-0.072c-0.594-0.316-1.244-0.475-1.872-0.693c-0.188,0.084-0.105,0.287-0.266,0.406
							c0,0.117-0.117,0.258,0,0.369c0.741,0.287,1.481,0.602,2.231,0.908C34.459,25.169,34.542,24.867,34.611,24.554L34.611,24.554z
							 M34.296,25.707c-0.056-0.031-0.111-0.066-0.166-0.105c-0.324-0.084-0.621-0.209-0.91-0.35
							c-0.465-0.135-0.845-0.416-1.33-0.436c-0.13,0.154-0.198,0.342-0.332,0.482c-0.025,0.174,0.139,0.195,0.25,0.252
							c0.724,0.348,1.451,0.688,2.182,1.014C34.102,26.283,34.205,25.998,34.296,25.707L34.296,25.707z M33.848,26.908
							c-0.243-0.109-0.486-0.223-0.7-0.363c-0.45-0.189-0.877-0.42-1.326-0.611c-0.181-0.105-0.353-0.26-0.581-0.195
							c-0.158,0.076-0.173,0.258-0.346,0.334c-0.098,0.197,0.179,0.254,0.276,0.363c0.711,0.479,1.444,1.064,2.154,1.568
							C33.518,27.648,33.688,27.279,33.848,26.908L33.848,26.908z M33.225,28.189c-0.148-0.117-0.302-0.23-0.424-0.34
							c-0.229-0.041-0.323-0.307-0.531-0.35c-0.105-0.188-0.331-0.174-0.449-0.336c-0.277-0.287-0.69-0.441-0.96-0.729
							c-0.07-0.053-0.187-0.096-0.271-0.025c-0.104,0.133-0.282,0.215-0.309,0.395c0.268,0.254,0.516,0.596,0.827,0.826
							c0.014,0.133,0.167,0.156,0.228,0.232c0.29,0.313,0.63,0.602,0.913,0.908c0.135,0.092,0.26,0.234,0.393,0.363
							C32.848,28.828,33.041,28.513,33.225,28.189L33.225,28.189z M32.492,29.351c-0.179-0.178-0.33-0.363-0.522-0.564
							c-0.307-0.188-0.506-0.566-0.817-0.779c-0.335-0.355-0.702-0.732-1.062-1.07c-0.214,0.035-0.316,0.266-0.497,0.371
							c-0.043,0.07-0.173,0.064-0.179,0.168c0.024,0.16,0.241,0.279,0.345,0.418c0.441,0.365,0.767,0.813,1.216,1.125
							c0.104,0.178,0.304,0.318,0.462,0.471c0.117,0.154,0.311,0.301,0.464,0.404c0.023,0.051,0.053,0.09,0.091,0.123
							C32.165,29.802,32.333,29.578,32.492,29.351L32.492,29.351z M31.84,30.205l-0.306-0.297c-0.098-0.125-0.284-0.285-0.415-0.398
							c-0.193-0.23-0.467-0.434-0.662-0.658c-0.428-0.404-0.845-0.828-1.278-1.223c-0.36,0.246-0.565,0.393-0.609,0.42
							c0.056,0.146,0.271,0.098,0.298,0.252c0.407,0.477,0.788,0.943,1.244,1.375c0.146,0.273,0.419,0.463,0.579,0.723
							c0.169,0.162,0.327,0.352,0.488,0.543C31.406,30.705,31.628,30.457,31.84,30.205L31.84,30.205z M30.94,31.187
							c-0.122-0.125-0.235-0.254-0.32-0.393c-0.435-0.518-0.926-0.951-1.305-1.51c-0.29-0.217-0.456-0.592-0.767-0.783
							c-0.131-0.098-0.116-0.293-0.332-0.27c-0.125,0.15-0.344,0.129-0.451,0.299c0.077,0.209,0.2,0.355,0.306,0.535
							c0.708,0.92,1.341,1.928,1.992,2.912C30.367,31.728,30.659,31.462,30.94,31.187L30.94,31.187z M29.881,32.128
							c-0.1-0.15-0.19-0.305-0.291-0.453c-0.08-0.119-0.165-0.238-0.262-0.342c0-0.07-0.056-0.127-0.097-0.168
							c-0.187-0.273-0.332-0.582-0.565-0.818c-0.152-0.336-0.459-0.58-0.582-0.91c-0.199-0.244-0.372-0.551-0.579-0.756
							c-0.077,0.016-0.236,0.023-0.263,0.133c0.122,0.252,0.214,0.525,0.379,0.756c-0.007,0.113,0.11,0.166,0.118,0.271
							c0.206,0.379,0.436,0.777,0.628,1.141c0.063,0.07,0.074,0.168,0.146,0.23c0.248,0.428,0.413,0.889,0.695,1.295l0.039,0.096
							C29.463,32.451,29.675,32.293,29.881,32.128L29.881,32.128z M28.992,32.779c-0.136-0.209-0.191-0.447-0.328-0.623
							c0-0.104-0.173-0.166-0.131-0.301c-0.126-0.229-0.319-0.432-0.381-0.689c-0.091-0.078-0.097-0.191-0.188-0.268
							c-0.103-0.385-0.372-0.678-0.509-1.057c-0.174-0.307-0.339-0.564-0.498-0.871c-0.29-0.078-0.504,0.172-0.746,0.285
							c0.096,0.34,0.33,0.646,0.427,0.984c0.165,0.209,0.235,0.42,0.366,0.637c0.048,0.23,0.235,0.357,0.282,0.59
							c0.146,0.109,0.16,0.271,0.215,0.416c0.11,0.107,0.068,0.287,0.214,0.357c0.062,0.195,0.207,0.406,0.27,0.602
							c0.025,0.014,0.056,0.041,0.083,0.068c0.018,0.143,0.087,0.244,0.153,0.35C28.484,33.107,28.742,32.947,28.992,32.779
							L28.992,32.779z M27.992,33.388c-0.045-0.086-0.083-0.172-0.111-0.26c-0.11-0.219-0.263-0.455-0.364-0.686
							c-0.021-0.135-0.078-0.203-0.133-0.32c-0.118-0.186-0.18-0.393-0.311-0.574c-0.063-0.197-0.076-0.273-0.221-0.432
							c-0.131-0.346-0.353-0.688-0.475-1.023c-0.126-0.23-0.271-0.461-0.353-0.707c-0.044-0.049-0.124-0.07-0.182-0.033
							c-0.109,0.041-0.191,0.113-0.249,0.201c0.092,0.322,0.209,0.635,0.346,0.936c0.105,0.189,0.067,0.441,0.221,0.611
							c0.089,0.152,0.083,0.363,0.228,0.502c0.021,0.111,0.069,0.215,0.104,0.334c0.028,0.252,0.228,0.402,0.228,0.672
							c0.117,0.254,0.234,0.518,0.331,0.77c0.042,0.139,0.104,0.271,0.161,0.408C27.477,33.662,27.736,33.529,27.992,33.388
							L27.992,33.388z M26.919,33.918c-0.089-0.24-0.18-0.48-0.296-0.707c-0.067-0.287-0.104-0.566-0.297-0.826
							c-0.097-0.313-0.206-0.574-0.353-0.865c-0.123-0.398-0.268-0.742-0.379-1.148c-0.089-0.215-0.215-0.42-0.263-0.65
							c-0.138-0.152-0.338,0.014-0.497,0.035c-0.138,0.064-0.063,0.23-0.035,0.336c0.055,0.135,0,0.314,0.119,0.434
							c-0.036,0.258,0.108,0.434,0.129,0.67c0.124,0.518,0.221,1.002,0.33,1.525c0.134,0.082,0.016,0.266,0.119,0.355
							c-0.057,0.184,0.089,0.273,0.079,0.434c0.044,0.094,0.044,0.203,0.064,0.303c0.114,0.15,0.042,0.383,0.114,0.555
							C26.151,34.232,26.54,34.086,26.919,33.918L26.919,33.918z M24.645,34.347l0.011,0.326l0.009,0.227
							c0.015,0.033,0.036,0.063,0.029,0.105c-0.092,0.055-0.224,0.125-0.333,0.047l-0.019-0.309
							c-0.069-1.143-0.15-2.326-0.289-3.428c0-0.457-0.063-0.875-0.131-1.295c-0.24,0.035-0.532,0.055-0.769,0.117
							c-0.06-0.014-0.125,0.064-0.131,0.117c0.049,1.576,0.048,3,0.067,4.559l-0.007,0.133c0.426-0.049,0.846-0.115,1.259-0.203
							l0.019,0.309c0.109,0.078,0.241,0.008,0.333-0.047c0.007-0.043-0.015-0.072-0.029-0.105l-0.009-0.227
							c0.303-0.07,0.598-0.15,0.89-0.242c-0.057-0.252-0.113-0.506-0.188-0.754c-0.083-0.23-0.041-0.531-0.179-0.754
							c-0.234-0.832-0.318-1.684-0.579-2.482c0.006-0.195-0.076-0.363-0.117-0.539c-0.035-0.055-0.117-0.035-0.167-0.014
							c-0.04,0.092-0.056,0.217-0.034,0.314c-0.021,0.461,0.104,0.832,0.082,1.314c0.089,0.182,0.007,0.461,0.104,0.67
							c-0.042,0.238,0.054,0.525,0.049,0.77C24.562,33.404,24.549,33.91,24.645,34.347L24.645,34.347z M22.854,34.97
							c0.006-0.063,0.015-0.121,0.035-0.186c-0.006-1.506-0.053-3.016-0.079-4.561c-0.125-0.086-0.146,0-0.298-0.002
							c-0.097,0.09-0.021,0.273-0.07,0.371l-0.014,0.697c-0.062,0.197-0.097,0.443-0.104,0.672
							c-0.097,0.432-0.082,0.914-0.132,1.342c-0.069,0.455-0.064,0.875-0.132,1.326v0.389C22.325,35.009,22.592,34.996,22.854,34.97
							L22.854,34.97z M21.789,35.025c-0.004-0.139-0.001-0.279,0.056-0.395c-0.063-0.551,0.084-1.102,0.084-1.607
							c0.152-0.688,0.11-1.326,0.167-2.08c0.063-0.139,0.007-0.357,0.05-0.49c0.028-0.051,0.015-0.119,0.015-0.184l-0.713-0.047
							c-0.222,0.098-0.029,0.369-0.181,0.504c-0.013,0.438-0.174,0.865-0.2,1.32c-0.112,0.641-0.188,1.277-0.321,1.93
							c-0.062,0.314-0.048,0.697-0.165,1.012c0.337,0.025,0.675,0.039,1.018,0.039L21.789,35.025z M20.358,34.968
							c0.041-0.389,0.102-0.764,0.187-1.125c0.075-0.477,0.125-0.959,0.222-1.428c-0.045-0.271,0.092-0.49,0.132-0.746
							c0.015-0.088,0.018-0.178,0-0.273c0.022-0.133,0.098-0.293,0.063-0.471c-0.049-0.033-0.063,0.043-0.097,0.064
							c-0.021,0.174-0.098,0.328-0.118,0.502c-0.104,0.045,0.008,0.176-0.098,0.217c-0.062,0.189-0.049,0.414-0.165,0.576
							c0.025,0.131-0.095,0.188-0.069,0.318c-0.118,0.195-0.098,0.469-0.215,0.674c0.048,0.234-0.201,0.367-0.119,0.6
							c-0.048,0.053-0.034,0.154-0.097,0.201c-0.068,0.266-0.145,0.545-0.251,0.789l-0.247-0.07c0.119-0.439,0.2-0.887,0.381-1.326
							c-0.007-0.154,0.077-0.301,0.118-0.42c0.007-0.201,0.158-0.371,0.133-0.566c0.068-0.174,0.117-0.361,0.154-0.553
							c0.089-0.045,0.018-0.164,0.06-0.236c0.133-0.244,0.146-0.537,0.251-0.789c-0.016-0.146,0.138-0.225,0.082-0.385
							c0.091-0.035,0.035-0.168,0.05-0.252c-0.18-0.162-0.457-0.105-0.692-0.119c-0.097,0.111-0.145,0.273-0.222,0.404
							c0.021,0.268-0.229,0.377-0.229,0.637c-0.034,0.162-0.133,0.295-0.167,0.455c-0.11,0.035,0.008,0.16-0.103,0.201
							c-0.105,0.359-0.235,0.699-0.396,1.035c-0.019,0.279-0.172,0.504-0.284,0.74c0.016,0.146-0.131,0.225-0.117,0.369
							c-0.041,0.037-0.055,0.078-0.049,0.133c-0.055,0.041-0.083,0.168-0.116,0.254c-0.07,0.039-0.145-0.008-0.201-0.049
							c0.097-0.23,0.139-0.533,0.285-0.74c-0.015-0.113,0.089-0.184,0.104-0.287c0.104-0.314,0.256-0.602,0.347-0.924
							c0.097-0.027,0.02-0.166,0.068-0.23c0.139-0.188,0.124-0.441,0.263-0.621c-0.033-0.145,0.153-0.201,0.119-0.35
							c0.123-0.152,0.089-0.371,0.214-0.523c-0.054-0.176,0.173-0.189,0.117-0.369c0.063-0.023,0.023-0.086,0.035-0.135
							c-0.012-0.082-0.097-0.104-0.166-0.119c-0.124,0.006-0.103,0.119-0.165,0.189c-0.043,0.25-0.263,0.439-0.32,0.684
							c-0.116,0.127-0.137,0.301-0.179,0.469c-0.181,0.035-0.104,0.238-0.237,0.32c0.051,0.111-0.095,0.141-0.116,0.217
							c-0.028,0.244-0.18,0.385-0.262,0.607c-0.113,0.184-0.196,0.33-0.25,0.533c-0.063,0.201-0.236,0.307-0.271,0.523
							c-0.145,0.096-0.062,0.295-0.228,0.383v0.086h-0.104c-0.046-0.037-0.129-0.059-0.193-0.098
							c0.07-0.148,0.183-0.287,0.231-0.441c0.048-0.26,0.303-0.426,0.351-0.684c0.111-0.1,0.104-0.244,0.193-0.357
							c0.07-0.209,0.181-0.438,0.333-0.615l0.07-0.182c0.091-0.219,0.191-0.43,0.284-0.641c0.129-0.141,0.139-0.344,0.262-0.471
							c0.006-0.168,0.165-0.258,0.165-0.418c0.044-0.043,0.093-0.068,0.069-0.133c-0.171-0.162-0.434-0.084-0.613-0.203
							l-0.513-0.121c-0.248,0.17-0.324,0.463-0.532,0.672c0,0.119-0.166,0.133-0.132,0.266c-0.188,0.207-0.24,0.434-0.434,0.643
							c0.005,0.113-0.142,0.166-0.183,0.266c-0.167,0.111-0.081,0.328-0.268,0.434c-0.05,0.137-0.19,0.23-0.229,0.391
							c-0.085,0.104-0.091,0.182-0.214,0.279c-0.077,0.176-0.23,0.293-0.284,0.488c-0.043,0.076-0.125,0.162-0.168,0.252
							c-0.089-0.006-0.178-0.049-0.233-0.096c0.109-0.17,0.305-0.441,0.415-0.674c0.04-0.076,0.116-0.117,0.165-0.199
							c0.057-0.107,0.098-0.211,0.119-0.324c0.158-0.152,0.149-0.371,0.332-0.518c0.256-0.313,0.264-0.572,0.548-0.836
							c0,0,0.022-0.064,0.032-0.121c0.09-0.166,0.23-0.229,0.263-0.42c0.057-0.09,0.092-0.166,0.167-0.236
							c0.055-0.111,0.138-0.211,0.151-0.332c-0.171,0.039-0.194,0.215-0.296,0.318c-0.104,0.168-0.187,0.301-0.317,0.455
							c0.005,0.09-0.113,0.146-0.119,0.229c-0.089,0.07-0.124,0.16-0.165,0.254c-0.291,0.445-0.596,0.873-0.893,1.311
							c-0.153,0.295-0.34,0.531-0.5,0.756c-0.007,0.084-0.104,0.154-0.131,0.217c-0.063-0.008-0.117-0.049-0.167-0.084
							c-0.021-0.029,0.036-0.098,0.084-0.133c0.083-0.146,0.063-0.355,0.229-0.455c-0.034-0.068,0.09-0.082,0.048-0.15
							c0.159-0.172,0.224-0.395,0.4-0.541c0.042-0.146,0.175-0.307,0.265-0.434c0.027-0.119,0.166-0.195,0.186-0.299
							c0.124-0.084,0.099-0.246,0.217-0.322c0.296-0.41,0.52-0.814,0.782-1.271c0.061-0.102-0.047-0.152-0.047-0.152
							c-0.319-0.162-0.582-0.357-0.935-0.504c-0.117,0.174-0.375,0.32-0.429,0.537c-0.049,0.057-0.168,0.141-0.168,0.217
							c-0.124,0.104-0.248,0.279-0.332,0.418c-0.117,0.119-0.234,0.285-0.352,0.406c-0.125,0.279-0.404,0.447-0.549,0.721
							c-0.352,0.332-0.58,0.785-0.886,1.123C15.413,33.74,17.779,34.726,20.358,34.968L20.358,34.968z M13.308,32.097
							c0.049-0.049,0.106-0.096,0.125-0.156c0.201-0.201,0.394-0.518,0.547-0.756c0.319-0.264,0.505-0.676,0.796-0.955
							c0.138-0.244,0.423-0.447,0.546-0.719c0.243-0.273,0.533-0.58,0.665-0.922c-0.165-0.119-0.213-0.35-0.44-0.285
							c-0.217,0.154-0.292,0.34-0.5,0.467c-0.056,0.088-0.145,0.152-0.222,0.221c-0.166,0.26-0.442,0.344-0.581,0.617
							c-0.227,0.217-0.458,0.492-0.691,0.689c-0.344,0.318-0.794,0.703-1.075,1.072C12.743,31.623,13.022,31.865,13.308,32.097
							L13.308,32.097z M12.248,31.148c0.204-0.178,0.409-0.375,0.557-0.564c0.276-0.264,0.532-0.502,0.761-0.787
							c0.374-0.301,0.657-0.609,0.963-0.959c0.337-0.221,0.491-0.57,0.794-0.766c-0.006-0.307-0.331-0.398-0.441-0.643
							c0.021-0.078-0.068-0.078-0.104-0.113c-0.234,0.127-0.408,0.285-0.615,0.447l-0.498,0.355
							c0.014,0.041-0.049,0.041-0.083,0.063c-0.651,0.537-1.384,1.047-2.041,1.613c-0.11,0.051-0.205,0.137-0.302,0.227
							C11.554,30.416,11.89,30.791,12.248,31.148L12.248,31.148z M11.111,29.859c0.032-0.025,0.071-0.051,0.119-0.064
							c0.061-0.086,0.192-0.176,0.274-0.252c0.139-0.049,0.23-0.203,0.367-0.252c0.222-0.098,0.291-0.34,0.52-0.416
							c0.275-0.281,0.559-0.463,0.878-0.719c0.305-0.184,0.497-0.457,0.831-0.609c0.145-0.188,0.366-0.25,0.498-0.467
							c-0.015-0.162-0.165-0.225-0.215-0.35c-0.096-0.07-0.152,0.047-0.235,0.047c-0.483,0.336-0.979,0.602-1.493,0.9
							c-0.036,0.105-0.222,0.105-0.285,0.225c-0.611,0.369-1.268,0.744-1.845,1.145C10.711,29.324,10.907,29.597,11.111,29.859
							L11.111,29.859z M10.399,28.851c0.526-0.342,1.135-0.768,1.675-1.068c0.235-0.252,0.561-0.299,0.829-0.523
							c0.396-0.217,0.727-0.488,1.129-0.684c0.075-0.041,0.172-0.141,0.083-0.236c-0.166-0.133-0.2-0.371-0.348-0.52
							c-0.025-0.057-0.072-0.16-0.15-0.182c-0.442,0.217-0.948,0.355-1.327,0.65c-0.748,0.334-1.467,0.711-2.222,1.053
							c-0.117,0.092-0.26,0.146-0.401,0.207C9.887,27.998,10.132,28.435,10.399,28.851L10.399,28.851z M9.545,27.293
							c0.189-0.086,0.37-0.176,0.54-0.301c0.924-0.398,1.811-0.949,2.807-1.27c0.119-0.258,0.788-0.209,0.464-0.623
							c-0.021-0.125-0.111-0.256-0.214-0.299c-0.292,0.049-0.521,0.258-0.803,0.313c-0.311,0.135-0.547,0.344-0.892,0.406
							c-0.222,0.201-0.567,0.201-0.795,0.383c-0.484,0.199-0.957,0.408-1.439,0.619C9.314,26.785,9.425,27.041,9.545,27.293
							L9.545,27.293z M9.091,26.201c0.19-0.07,0.381-0.139,0.545-0.25c0.268-0.084,0.505-0.225,0.794-0.299
							c0.235-0.197,0.58-0.211,0.815-0.406c0.319-0.043,0.533-0.309,0.866-0.35c0.269-0.152,0.614-0.223,0.843-0.418
							c0-0.201-0.178-0.385-0.198-0.6c-0.042-0.1-0.146-0.078-0.214-0.057c-1.018,0.264-2.008,0.605-3.023,0.869
							c-0.265,0.098-0.539,0.18-0.817,0.254C8.812,25.375,8.94,25.791,9.091,26.201L9.091,26.201z M8.633,24.662
							c0.165-0.033,0.33-0.064,0.457-0.172c0.588-0.141,1.163-0.322,1.743-0.48c0.082-0.107,0.276-0.01,0.379-0.084
							c0.354-0.16,0.63-0.238,1.017-0.32c0.124-0.084,0.335-0.02,0.395-0.184c-0.012-0.158-0.032-0.307-0.164-0.383
							c-0.512,0.02-1.01,0.215-1.529,0.229c-0.835,0.127-1.646,0.313-2.485,0.432C8.495,24.025,8.558,24.343,8.633,24.662
							L8.633,24.662z M8.4,23.402c0.065-0.004,0.136-0.004,0.192-0.018c0.243-0.076,0.547-0.02,0.782-0.133
							c0.727-0.123,1.327-0.229,2.005-0.297c0.291-0.141,0.629-0.141,0.961-0.203c0.271-0.209-0.013-0.518,0.056-0.775
							c-0.061-0.063-0.007-0.209-0.139-0.217c-0.192-0.051-0.407,0.027-0.579,0.047c-0.505-0.068-0.948,0.119-1.474,0.057
							c-0.635,0.063-1.271,0.119-1.923,0.131C8.298,22.468,8.337,22.937,8.4,23.402L8.4,23.402z M8.276,21.724
							c0.092,0.02,0.191,0.047,0.284-0.002c1.23-0.133,2.445-0.217,3.697-0.25c0.147-0.035,0.022-0.229,0.037-0.35
							c-0.21-0.088-0.52-0.049-0.728-0.035c-0.345,0.021-0.732-0.041-1.079,0.047c-0.289-0.09-0.572-0.014-0.884-0.014
							c-0.445,0.012-0.868,0.01-1.322,0.021l-0.009,0.398L8.276,21.724z M8.291,20.888c1.326,0.021,2.649-0.047,3.967-0.064
							c0.168-0.078,0.107-0.252,0.155-0.406c0.007-0.131,0.089-0.396-0.132-0.398c-0.547-0.055-1.078-0.135-1.611-0.225
							c-0.132,0.014-0.282-0.02-0.43-0.027c-0.296-0.037-0.62,0.006-0.882-0.121c-0.341,0.039-0.638-0.047-0.937-0.098
							C8.355,19.988,8.313,20.435,8.291,20.888L8.291,20.888z M8.453,19.347c0.396,0.027,0.813,0.01,1.175,0.133
							c0.945,0.111,1.845,0.246,2.785,0.336c0.11-0.104,0.054-0.313,0.116-0.455c-0.04-0.09,0.03-0.158-0.081-0.215
							c-0.595-0.111-1.176-0.252-1.777-0.338c-0.222-0.117-0.489-0.131-0.746-0.168c-0.415-0.113-0.86-0.156-1.278-0.262
							C8.569,18.697,8.506,19.021,8.453,19.347L8.453,19.347z M8.726,18.06c0.109,0.033,0.218,0.068,0.336,0.076
							c0.56,0.205,1.111,0.324,1.706,0.436c0.608,0.09,1.189,0.301,1.8,0.338c0.186-0.1,0.06-0.406,0.214-0.539
							c-0.118-0.258-0.478-0.176-0.664-0.336c-0.394-0.111-0.809-0.209-1.147-0.396c-0.653-0.182-1.274-0.436-1.911-0.65
							C8.933,17.339,8.821,17.699,8.726,18.06L8.726,18.06z M9.128,16.798c1.209,0.43,2.445,0.789,3.653,1.225
							c0.222-0.027,0.082-0.295,0.214-0.406c-0.015-0.129-0.172-0.174-0.264-0.23c-0.476-0.189-0.926-0.449-1.395-0.609
							c-0.283-0.176-0.629-0.324-0.946-0.434c-0.29-0.16-0.604-0.275-0.911-0.396C9.353,16.224,9.235,16.511,9.128,16.798
							L9.128,16.798z M9.612,15.664c0.184,0.084,0.364,0.174,0.551,0.258c0.274,0.102,0.579,0.205,0.808,0.352
							c0.746,0.23,1.354,0.666,2.109,0.875c0.164-0.195,0.261-0.453,0.365-0.682c-0.849-0.666-1.838-1.24-2.724-1.85
							c-0.14-0.078-0.271-0.158-0.402-0.24C10.061,14.791,9.825,15.218,9.612,15.664L9.612,15.664z M10.423,14.214
							c0.588,0.352,1.185,0.781,1.745,1.137c0.449,0.26,0.883,0.604,1.362,0.861c0.206,0,0.213-0.197,0.283-0.336
							c0.131-0.104,0.215-0.271,0.228-0.418c-0.779-0.609-1.534-1.211-2.301-1.797c-0.062-0.092-0.181-0.154-0.282-0.238
							c-0.109-0.072-0.216-0.145-0.318-0.221C10.888,13.529,10.646,13.867,10.423,14.214L10.423,14.214z M11.305,12.994
							c0.275,0.189,0.557,0.365,0.767,0.619c0.725,0.434,1.396,1.09,2.102,1.594c0.139,0.035,0.214-0.117,0.271-0.205
							c-0.016-0.143,0.269-0.15,0.166-0.346c-0.359-0.33-0.712-0.617-1.077-0.895c-0.237-0.197-0.463-0.4-0.713-0.555
							c-0.124-0.088-0.166-0.229-0.333-0.25c0-0.084-0.061-0.107-0.114-0.148c-0.15-0.162-0.321-0.316-0.499-0.463
							C11.677,12.556,11.488,12.771,11.305,12.994L11.305,12.994z M12.004,12.203c0.463,0.377,0.93,0.729,1.396,1.174
							c0.283,0.252,0.574,0.463,0.879,0.705c0.18,0.174,0.364,0.266,0.559,0.455c0.144-0.008,0.208-0.174,0.332-0.273
							c0.049-0.236-0.166-0.309-0.276-0.48c-0.124-0.189-0.421-0.316-0.519-0.539c-0.373-0.324-0.69-0.688-1.078-0.992
							c-0.192-0.242-0.453-0.445-0.634-0.693C12.437,11.765,12.216,11.98,12.004,12.203L12.004,12.203z M14.777,11.33
							c-0.281-0.268-0.435-0.617-0.675-0.918c-0.153-0.242-0.301-0.369-0.404-0.521c-0.04-0.082-0.095-0.162-0.15-0.238
							c-0.034-0.049-0.066-0.099-0.097-0.146c-0.056-0.156-0.268-0.196-0.233-0.387c0.054-0.075,0.172-0.075,0.248-0.02
							c0.021,0.085,0.082,0.153,0.103,0.238c0.087,0.109,0.159,0.213,0.234,0.314c0.107,0.15,0.215,0.299,0.346,0.455
							c0.028,0.07,0.07,0.133,0.116,0.195c0.069,0.09,0.146,0.176,0.196,0.273c0.157,0.139,0.206,0.322,0.365,0.453
							c0.139,0.232,0.27,0.434,0.413,0.588c0.097,0.105,0.104,0.236,0.25,0.336c0.07,0.168,0.199,0.217,0.246,0.383
							c0.16,0.217,0.396,0.484,0.535,0.707c0.033,0.084,0.115,0.166,0.199,0.203c0.15-0.021,0.215-0.148,0.347-0.215
							c0.173-0.064,0.338-0.133,0.483-0.273c-0.067-0.133-0.151-0.273-0.201-0.42c-0.248-0.383-0.44-0.846-0.711-1.26
							c-0.201-0.426-0.441-0.795-0.65-1.221c-0.052-0.066-0.101-0.134-0.146-0.203l-0.063-0.1c-0.435,0.225-0.858,0.475-1.265,0.748
							c-0.046-0.063-0.088-0.125-0.116-0.195c-0.131-0.156-0.238-0.305-0.346-0.455c-0.075-0.102-0.147-0.205-0.234-0.314
							c-0.021-0.085-0.082-0.153-0.103-0.238c-0.076-0.056-0.194-0.056-0.248,0.02c-0.034,0.19,0.178,0.23,0.233,0.387
							c0.03,0.048,0.063,0.098,0.097,0.146c0.056,0.076,0.11,0.156,0.15,0.238c0.104,0.152,0.251,0.279,0.348,0.453
							c-0.386,0.373-0.813,0.705-1.214,1.063c0.59,0.57,1.184,1.131,1.758,1.705c0.033,0.127,0.207,0.168,0.283,0.268
							c0.138,0.223,0.394,0.342,0.518,0.537c0.159,0.16,0.256-0.07,0.381-0.119c0.117-0.09,0.2-0.203,0.366-0.25
							c0.124-0.086,0.047-0.189,0-0.287c-0.104-0.051-0.077-0.174-0.188-0.217C15.585,12.462,15.171,11.916,14.777,11.33
							L14.777,11.33z M15.778,9.427c0.03,0.08,0.07,0.157,0.129,0.227c0.02,0.141,0.155,0.203,0.151,0.287
							c0.129,0.174,0.192,0.377,0.329,0.553c-0.054,0.146,0.146,0.189,0.167,0.305c0.056,0.178,0.152,0.338,0.276,0.482
							c0.013,0.094,0.104,0.184,0.119,0.287c0.121,0.078,0.148,0.227,0.198,0.35c0.007,0.105,0.187,0.176,0.165,0.307
							c0.182,0.127,0.182,0.471,0.462,0.367c0.07-0.031,0.134-0.07,0.188-0.135c-0.118-0.482-0.366-0.916-0.553-1.377
							c-0.109-0.203-0.151-0.439-0.273-0.635c-0.037-0.287-0.201-0.518-0.306-0.769c-0.139-0.13-0.098-0.31-0.193-0.421
							c-0.015-0.064-0.036-0.129-0.058-0.19C16.309,9.177,16.043,9.298,15.778,9.427L15.778,9.427z M16.773,8.99l0.079,0.23
							c0.076,0.137,0.146,0.285,0.207,0.435c0.058,0.14,0.105,0.28,0.138,0.419c0.091,0.148,0.159,0.295,0.202,0.455
							c0.179,0.238,0.254,0.551,0.343,0.838c0.104,0.146,0.132,0.314,0.236,0.455c0.027,0.195,0.139,0.35,0.235,0.516
							c0.213,0.045,0.407-0.111,0.559-0.25c-0.013-0.168-0.104-0.301-0.116-0.469c-0.132-0.244-0.192-0.525-0.332-0.77
							c-0.048-0.207-0.104-0.418-0.213-0.605c-0.04-0.213-0.163-0.393-0.242-0.588C17.835,9.571,17.809,9.485,17.8,9.39
							c-0.104-0.226-0.185-0.451-0.268-0.673C17.274,8.798,17.023,8.89,16.773,8.99L16.773,8.99z M17.821,8.627
							c0.067,0.134,0.154,0.256,0.159,0.414c0.11,0.043-0.008,0.176,0.096,0.215c0.049,0.133,0.083,0.271,0.135,0.4
							c0.026,0.067,0.06,0.129,0.101,0.189c0.007,0.201,0.145,0.348,0.165,0.553c0.097,0.025,0.021,0.133,0.069,0.18l0.558,1.379
							c0.195,0.111,0.387-0.1,0.602-0.1c0.146-0.049,0.07-0.236,0.064-0.336c-0.174-0.604-0.265-1.26-0.42-1.863
							c-0.039-0.144-0.079-0.284-0.126-0.421c-0.004-0.329-0.126-0.609-0.197-0.909C18.618,8.408,18.216,8.507,17.821,8.627
							L17.821,8.627z M20.719,8.315c-0.043-0.057-0.035-0.133-0.032-0.208c0-0.045,0-0.088-0.018-0.127
							c-0.082-0.572-0.102-1.201-0.231-1.842c0.054-0.03-0.035-0.066,0.02-0.1c0.063-0.008,0.131-0.063,0.197-0.016
							c0.135,0.154,0.002,0.422,0.113,0.588c0.045,0.49,0.101,0.98,0.154,1.481c0.051,0.481,0.102,0.97,0.142,1.468l0.006,0.099
							c0.029,0.526,0.155,1.073,0.213,1.577c0.111,0.156,0.277,0,0.415,0l0.083-0.082c-0.024-0.508-0.034-0.996-0.053-1.495
							c-0.017-0.415-0.04-0.839-0.083-1.286c-0.006-0.094,0-0.195,0.002-0.299c-0.261-0.001-0.493,0.006-0.725,0.019
							c-0.054-0.501-0.109-0.991-0.154-1.481c-0.111-0.166,0.021-0.434-0.113-0.588c-0.066-0.048-0.134,0.008-0.197,0.016
							c-0.055,0.033,0.034,0.069-0.02,0.1c0.13,0.641,0.149,1.27,0.231,1.842c0.018,0.039,0.018,0.082,0.018,0.127
							c-0.463,0.031-0.917,0.087-1.366,0.166c0.034,0.125,0.068,0.251,0.058,0.397c0.063,0.161,0.067,0.343,0.129,0.503
							c0.045,0.16,0.085,0.32,0.119,0.484c0.081,0.389,0.138,0.789,0.19,1.193c0.099,0.244,0.099,0.525,0.187,0.77
							c0.049,0.105,0.167,0.092,0.249,0.07c0.117-0.07,0.264-0.07,0.397-0.119c0.122-0.061,0.247-0.104,0.363-0.182
							c-0.081-0.584-0.082-1.154-0.17-1.732l-0.03-0.169C20.835,9.086,20.652,8.687,20.719,8.315L20.719,8.315z M21.907,8.078
							c0.021,0.398,0.031,0.805,0.021,1.219c0.015,0.119,0.026,0.241,0.035,0.363c0.032,0.459,0.024,0.93,0.067,1.361
							c0.146,0.197,0.428,0.043,0.643,0.063c0.104-0.02,0.152-0.006,0.2-0.109c0.056-0.369,0.073-0.838,0.08-1.314
							c0.008-0.489,0.006-0.986,0.021-1.391V8.144C22.622,8.108,22.268,8.086,21.907,8.078L21.907,8.078z M23.266,8.177
							c-0.016,0.518-0.049,0.994-0.071,1.482c-0.017,0.385-0.029,0.779-0.024,1.209c0.097,0.271,0.477,0.113,0.697,0.135
							c0.249-0.314,0.203-0.783,0.3-1.174c0.024-0.053,0.031-0.111,0.037-0.168c0.007-0.086,0.017-0.17,0.08-0.23
							c0.036-0.253,0.099-0.482,0.099-0.741c0.069-0.097,0.064-0.204,0.069-0.308C24.061,8.294,23.667,8.228,23.266,8.177
							L23.266,8.177z M24.707,8.44c-0.111,0.396-0.207,0.767-0.243,1.173c-0.092,0.188-0.076,0.357-0.145,0.502
							c0.034,0.322-0.153,0.574-0.085,0.889l0.097,0.082l0.852,0.121c0.084-0.078,0.133-0.189,0.133-0.316
							c0.123-0.264,0.2-0.543,0.332-0.809c-0.028-0.098,0.09-0.133,0.047-0.252c0.022-0.056,0.047-0.111,0.071-0.167
							c0.05-0.111,0.095-0.224,0.11-0.349c0.104-0.14,0.109-0.316,0.147-0.483C25.595,8.677,25.155,8.548,24.707,8.44L24.707,8.44z
							 M26.784,9.664c0.047-0.158,0.151-0.293,0.19-0.453c0.091-0.303,0.271-0.496,0.298-0.75c0.048-0.033,0.056-0.083,0.048-0.14
							c0.132-0.167,0.168-0.397,0.217-0.585c0.117-0.146,0.164-0.357,0.235-0.531c0.046-0.084,0.109-0.182,0.131-0.287
							c0.063-0.063,0.166-0.006,0.235,0.016c0.026,0.025,0.013,0.084,0.013,0.117c-0.082,0.119-0.099,0.267-0.18,0.385
							c0.021,0.105-0.069,0.168-0.082,0.252c-0.146,0.257-0.235,0.545-0.368,0.789c0,0.119-0.083,0.195-0.098,0.301
							c-0.021,0.061-0.097,0.132-0.118,0.201c-0.071,0.096-0.084,0.217-0.128,0.326c-0.023,0.057-0.052,0.114-0.107,0.163
							C27.06,9.535,27.042,9.6,27.019,9.664c-0.04,0.124-0.098,0.242-0.163,0.355c-0.047,0.232-0.158,0.455-0.234,0.672
							c0,0.146-0.14,0.174-0.097,0.285c-0.139,0.154-0.209,0.355-0.202,0.551c0.187,0.205,0.466,0.189,0.664,0.352
							c0.067,0.027,0.104,0.027,0.166,0c0.083-0.168,0.243-0.336,0.284-0.539c0.049-0.066,0.103-0.125,0.117-0.23
							c0.083-0.119,0.11-0.236,0.216-0.355c0.026-0.061,0.075-0.146,0.118-0.215c0.082-0.197,0.22-0.42,0.331-0.602
							c-0.008-0.031-0.003-0.061,0.01-0.086c-0.34-0.199-0.69-0.382-1.051-0.547c0.044-0.109,0.057-0.23,0.128-0.326
							c0.021-0.069,0.098-0.141,0.118-0.201c0.015-0.105,0.098-0.182,0.098-0.301c0.133-0.244,0.222-0.532,0.368-0.789
							c0.013-0.084,0.103-0.146,0.082-0.252c0.081-0.118,0.098-0.266,0.18-0.385c0-0.033,0.014-0.092-0.013-0.117
							c-0.069-0.021-0.173-0.078-0.235-0.016c-0.021,0.105-0.085,0.203-0.131,0.287c-0.071,0.174-0.118,0.385-0.235,0.531
							c-0.049,0.188-0.085,0.418-0.217,0.585c0.008,0.057,0,0.106-0.048,0.14c-0.027,0.254-0.207,0.447-0.284,0.67
							c-0.232-0.019-0.458-0.111-0.683-0.197c-0.03,0.073-0.045,0.156-0.028,0.246c-0.071,0.141-0.117,0.294-0.154,0.455
							c-0.091,0.238-0.169,0.479-0.248,0.699c-0.09,0.264-0.146,0.48-0.216,0.752c-0.036,0.066-0.069,0.148-0.036,0.225
							c0.1,0.049,0.229,0.148,0.367,0.086c0.175-0.168,0.188-0.391,0.32-0.588c-0.016-0.131,0.124-0.188,0.116-0.32
							c0.132-0.217,0.188-0.49,0.332-0.684C26.761,9.754,26.77,9.707,26.784,9.664L26.784,9.664z M24.723,5.669
							c2.316-0.326,4.704-3.371,5.17-4.289c-0.313,0.982-0.761,4.842,0.604,6.703c2.267,0.594,5.624-1.297,6.403-1.963
							c-0.662,0.783-2.537,4.178-1.98,6.424c1.868,1.426,5.688,0.979,6.657,0.664c-0.907,0.469-3.924,2.877-4.263,5.17
							c1.188,2.039,4.886,3.105,5.903,3.189c-1.018,0.084-4.719,1.141-5.896,3.127c0.322,2.344,3.337,4.758,4.243,5.227
							c-0.97-0.314-4.789-0.77-6.63,0.611c-0.59,2.291,1.282,5.686,1.939,6.473c-0.775-0.668-4.133-2.564-6.355-2
							c-1.41,1.885-0.969,5.746-0.656,6.73c-0.466-0.92-2.849-3.969-5.116-4.309c-2.019,1.195-3.072,4.936-3.154,5.961
							c-0.081-1.025-1.129-4.766-3.1-5.957c-2.314,0.328-4.702,3.373-5.17,4.291c0.313-0.982,0.763-4.842-0.604-6.703
							c-2.264-0.596-5.624,1.295-6.404,1.961c0.662-0.783,2.539-4.178,1.981-6.426c-1.867-1.426-5.687-0.979-6.658-0.666
							c0.907-0.467,3.927-2.875,4.262-5.166c-1.183-2.041-4.884-3.105-5.9-3.189c1.017-0.084,4.719-1.141,5.896-3.127
							c-0.322-2.344-3.337-4.758-4.243-5.23c0.971,0.318,4.789,0.77,6.632-0.611c0.59-2.285-1.282-5.682-1.942-6.468
							c0.778,0.667,4.134,2.563,6.357,1.999c1.412-1.887,0.968-5.746,0.658-6.729c0.466,0.918,2.876,3.955,5.143,4.293
							c1.978-1.182,3.044-4.922,3.129-5.947C21.708,0.738,22.756,4.48,24.723,5.669L24.723,5.669z"/>
					</g>
					<path id="Fill-7_1_" d="M159.682,19.803c0.02,0.279,0.059,0.555,0.135,0.813c0.332,1.266,1.271,2.217,2.463,2.553
						c2.447,0.676,4.68-1.141,4.604-3.674c-0.096-2.451-2.307-4.096-4.656-3.385C160.643,16.582,159.604,18.084,159.682,19.803
						 M168.997,19.715l-0.004,3.262h0.666c0.566,0.002,0.996,0.398,1.016,0.951c0.039,0.633-0.373,1.068-1.057,1.068l-1.508-0.002
						c-0.43,0-0.488,0-0.605-0.082c-0.334-0.156-0.432-0.316-0.449-0.711l-0.039-1.088c-0.883,1.66-3.035,2.609-5.461,1.973
						c-2.855-0.732-4.596-3.662-3.848-6.826c0.471-1.957,1.959-3.498,4.014-4.09C165.616,13.086,168.999,15.777,168.997,19.715
						 M153.547,11.592c-0.02-0.354,0.117-0.693,0.354-0.949c0.508-0.571,1.369-0.592,1.918-0.057
						c0.547,0.533,0.566,1.424,0.02,1.957c-0.531,0.533-1.371,0.514-1.902-0.002C153.682,12.285,153.547,11.949,153.547,11.592
						 M153.506,14.242l1.506,0.002c0.881,0,1.254,0.377,1.232,1.227l-0.008,8.148v0.316c-0.078,0.791-0.352,1.049-1.135,1.049
						l-1.666-0.002c-0.486,0-0.84-0.238-0.996-0.615c-0.252-0.574,0.039-1.188,0.549-1.344c0.135-0.039,0.254-0.061,0.391-0.061
						l0.705,0.002l0.006-6.703l-0.646-0.021c-0.135-0.002-0.293-0.02-0.43-0.041c-0.508-0.119-0.84-0.771-0.566-1.365
						C152.604,14.459,152.958,14.242,153.506,14.242 M141.897,19.828c0.174,2.336,2.229,3.82,4.418,3.229
						c1.215-0.316,2.135-1.223,2.451-2.432c0.664-2.488-0.979-4.688-3.463-4.648c-1.703,0.018-3.051,1.184-3.35,2.904
						C141.897,19.195,141.879,19.514,141.897,19.828 M148.965,16.059l0.002-3.383l-0.725,0.02c-0.117,0-0.215,0-0.334-0.02
						c-0.604-0.117-0.938-0.811-0.623-1.385c0.178-0.336,0.527-0.555,1.037-0.555l1.545,0.002c0.941,0,1.252,0.338,1.252,1.348
						l-0.006,6.979c-0.004,3.797-2.215,6.15-5.68,6.205c-3.23,0.039-5.596-2.199-5.748-5.383c-0.137-2.77,1.51-5.063,3.916-5.752
						C145.772,13.525,147.907,14.357,148.965,16.059 M125.952,19.6c0,1.025,0.354,1.918,0.979,2.59
						c1.447,1.545,3.676,1.547,5.125,0.004c0.629-0.67,0.98-1.563,0.98-2.588c0.002-1.031-0.348-1.939-0.977-2.592
						c-1.445-1.545-3.695-1.547-5.125-0.006C126.309,17.68,125.954,18.568,125.952,19.6 M123.721,19.598
						c0.004-3.799,3.354-6.465,7.326-5.492c2.523,0.615,4.223,2.791,4.221,5.502c-0.023,3.773-3.371,6.443-7.324,5.471
						C125.422,24.463,123.719,22.285,123.721,19.598 M113.256,19.805c0.174,2.334,2.229,3.82,4.416,3.227
						c1.215-0.316,2.135-1.223,2.449-2.43c0.666-2.49-0.975-4.688-3.459-4.65c-1.701,0.02-3.055,1.184-3.348,2.906
						C113.256,19.172,113.235,19.49,113.256,19.805 M120.321,16.033l0.004-3.381L119.6,12.67c-0.119,0-0.215,0-0.336-0.018
						c-0.602-0.119-0.938-0.813-0.621-1.385c0.176-0.338,0.527-0.557,1.037-0.557l1.545,0.002c0.939,0.002,1.252,0.34,1.252,1.348
						l-0.006,6.979c-0.004,3.799-2.217,6.15-5.678,6.207c-3.229,0.037-5.596-2.199-5.752-5.383c-0.131-2.77,1.514-5.064,3.92-5.754
						C117.133,13.5,119.264,14.332,120.321,16.033 M96.467,19.75c0.018,0.277,0.057,0.553,0.135,0.811
						c0.334,1.268,1.271,2.217,2.463,2.555c2.445,0.674,4.68-1.143,4.604-3.674c-0.098-2.453-2.307-4.096-4.656-3.387
						C97.428,16.527,96.389,18.029,96.467,19.75 M105.782,19.662l-0.004,3.26l0.666,0.002c0.566,0,0.996,0.398,1.016,0.949
						c0.039,0.635-0.373,1.07-1.057,1.068h-1.506c-0.432-0.002-0.49-0.002-0.609-0.084c-0.332-0.156-0.43-0.316-0.447-0.711
						l-0.039-1.088c-0.881,1.662-3.035,2.611-5.463,1.975c-2.855-0.732-4.594-3.664-3.848-6.826
						c0.473-1.959,1.961-3.498,4.014-4.092C102.403,13.031,105.784,15.725,105.782,19.662 M84.69,20.293l0.006-8.424
						c0-0.672,0.195-1.047,0.547-1.264c0.471-0.256,1.078-0.139,1.369,0.277c0.139,0.219,0.236,0.516,0.236,0.93l-0.002,2.373
						l5.4,0.004c0.451,0.002,0.725,0.102,0.9,0.219c0.352,0.258,0.469,0.791,0.232,1.207c-0.176,0.316-0.49,0.494-1.135,0.494
						l-5.398-0.006l-0.004,4.33c-0.023,1.684,0.643,2.553,1.895,2.752c1.291,0.197,2.268-0.494,2.76-2.135
						c0.195-0.672,0.352-0.889,0.746-1.066c0.566-0.297,1.152,0.002,1.311,0.613c0.096,0.416,0.018,1.248-0.375,2.115
						c-0.707,1.523-2.154,2.473-3.936,2.51C86.387,25.26,84.686,23.42,84.69,20.293 M62.605,19.721
						c0.02,0.277,0.059,0.555,0.137,0.813c0.33,1.266,1.271,2.217,2.463,2.553c2.445,0.674,4.678-1.143,4.602-3.674
						c-0.098-2.453-2.307-4.096-4.654-3.387C63.568,16.5,62.529,18,62.605,19.721 M71.919,19.633l-0.004,3.262h0.666
						c0.568,0,0.998,0.398,1.018,0.949c0.037,0.635-0.373,1.07-1.057,1.068h-1.508c-0.43,0-0.488,0-0.607-0.084
						c-0.33-0.154-0.428-0.316-0.447-0.711l-0.041-1.088c-0.879,1.662-3.033,2.611-5.461,1.975
						c-2.855-0.732-4.594-3.662-3.848-6.826c0.473-1.957,1.961-3.498,4.018-4.09C68.539,13.002,71.921,15.695,71.919,19.633
						 M50.228,19.494c0.017,2.551,2.168,4.234,4.594,3.563c1.508-0.412,2.547-1.797,2.568-3.498
						c0.021-1.779-1.076-3.205-2.699-3.623C52.305,15.363,50.229,17.023,50.228,19.494 M48.085,29.906l0.009-10.115v-0.477
						l0.022-0.316c0.196-3.381,3.409-5.828,7.067-4.998c2.055,0.479,3.617,1.939,4.164,3.881c0.898,3.244-0.807,6.287-3.803,7.096
						c-2.092,0.572-3.991-0.082-5.163-1.586c-0.041-0.061-0.1-0.141-0.157-0.197l-0.005,5.846h0.704c0.138,0,0.274,0.02,0.392,0.059
						c0.547,0.158,0.841,0.832,0.567,1.422c-0.178,0.338-0.531,0.555-1.037,0.555l-1.469-0.002c-0.548,0-0.763-0.078-0.998-0.295
						C48.184,30.557,48.085,30.303,48.085,29.906 M77.681,14.178l4.234,0.004c0.978,0,1.288,0.297,1.288,1.148l-0.002,1.482
						c0,0.158-0.156,0.316-0.625,0.453c-0.921,0.238-1.349-0.117-1.349-0.416v-0.713l-3.332-0.002
						c-0.922-0.002-1.482,0.24-1.578,0.854c-0.139,0.947,0.254,1.5,2.184,1.502c3.506,0.002,4.935,1.129,4.991,3.109
						c0.057,1.957-1.294,3.322-3.427,3.32l-4.41-0.004c-1.074-0.002-1.408-0.34-1.408-1.326l0.002-1.367
						c0-0.217,0.139-0.355,0.412-0.414c1.193-0.178,1.545,0.1,1.545,0.377v0.771l3.451,0.004c1.035,0,1.564-0.414,1.662-1.227
						c0.121-1.066-0.777-1.58-3.1-1.582c-3.676-0.004-4.191-1.521-3.906-3.645C74.582,14.951,75.804,14.176,77.681,14.178"/>
				</g>
			</g>
		</g>
	</g>
</g>
</svg>
