<?xml version="1.0" encoding="utf-8"?>
<!-- Generator: Adobe Illustrator 16.0.0, SVG Export Plug-In . SVG Version: 6.00 Build 0)  -->
<!DOCTYPE svg PUBLIC "-//W3C//DTD SVG 1.1//EN" "http://www.w3.org/Graphics/SVG/1.1/DTD/svg11.dtd">
<svg version="1.1" id="Layer_1" xmlns="http://www.w3.org/2000/svg" xmlns:xlink="http://www.w3.org/1999/xlink" x="0px" y="0px"
	 width="186.999px" height="44.001px" viewBox="0 0 186.999 44.001" enable-background="new 0 0 186.999 44.001"
	 xml:space="preserve">
<g id="Group-8_2_" transform="translate(108.000000, 3063.000000)">
	<g>
		<path fill-rule="evenodd" clip-rule="evenodd" fill="#FFFFFF" d="M1.857-3029.619c0-2.365,0-4.641,0-6.928
			c-0.908,0-1.789,0-2.664,0c0,5.734,0,11.436,0,17.143c0.893,0,1.754,0,2.654,0c0-0.465,0-0.914,0-1.326
			c0.426,0.355,0.809,0.771,1.273,1.047c2.321,1.373,5.623,0.338,6.92-2.141c0.795-1.518,0.95-3.131,0.68-4.799
			c-0.225-1.385-0.791-2.594-1.879-3.525C7.129-3031.615,3.594-3031.8,1.857-3029.619z"/>
		<path fill-rule="evenodd" clip-rule="evenodd" fill="#FFFFFF" d="M-15.497-3049.852c-0.837,1.699-2.099,2.332-3.739,1.903
			c-1.341-0.351-2.335-1.593-2.271-2.88c2.792,0,5.585,0,8.403,0c0.148-1.48-0.007-2.868-0.666-4.183
			c-1.548-3.093-6.341-3.7-8.848-1.02c-1.678,1.794-2.051,3.947-1.454,6.255c1.219,4.709,6.789,5.389,9.438,2.966
			c0.687-0.629,1.174-1.383,1.442-2.311C-13.976-3049.37-14.728-3049.608-15.497-3049.852z"/>
		<path fill-rule="evenodd" clip-rule="evenodd" fill="#FFFFFF" d="M68.205-3050.825c0.15-1.479-0.004-2.867-0.66-4.181
			c-1.557-3.115-6.381-3.702-8.871-1.004c-1.669,1.807-2.035,3.96-1.426,6.262c1.241,4.699,6.795,5.344,9.424,2.941
			c0.688-0.629,1.178-1.382,1.447-2.315c-0.789-0.25-1.549-0.489-2.303-0.728c-0.869,1.705-2.104,2.325-3.736,1.902
			c-1.339-0.348-2.325-1.574-2.281-2.878C62.59-3050.825,65.383-3050.825,68.205-3050.825z"/>
		<path fill-rule="evenodd" clip-rule="evenodd" fill="#FFFFFF" d="M36.746-3045.819c0-1.256,0.004-2.455,0-3.653
			c-0.006-1.449,0.01-2.898-0.034-4.346c-0.051-1.686-1.04-2.987-2.631-3.553c-0.878-0.312-1.787-0.402-2.708-0.334
			c-1.314,0.096-2.484,0.54-3.396,1.536c-0.573,0.627-0.922,1.358-1.01,2.23c0.436,0.103,0.843,0.201,1.252,0.293
			c0.416,0.093,0.833,0.18,1.232,0.266c0.088-0.281,0.139-0.525,0.236-0.75c0.455-1.048,1.592-1.537,2.877-1.249
			c0.751,0.168,1.281,0.566,1.428,1.368c0.115,0.637-0.134,1.011-0.766,1.113c-0.672,0.108-1.352,0.179-2.018,0.313
			c-0.844,0.17-1.728,0.273-2.509,0.606c-2.3,0.981-2.676,4.044-0.741,5.627c1.752,1.434,4.63,1.131,6.045-0.636
			c0.04-0.051,0.088-0.095,0.153-0.164c0.036,0.391,0.053,0.736,0.108,1.076c0.016,0.095,0.145,0.242,0.225,0.244
			C35.268-3045.812,36.046-3045.819,36.746-3045.819z"/>
		<path fill-rule="evenodd" clip-rule="evenodd" fill="#FFFFFF" d="M29.222-3026.955c0.073-0.248,0.117-0.48,0.209-0.691
			c0.093-0.213,0.208-0.426,0.354-0.604c0.633-0.768,1.885-1.014,2.938-0.598c0.59,0.232,0.943,0.656,1.045,1.287
			c0.098,0.613-0.117,0.947-0.736,1.063c-0.607,0.113-1.226,0.172-1.832,0.295c-0.905,0.182-1.854,0.275-2.696,0.625
			c-2.297,0.949-2.728,3.914-0.87,5.572c1.651,1.477,4.612,1.248,6.061-0.469c0.071-0.084,0.143-0.168,0.236-0.277
			c0.037,0.422,0.06,0.781,0.109,1.135c0.011,0.084,0.112,0.219,0.174,0.221c0.801,0.014,1.602,0.01,2.373,0.01
			c-0.03-0.973-0.076-1.898-0.084-2.824c-0.014-1.66,0.004-3.32-0.006-4.98c-0.012-1.91-1.096-3.328-2.934-3.861
			c-0.905-0.262-1.832-0.322-2.759-0.203c-1.626,0.211-2.942,0.934-3.702,2.453c-0.193,0.385-0.282,0.824-0.43,1.27
			C27.585-3027.326,28.4-3027.14,29.222-3026.955z"/>
		<path fill-rule="evenodd" clip-rule="evenodd" fill="#FFFFFF" d="M24.557-3025.648c-0.057-1.898-0.941-3.828-3.094-4.945
			c-2.084-1.082-4.231-1.033-6.217,0.248c-2.112,1.361-2.845,3.436-2.63,5.873c0.33,3.742,3.612,6.115,7.388,5.271
			C22.813-3019.83,24.558-3022.173,24.557-3025.648z"/>
		<path fill-rule="evenodd" clip-rule="evenodd" fill="#FFFFFF" d="M5.244-3045.836c-0.039-0.459-0.104-0.877-0.105-1.296
			c-0.016-2.142-0.01-4.284-0.019-6.426c-0.008-1.981-1.156-3.457-3.075-3.941c-0.37-0.093-0.752-0.156-1.133-0.189
			c-1.574-0.135-3.039,0.144-4.258,1.229c-0.744,0.663-1.195,1.491-1.298,2.528c0.851,0.189,1.673,0.373,2.496,0.557
			c0.361-1.833,1.651-2.204,2.933-2.038c0.9,0.117,1.496,0.664,1.598,1.453c0.082,0.638-0.15,0.961-0.785,1.064
			c-0.659,0.107-1.324,0.181-1.98,0.307c-0.81,0.157-1.652,0.251-2.411,0.551c-2.435,0.963-2.628,3.776-1.253,5.313
			c1.572,1.759,4.816,1.69,6.328-0.125c0.079-0.095,0.16-0.188,0.27-0.316c0.043,0.489,0.078,0.903,0.116,1.33
			C3.551-3045.836,4.388-3045.836,5.244-3045.836z"/>
		<path fill-rule="evenodd" clip-rule="evenodd" fill="#FFFFFF" d="M-72.819-3019.384c-0.03-0.885-0.077-1.736-0.083-2.59
			c-0.013-1.721,0.005-3.441-0.006-5.162c-0.013-1.959-1.093-3.365-2.97-3.91c-0.858-0.25-1.737-0.291-2.613-0.205
			c-1.384,0.137-2.577,0.686-3.434,1.826c-0.421,0.561-0.696,1.186-0.74,1.928c0.847,0.189,1.668,0.375,2.49,0.559
			c0.339-1.469,1.172-2.135,2.55-2.082c1.162,0.045,1.86,0.588,1.994,1.551c0.074,0.529-0.137,0.857-0.671,0.973
			c-0.434,0.094-0.879,0.135-1.316,0.219c-1.019,0.191-2.066,0.299-3.045,0.615c-1.296,0.422-2.104,1.359-2.23,2.775
			c-0.127,1.418,0.431,2.514,1.622,3.27c1.751,1.111,4.317,0.682,5.622-0.916c0.05-0.061,0.103-0.119,0.17-0.197
			c0.045,0.479,0.087,0.914,0.128,1.348C-74.465-3019.384-73.638-3019.384-72.819-3019.384z"/>
		<path fill-rule="evenodd" clip-rule="evenodd" fill="#FFFFFF" d="M-27.462-3019.404c0-3.852,0-7.682,0-11.525
			c-0.974,0-1.87,0-2.794,0c0,0.369,0,0.713,0,1.059c0,1.943,0.012,3.889-0.004,5.832c-0.012,1.443-0.809,2.354-2.132,2.492
			c-1.295,0.137-2.24-0.545-2.511-1.834c-0.056-0.264-0.068-0.541-0.069-0.811c-0.005-2.105-0.002-4.211-0.004-6.316
			c0-0.143-0.013-0.285-0.019-0.414c-0.943,0-1.84,0-2.756,0c0,0.17,0,0.305,0,0.439c0,2.23-0.003,4.459,0.003,6.688
			c0,0.334,0.021,0.67,0.063,1c0.248,1.941,1.568,3.361,3.497,3.664c1.562,0.246,2.973-0.078,4.05-1.406
			c0.039,0.4,0.073,0.762,0.108,1.133C-29.135-3019.404-28.273-3019.404-27.462-3019.404z"/>
		<path fill-rule="evenodd" clip-rule="evenodd" fill="#FFFFFF" d="M-12.357-3022.544c0.032,0.705,0.412,1.496,0.99,2.1
			c1.625,1.689,4.927,1.918,6.77,0.467c1.684-1.326,1.824-3.805,0.285-5.211c-0.768-0.701-1.727-0.98-2.723-1.168
			c-0.498-0.094-1-0.18-1.487-0.316c-0.508-0.141-0.879-0.453-0.94-1.023c-0.053-0.5,0.22-0.953,0.736-1.223
			c0.475-0.246,0.979-0.252,1.484-0.146c0.892,0.188,1.361,0.791,1.555,1.666c0.786-0.227,1.553-0.447,2.325-0.67
			c-0.124-0.691-0.397-1.266-0.823-1.764c-1.629-1.904-5.15-1.99-6.877-0.17c-1.191,1.254-1.359,3.076-0.395,4.342
			c0.625,0.82,1.494,1.232,2.471,1.459c0.734,0.17,1.477,0.314,2.195,0.533c0.582,0.178,0.871,0.611,0.873,1.117
			c0,0.539-0.328,0.969-0.907,1.184c-1.385,0.518-2.798-0.234-3.132-1.664c-0.011-0.047-0.029-0.09-0.052-0.16
			C-10.793-3022.976-11.565-3022.763-12.357-3022.544z"/>
		<path fill-rule="evenodd" clip-rule="evenodd" fill="#FFFFFF" d="M7.408-3048.954c0.07,0.631,0.309,1.139,0.629,1.616
			c1.545,2.294,5.547,2.407,7.289,0.828c1.454-1.317,1.646-3.454,0.389-4.856c-0.66-0.738-1.539-1.102-2.488-1.305
			c-0.605-0.13-1.215-0.239-1.818-0.374c-0.656-0.147-1.057-0.563-1.088-1.104c-0.031-0.562,0.324-1.04,0.948-1.273
			c1.159-0.434,2.401,0.171,2.763,1.343c0.024,0.078,0.057,0.153,0.094,0.257c0.779-0.223,1.533-0.439,2.302-0.66
			c-0.142-0.762-0.465-1.39-0.968-1.924c-0.781-0.829-1.777-1.188-2.882-1.287c-1.597-0.143-3.001,0.267-4.065,1.527
			c-1.35,1.597-0.977,3.904,0.824,4.96c0.492,0.288,1.067,0.447,1.621,0.611c0.686,0.203,1.396,0.32,2.081,0.529
			c0.517,0.157,0.823,0.546,0.836,1.106c0.013,0.507-0.347,0.961-0.886,1.167c-1.377,0.528-2.791-0.208-3.148-1.638
			c-0.014-0.057-0.04-0.112-0.065-0.18C8.985-3049.392,8.214-3049.178,7.408-3048.954z"/>
		<path fill-rule="evenodd" clip-rule="evenodd" fill="#FFFFFF" d="M55.277-3048.194c-0.342,0.022-0.646,0.056-0.951,0.059
			c-1.047,0.01-1.476-0.415-1.477-1.451c-0.001-1.634,0-3.268,0-4.902c0-0.13,0-0.261,0-0.422c0.82,0,1.584,0,2.354,0
			c0-0.828,0-1.625,0-2.471c-0.793,0-1.564,0-2.367,0c0-1.196,0-2.342,0-3.497c-0.841,0-1.648,0-2.518,0
			c0,0.694,0.029,1.361-0.008,2.025c-0.045,0.789-0.528,1.307-1.305,1.44c-0.326,0.056-0.662,0.051-1.016,0.076
			c0,0.804,0,1.603,0,2.441c0.703,0,1.39,0,2.109,0c0,0.171,0,0.305,0,0.438c0,1.795-0.008,3.59,0.003,5.385
			c0.005,0.916,0.228,1.766,0.889,2.447c0.89,0.917,2.895,1.287,4.104,0.753c0.078-0.035,0.172-0.151,0.174-0.231
			C55.283-3046.795,55.277-3047.486,55.277-3048.194z"/>
		<path fill-rule="evenodd" clip-rule="evenodd" fill="#FFFFFF" d="M-21.209-3019.404c0-5.723,0-11.426,0-17.152
			c-0.906,0-1.804,0-2.711,0c0,5.729,0,11.438,0,17.152C-23.001-3019.404-22.115-3019.404-21.209-3019.404z"/>
		<path fill-rule="evenodd" clip-rule="evenodd" fill="#FFFFFF" d="M42.271-3045.833c0-0.189-0.001-0.336,0-0.482
			c0.003-1.844-0.029-3.688,0.021-5.531c0.045-1.618,0.956-2.624,2.466-2.805c0.482-0.058,0.978-0.009,1.5-0.009
			c0-0.871,0.007-1.723-0.011-2.574c-0.002-0.083-0.15-0.229-0.24-0.236c-1.459-0.124-2.722,0.241-3.603,1.507
			c-0.05,0.072-0.107,0.139-0.22,0.284c0-0.613,0-1.128,0-1.663c-0.903,0-1.775,0-2.66,0c0,3.843,0,7.67,0,11.51
			C40.442-3045.833,41.33-3045.833,42.271-3045.833z"/>
		<path fill-rule="evenodd" clip-rule="evenodd" fill="#FFFFFF" d="M-14.933-3030.927c-0.908,0-1.791,0-2.671,0
			c0,3.857,0,7.686,0,11.523c0.904,0,1.777,0,2.671,0C-14.933-3023.255-14.933-3027.087-14.933-3030.927z"/>
		<path fill-rule="evenodd" clip-rule="evenodd" fill="#FFFFFF" d="M24.904-3052.856c-2.232,0-4.441,0-6.66,0
			c0,0.818,0,1.612,0,2.401c2.238,0,4.447,0,6.66,0C24.904-3051.271,24.904-3052.058,24.904-3052.856z"/>
		<path fill-rule="evenodd" clip-rule="evenodd" fill="#FFFFFF" d="M-14.488-3034.974c0.007-1.029-0.77-1.82-1.791-1.826
			c-0.98-0.006-1.778,0.775-1.789,1.752c-0.011,1.033,0.763,1.84,1.771,1.84C-15.277-3033.207-14.495-3033.972-14.488-3034.974z"/>
		<path fill-rule="evenodd" clip-rule="evenodd" d="M-35.014-3063c0.004,2.006,0.008,4.011,0.012,6.017c0,0.284,0,0.569,0,0.857
			c0.036,0,0.07,0.01,0.08-0.001c1.167-1.385,2.712-1.719,4.398-1.474c2.354,0.342,3.854,1.863,4.322,4.36
			c0.37,1.972,0.168,3.876-1.001,5.581c-1.599,2.331-4.666,2.57-6.378,1.647c-0.527-0.284-0.967-0.73-1.443-1.1
			c0,0.375,0,0.813,0,1.271c-0.913,0-1.786,0-2.702,0c0-0.157,0-0.303,0-0.448c0-5.423,0-10.846,0.001-16.269
			c0-0.147,0.023-0.294,0.036-0.441C-36.797-3063-35.906-3063-35.014-3063z M-35.065-3051.613c0.069,0.426,0.107,0.859,0.211,1.275
			c0.341,1.367,1.462,2.309,2.761,2.351c1.477,0.047,2.583-0.736,3.036-2.171c0.322-1.021,0.313-2.052-0.038-3.062
			c-0.707-2.039-3.316-2.682-4.885-1.202C-34.781-3053.667-35.01-3052.678-35.065-3051.613z"/>
		<path fill-rule="evenodd" clip-rule="evenodd" d="M-105.25-3063c-0.012,0.097-0.035,0.194-0.035,0.292
			c-0.002,2.079-0.001,4.158,0,6.237c0,0.094,0.015,0.188,0.022,0.284c0.164-0.145,0.314-0.28,0.467-0.414
			c0.998-0.878,2.188-1.167,3.479-1.094c3.005,0.17,4.566,2.31,4.906,4.865c0.208,1.567,0.039,3.087-0.693,4.511
			c-1.537,2.99-5.09,3.303-6.962,2.172c-0.445-0.269-0.815-0.664-1.229-1.008c0,0.393,0,0.827,0,1.323c-0.932,0-1.818,0-2.704,0
			c0-5.723,0-11.446,0-17.169C-107.083-3063-106.167-3063-105.25-3063z M-99.025-3051.637c-0.027-0.009-0.054-0.019-0.081-0.028
			c-0.042-0.355-0.063-0.715-0.13-1.065c-0.291-1.51-1.328-2.412-2.876-2.52c-1.292-0.09-2.495,0.726-2.948,2.047
			c-0.392,1.142-0.375,2.295,0.124,3.401c0.506,1.122,1.39,1.749,2.642,1.775c1.276,0.027,2.239-0.532,2.751-1.699
			C-99.28-3050.324-99.192-3050.998-99.025-3051.637z"/>
		<path fill-rule="evenodd" clip-rule="evenodd" d="M-108-3039.662c0.161,0.004,0.322,0.012,0.482,0.012c11.346,0,22.691,0,34.037,0
			c0.16,0,0.321,0,0.516,0c0,0.813,0,1.607,0,2.439c-11.682,0-23.358,0-35.035,0C-108-3038.027-108-3038.845-108-3039.662z"/>
		<path fill-rule="evenodd" clip-rule="evenodd" d="M78.999-3048.507c-0.115,0.297-0.204,0.607-0.35,0.889
			c-0.666,1.285-1.776,1.93-3.173,2.101c-1.635,0.2-3.168-0.048-4.43-1.214c-0.634-0.585-1.041-1.307-1.16-2.22
			c0.792-0.222,1.573-0.44,2.347-0.656c0.03,0.029,0.06,0.043,0.062,0.061c0.251,1.69,1.891,2.129,3.063,1.786
			c0.612-0.18,0.965-0.612,0.979-1.161c0.014-0.574-0.276-1-0.92-1.193c-0.662-0.198-1.345-0.327-2.02-0.478
			c-0.784-0.175-1.523-0.45-2.127-0.997c-1.25-1.129-1.432-2.942-0.461-4.345c1.736-2.509,5.877-2.198,7.352-0.222
			c0.379,0.507,0.654,1.097,0.721,1.681c-0.751,0.215-1.508,0.432-2.282,0.653c-0.069-0.195-0.122-0.369-0.192-0.536
			c-0.461-1.106-2.031-1.567-3.021-0.884c-0.391,0.269-0.633,0.633-0.58,1.129c0.055,0.513,0.37,0.849,0.84,0.984
			c0.568,0.165,1.156,0.267,1.736,0.383c1.035,0.208,2.002,0.543,2.765,1.326c0.437,0.448,0.658,1.001,0.854,1.573
			C78.999-3049.398,78.999-3048.953,78.999-3048.507z"/>
		<path fill-rule="evenodd" clip-rule="evenodd" d="M-7.662-3063c0,5.714,0,11.428,0,17.161c-0.933,0-1.828,0-2.747,0
			c-0.006-0.115-0.015-0.21-0.015-0.307c-0.001-5.532-0.001-11.063,0-16.595c0-0.087,0.008-0.173,0.012-0.26
			C-9.496-3063-8.579-3063-7.662-3063z"/>
		<path fill-rule="evenodd" clip-rule="evenodd" d="M1.857-3029.619c1.736-2.182,5.271-1.996,6.984-0.529
			c1.088,0.932,1.654,2.141,1.879,3.525c0.271,1.668,0.115,3.281-0.68,4.799c-1.297,2.479-4.599,3.514-6.92,2.141
			c-0.465-0.275-0.848-0.691-1.273-1.047c0,0.412,0,0.861,0,1.326c-0.9,0-1.762,0-2.654,0c0-5.707,0-11.408,0-17.143
			c0.875,0,1.756,0,2.664,0C1.857-3034.259,1.857-3031.984,1.857-3029.619z M8.061-3025.183c-0.039-0.355-0.056-0.715-0.12-1.066
			c-0.271-1.473-1.319-2.439-2.739-2.547c-1.408-0.107-2.603,0.65-3.082,2.008c-0.413,1.166-0.385,2.342,0.125,3.475
			c0.832,1.846,3.214,2.352,4.705,0.996C7.783-3023.078,8.031-3024.089,8.061-3025.183z"/>
		<path fill-rule="evenodd" clip-rule="evenodd" d="M-15.497-3049.852c0.769,0.244,1.521,0.482,2.306,0.731
			c-0.268,0.927-0.755,1.682-1.442,2.311c-2.649,2.422-8.219,1.743-9.438-2.966c-0.597-2.308-0.225-4.461,1.454-6.255
			c2.507-2.68,7.299-2.073,8.848,1.02c0.658,1.314,0.814,2.703,0.666,4.183c-2.818,0-5.611,0-8.403,0
			c-0.064,1.287,0.93,2.53,2.271,2.88C-17.595-3047.52-16.333-3048.152-15.497-3049.852z M-15.853-3052.876
			c-0.016-1.512-1.203-2.551-2.839-2.53c-1.472,0.02-2.767,1.207-2.737,2.53C-19.58-3052.876-17.729-3052.876-15.853-3052.876z"/>
		<path fill-rule="evenodd" clip-rule="evenodd" d="M68.205-3050.825c-2.822,0-5.615,0-8.406,0
			c-0.044,1.305,0.942,2.531,2.281,2.878c1.633,0.423,2.867-0.197,3.736-1.902c0.754,0.238,1.514,0.478,2.303,0.728
			c-0.27,0.933-0.759,1.686-1.447,2.315c-2.629,2.403-8.183,1.757-9.424-2.941c-0.609-2.302-0.243-4.456,1.426-6.262
			c2.49-2.698,7.314-2.111,8.871,1.004C68.201-3053.692,68.355-3052.305,68.205-3050.825z M65.445-3052.881
			c0.061-1.375-1.064-2.445-2.625-2.524c-1.548-0.079-2.889,1.055-2.953,2.524C61.719-3052.881,63.568-3052.881,65.445-3052.881z"/>
		<path fill-rule="evenodd" clip-rule="evenodd" d="M36.746-3045.819c-0.7,0-1.479,0.007-2.256-0.011
			c-0.08-0.002-0.209-0.149-0.225-0.244c-0.056-0.339-0.072-0.685-0.108-1.076c-0.065,0.069-0.113,0.113-0.153,0.164
			c-1.415,1.767-4.293,2.07-6.045,0.636c-1.935-1.583-1.559-4.646,0.741-5.627c0.781-0.333,1.665-0.437,2.509-0.606
			c0.666-0.134,1.346-0.205,2.018-0.313c0.632-0.103,0.881-0.476,0.766-1.113c-0.146-0.802-0.677-1.2-1.428-1.368
			c-1.285-0.289-2.422,0.2-2.877,1.249c-0.098,0.225-0.148,0.469-0.236,0.75c-0.399-0.086-0.816-0.173-1.232-0.266
			c-0.409-0.092-0.816-0.19-1.252-0.293c0.088-0.873,0.437-1.603,1.01-2.23c0.912-0.997,2.082-1.44,3.396-1.536
			c0.921-0.067,1.83,0.022,2.708,0.334c1.591,0.565,2.58,1.867,2.631,3.553c0.044,1.448,0.028,2.897,0.034,4.346
			C36.75-3048.274,36.746-3047.075,36.746-3045.819z M34.004-3051.11c-0.793,0.12-1.564,0.223-2.328,0.358
			c-0.471,0.084-0.957,0.16-1.391,0.346c-0.576,0.247-0.826,0.755-0.785,1.388c0.038,0.587,0.346,0.995,0.871,1.232
			c1.115,0.502,2.76-0.079,3.305-1.168C34.014-3049.626,34.053-3050.346,34.004-3051.11z"/>
		<path fill-rule="evenodd" clip-rule="evenodd" d="M29.222-3026.955c-0.821-0.186-1.637-0.371-2.55-0.578
			c0.147-0.445,0.236-0.885,0.43-1.27c0.76-1.52,2.076-2.242,3.702-2.453c0.927-0.119,1.854-0.059,2.759,0.203
			c1.838,0.533,2.922,1.951,2.934,3.861c0.01,1.66-0.008,3.32,0.006,4.98c0.008,0.926,0.054,1.852,0.084,2.824
			c-0.771,0-1.572,0.004-2.373-0.01c-0.062-0.002-0.163-0.137-0.174-0.221c-0.05-0.354-0.072-0.713-0.109-1.135
			c-0.094,0.109-0.165,0.193-0.236,0.277c-1.448,1.717-4.409,1.945-6.061,0.469c-1.857-1.658-1.427-4.623,0.87-5.572
			c0.842-0.35,1.791-0.443,2.696-0.625c0.606-0.123,1.225-0.182,1.832-0.295c0.619-0.115,0.834-0.449,0.736-1.063
			c-0.102-0.631-0.455-1.055-1.045-1.287c-1.053-0.416-2.305-0.17-2.938,0.598c-0.146,0.178-0.262,0.391-0.354,0.604
			C29.339-3027.435,29.295-3027.203,29.222-3026.955z M33.754-3024.689c-0.723,0.109-1.418,0.203-2.109,0.322
			c-0.508,0.09-1.031,0.156-1.51,0.336c-0.644,0.24-0.919,0.787-0.867,1.48c0.045,0.584,0.441,1.082,1.057,1.246
			c0.704,0.189,1.395,0.094,2.06-0.199C33.325-3021.917,33.928-3023.009,33.754-3024.689z"/>
		<path fill-rule="evenodd" clip-rule="evenodd" d="M24.557-3025.648c0.001,3.475-1.744,5.818-4.553,6.447
			c-3.775,0.844-7.058-1.529-7.388-5.271c-0.215-2.438,0.518-4.512,2.63-5.873c1.985-1.281,4.133-1.33,6.217-0.248
			C23.615-3029.476,24.5-3027.546,24.557-3025.648z M15.287-3025.32c0.081,0.498,0.116,1.01,0.253,1.492
			c0.405,1.424,1.62,2.324,3.052,2.309c1.459-0.016,2.631-0.943,3.018-2.398c0.191-0.717,0.223-1.445,0.078-2.172
			c-0.242-1.215-0.875-2.137-2.086-2.535c-1.166-0.383-2.26-0.186-3.182,0.654C15.649-3027.269,15.381-3026.341,15.287-3025.32z"/>
		<path fill-rule="evenodd" clip-rule="evenodd" d="M5.244-3045.836c-0.856,0-1.693,0-2.577,0c-0.038-0.427-0.073-0.84-0.116-1.33
			c-0.109,0.127-0.19,0.221-0.27,0.316c-1.512,1.815-4.756,1.885-6.328,0.125c-1.375-1.537-1.182-4.35,1.253-5.313
			c0.759-0.3,1.602-0.394,2.411-0.551c0.656-0.126,1.321-0.2,1.98-0.307c0.635-0.103,0.867-0.426,0.785-1.064
			c-0.102-0.789-0.697-1.336-1.598-1.453c-1.281-0.166-2.571,0.205-2.933,2.038c-0.823-0.184-1.646-0.367-2.496-0.557
			c0.103-1.038,0.554-1.865,1.298-2.528c1.219-1.086,2.684-1.365,4.258-1.229c0.381,0.033,0.763,0.096,1.133,0.189
			c1.919,0.484,3.067,1.959,3.075,3.941c0.009,2.142,0.003,4.284,0.019,6.426C5.141-3046.713,5.205-3046.295,5.244-3045.836z
			 M2.35-3051.104c-0.752,0.114-1.508,0.215-2.259,0.346c-0.459,0.08-0.933,0.149-1.36,0.32c-0.621,0.248-0.91,0.823-0.842,1.462
			c0.07,0.653,0.5,1.132,1.155,1.285C1.1-3047.208,2.837-3048.984,2.35-3051.104z"/>
		<path fill-rule="evenodd" clip-rule="evenodd" d="M-72.819-3019.384c-0.819,0-1.646,0-2.533,0
			c-0.041-0.434-0.083-0.869-0.128-1.348c-0.067,0.078-0.12,0.137-0.17,0.197c-1.305,1.598-3.871,2.027-5.622,0.916
			c-1.191-0.756-1.75-1.852-1.622-3.27c0.127-1.416,0.935-2.354,2.23-2.775c0.979-0.316,2.026-0.424,3.045-0.615
			c0.437-0.084,0.882-0.125,1.316-0.219c0.534-0.115,0.745-0.443,0.671-0.973c-0.134-0.963-0.833-1.506-1.994-1.551
			c-1.378-0.053-2.211,0.613-2.55,2.082c-0.821-0.184-1.643-0.369-2.49-0.559c0.044-0.742,0.319-1.367,0.74-1.928
			c0.857-1.141,2.049-1.689,3.434-1.826c0.876-0.086,1.755-0.045,2.613,0.205c1.876,0.545,2.957,1.951,2.97,3.91
			c0.012,1.721-0.006,3.441,0.006,5.162C-72.896-3021.121-72.849-3020.269-72.819-3019.384z M-75.614-3024.636
			c-0.128,0-0.226-0.012-0.32,0.002c-0.733,0.109-1.467,0.215-2.198,0.34c-0.375,0.063-0.763,0.119-1.112,0.26
			c-0.573,0.232-0.896,0.676-0.899,1.322c-0.003,0.637,0.289,1.086,0.857,1.352c1.052,0.488,2.659-0.014,3.242-1.008
			C-75.633-3023.07-75.598-3023.839-75.614-3024.636z"/>
		<path fill-rule="evenodd" clip-rule="evenodd" d="M-27.462-3019.404c-0.811,0-1.672,0-2.568,0
			c-0.036-0.371-0.07-0.732-0.108-1.133c-1.077,1.328-2.488,1.652-4.05,1.406c-1.928-0.303-3.249-1.723-3.497-3.664
			c-0.042-0.33-0.063-0.666-0.063-1c-0.006-2.229-0.003-4.457-0.003-6.688c0-0.135,0-0.27,0-0.439c0.916,0,1.813,0,2.756,0
			c0.006,0.129,0.019,0.271,0.019,0.414c0.001,2.105-0.001,4.211,0.004,6.316c0,0.27,0.013,0.547,0.069,0.811
			c0.271,1.289,1.216,1.971,2.511,1.834c1.323-0.139,2.12-1.049,2.132-2.492c0.017-1.943,0.004-3.889,0.004-5.832
			c0-0.346,0-0.689,0-1.059c0.924,0,1.82,0,2.794,0C-27.462-3027.085-27.462-3023.255-27.462-3019.404z"/>
		<path fill-rule="evenodd" clip-rule="evenodd" d="M-12.357-3022.544c0.792-0.219,1.564-0.432,2.349-0.648
			c0.022,0.07,0.041,0.113,0.052,0.16c0.334,1.43,1.747,2.182,3.132,1.664c0.579-0.215,0.907-0.645,0.907-1.184
			c-0.002-0.506-0.291-0.939-0.873-1.117c-0.719-0.219-1.461-0.363-2.195-0.533c-0.977-0.227-1.846-0.639-2.471-1.459
			c-0.965-1.266-0.797-3.088,0.395-4.342c1.727-1.82,5.248-1.734,6.877,0.17c0.426,0.498,0.699,1.072,0.823,1.764
			c-0.772,0.223-1.539,0.443-2.325,0.67c-0.193-0.875-0.663-1.479-1.555-1.666c-0.506-0.105-1.01-0.1-1.484,0.146
			c-0.517,0.27-0.789,0.723-0.736,1.223c0.062,0.57,0.433,0.883,0.94,1.023c0.487,0.137,0.989,0.223,1.487,0.316
			c0.996,0.188,1.955,0.467,2.723,1.168c1.539,1.406,1.398,3.885-0.285,5.211c-1.843,1.451-5.145,1.223-6.77-0.467
			C-11.945-3021.048-12.325-3021.839-12.357-3022.544z"/>
		<path fill-rule="evenodd" clip-rule="evenodd" d="M7.408-3048.954c0.806-0.224,1.577-0.438,2.366-0.657
			c0.025,0.068,0.052,0.123,0.065,0.18c0.357,1.431,1.771,2.167,3.148,1.638c0.539-0.207,0.898-0.661,0.886-1.167
			c-0.013-0.56-0.319-0.949-0.836-1.106c-0.685-0.208-1.396-0.326-2.081-0.529c-0.554-0.164-1.129-0.323-1.621-0.611
			c-1.801-1.056-2.174-3.363-0.824-4.96c1.064-1.26,2.469-1.67,4.065-1.527c1.104,0.099,2.101,0.458,2.882,1.287
			c0.503,0.534,0.826,1.163,0.968,1.924c-0.769,0.22-1.522,0.437-2.302,0.66c-0.037-0.104-0.069-0.18-0.094-0.257
			c-0.361-1.172-1.604-1.777-2.763-1.343c-0.624,0.233-0.979,0.712-0.948,1.273c0.031,0.541,0.432,0.957,1.088,1.104
			c0.604,0.135,1.213,0.244,1.818,0.374c0.949,0.204,1.828,0.567,2.488,1.305c1.257,1.403,1.065,3.54-0.389,4.856
			c-1.742,1.579-5.744,1.466-7.289-0.828C7.717-3047.815,7.479-3048.323,7.408-3048.954z"/>
		<path fill-rule="evenodd" clip-rule="evenodd" d="M55.277-3048.194c0,0.708,0.006,1.399-0.008,2.09
			c-0.002,0.08-0.096,0.196-0.174,0.231c-1.21,0.534-3.215,0.164-4.104-0.753c-0.661-0.682-0.884-1.531-0.889-2.447
			c-0.011-1.795-0.003-3.59-0.003-5.385c0-0.133,0-0.267,0-0.438c-0.72,0-1.406,0-2.109,0c0-0.838,0-1.637,0-2.441
			c0.354-0.024,0.689-0.02,1.016-0.076c0.776-0.133,1.26-0.652,1.305-1.44c0.037-0.664,0.008-1.332,0.008-2.025
			c0.869,0,1.677,0,2.518,0c0,1.155,0,2.301,0,3.497c0.803,0,1.574,0,2.367,0c0,0.846,0,1.643,0,2.471c-0.77,0-1.533,0-2.354,0
			c0,0.161,0,0.292,0,0.422c0,1.634-0.001,3.268,0,4.902c0.001,1.036,0.43,1.461,1.477,1.451
			C54.631-3048.139,54.936-3048.172,55.277-3048.194z"/>
		<path fill-rule="evenodd" clip-rule="evenodd" d="M-21.209-3019.404c-0.906,0-1.792,0-2.711,0c0-5.715,0-11.424,0-17.152
			c0.907,0,1.805,0,2.711,0C-21.209-3030.83-21.209-3025.126-21.209-3019.404z"/>
		<path fill-rule="evenodd" clip-rule="evenodd" d="M42.271-3045.833c-0.941,0-1.829,0-2.746,0c0-3.839,0-7.667,0-11.51
			c0.885,0,1.757,0,2.66,0c0,0.535,0,1.05,0,1.663c0.112-0.145,0.17-0.212,0.22-0.284c0.881-1.266,2.144-1.631,3.603-1.507
			c0.09,0.008,0.238,0.153,0.24,0.236c0.018,0.851,0.011,1.703,0.011,2.574c-0.522,0-1.018-0.049-1.5,0.009
			c-1.51,0.181-2.421,1.187-2.466,2.805c-0.051,1.842-0.019,3.687-0.021,5.531C42.271-3046.169,42.271-3046.022,42.271-3045.833z"/>
		<path fill-rule="evenodd" clip-rule="evenodd" d="M-14.933-3030.927c0,3.84,0,7.672,0,11.523c-0.895,0-1.768,0-2.671,0
			c0-3.838,0-7.666,0-11.523C-16.724-3030.927-15.84-3030.927-14.933-3030.927z"/>
		<path fill-rule="evenodd" clip-rule="evenodd" d="M24.904-3052.856c0,0.798,0,1.585,0,2.401c-2.213,0-4.422,0-6.66,0
			c0-0.789,0-1.583,0-2.401C20.463-3052.856,22.672-3052.856,24.904-3052.856z"/>
		<path fill-rule="evenodd" clip-rule="evenodd" d="M-14.488-3034.974c-0.007,1.002-0.789,1.768-1.809,1.766
			c-1.008,0-1.782-0.807-1.771-1.84c0.011-0.977,0.809-1.758,1.789-1.752C-15.258-3036.794-14.481-3036.003-14.488-3034.974z"/>
		<path fill-rule="evenodd" clip-rule="evenodd" fill="#FFFFFF" d="M-35.065-3051.613c0.056-1.065,0.284-2.053,1.085-2.809
			c1.568-1.48,4.178-0.837,4.885,1.202c0.35,1.01,0.359,2.041,0.038,3.062c-0.453,1.436-1.559,2.219-3.036,2.171
			c-1.299-0.042-2.42-0.984-2.761-2.351C-34.958-3050.754-34.997-3051.188-35.065-3051.613z"/>
		<path fill-rule="evenodd" clip-rule="evenodd" fill="#FFFFFF" d="M-99.025-3051.637c-0.167,0.639-0.255,1.313-0.518,1.911
			c-0.513,1.167-1.476,1.726-2.751,1.699c-1.252-0.026-2.136-0.653-2.642-1.775c-0.499-1.105-0.515-2.259-0.124-3.401
			c0.453-1.321,1.655-2.137,2.948-2.047c1.548,0.108,2.585,1.01,2.876,2.52c0.067,0.351,0.087,0.71,0.13,1.065
			C-99.08-3051.656-99.053-3051.646-99.025-3051.637z"/>
		<path fill-rule="evenodd" clip-rule="evenodd" fill="#FFFFFF" d="M8.061-3025.183c-0.029,1.094-0.277,2.105-1.111,2.865
			c-1.491,1.355-3.873,0.85-4.705-0.996c-0.51-1.133-0.538-2.309-0.125-3.475c0.479-1.357,1.674-2.115,3.082-2.008
			c1.42,0.107,2.468,1.074,2.739,2.547C8.005-3025.898,8.021-3025.539,8.061-3025.183z"/>
		<path fill-rule="evenodd" clip-rule="evenodd" fill="#FFFFFF" d="M-15.853-3052.876c-1.877,0-3.727,0-5.576,0
			c-0.03-1.323,1.265-2.51,2.737-2.53C-17.056-3055.428-15.868-3054.388-15.853-3052.876z"/>
		<path fill-rule="evenodd" clip-rule="evenodd" fill="#FFFFFF" d="M65.445-3052.881c-1.877,0-3.727,0-5.578,0
			c0.064-1.469,1.405-2.603,2.953-2.524C64.381-3055.326,65.506-3054.257,65.445-3052.881z"/>
		<path fill-rule="evenodd" clip-rule="evenodd" fill="#FFFFFF" d="M34.004-3051.11c0.049,0.764,0.01,1.484-0.328,2.157
			c-0.545,1.089-2.189,1.67-3.305,1.168c-0.525-0.237-0.833-0.645-0.871-1.232c-0.041-0.633,0.209-1.142,0.785-1.388
			c0.434-0.186,0.92-0.262,1.391-0.346C32.439-3050.888,33.211-3050.99,34.004-3051.11z"/>
		<path fill-rule="evenodd" clip-rule="evenodd" fill="#FFFFFF" d="M33.754-3024.689c0.174,1.68-0.429,2.771-1.37,3.186
			c-0.665,0.293-1.355,0.389-2.06,0.199c-0.615-0.164-1.012-0.662-1.057-1.246c-0.052-0.693,0.224-1.24,0.867-1.48
			c0.479-0.18,1.002-0.246,1.51-0.336C32.336-3024.486,33.031-3024.58,33.754-3024.689z"/>
		<path fill-rule="evenodd" clip-rule="evenodd" fill="#FFFFFF" d="M15.287-3025.32c0.094-1.021,0.362-1.949,1.133-2.65
			c0.922-0.84,2.016-1.037,3.182-0.654c1.211,0.398,1.844,1.32,2.086,2.535c0.145,0.727,0.113,1.455-0.078,2.172
			c-0.387,1.455-1.559,2.383-3.018,2.398c-1.432,0.016-2.646-0.885-3.052-2.309C15.403-3024.31,15.368-3024.822,15.287-3025.32z"/>
		<path fill-rule="evenodd" clip-rule="evenodd" fill="#FFFFFF" d="M2.35-3051.104c0.487,2.119-1.25,3.896-3.306,3.413
			c-0.655-0.153-1.085-0.632-1.155-1.285c-0.068-0.639,0.221-1.214,0.842-1.462c0.428-0.171,0.901-0.24,1.36-0.32
			C0.842-3050.888,1.598-3050.99,2.35-3051.104z"/>
		<path fill-rule="evenodd" clip-rule="evenodd" fill="#FFFFFF" d="M-75.614-3024.636c0.016,0.797-0.02,1.566-0.429,2.268
			c-0.583,0.994-2.19,1.496-3.242,1.008c-0.569-0.266-0.861-0.715-0.857-1.352c0.003-0.646,0.326-1.09,0.899-1.322
			c0.349-0.141,0.737-0.197,1.112-0.26c0.73-0.125,1.464-0.23,2.198-0.34C-75.84-3024.648-75.742-3024.636-75.614-3024.636z"/>
	</g>
</g>
</svg>
