<?xml version="1.0" encoding="utf-8"?>
<!-- Generator: Adobe Illustrator 16.0.0, SVG Export Plug-In . SVG Version: 6.00 Build 0)  -->
<!DOCTYPE svg PUBLIC "-//W3C//DTD SVG 1.1//EN" "http://www.w3.org/Graphics/SVG/1.1/DTD/svg11.dtd">
<svg version="1.1" id="Layer_1" xmlns="http://www.w3.org/2000/svg" xmlns:xlink="http://www.w3.org/1999/xlink" x="0px" y="0px"
	 width="116.372px" height="63.188px" viewBox="0 0 116.372 63.188" enable-background="new 0 0 116.372 63.188"
	 xml:space="preserve">
<g>
	<title>Page 1</title>
	<desc>Created with Sketch.</desc>
	<g id="Page-1_7_">
		<g id="about_4_" transform="translate(-946.000000, -3076.000000)">
			<g id="Group-8_4_" transform="translate(108.000000, 3063.000000)">
				<g id="Page-1_8_" transform="translate(838.000000, 13.000000)">
					<path id="Fill-1_3_" fill="#1D1C1B" d="M115.931,55.66c-0.65-0.738-1.785-0.805-2.535-0.143
						c-0.008,0.008-0.018,0.02-0.029,0.029c-3.121,2.588-7.145,4.082-11.227,4.082c-8.359,0-13.994-6.107-13.994-13.459
						c0-7.414,6.107-13.461,13.459-13.461c3.973,0,7.77,1.838,9.607,4.803V30.16h-0.008v-0.006c0-0.98-0.793-1.775-1.775-1.775
						c-0.98,0-1.775,0.795-1.775,1.775v0.006v0.059c-1.898-0.711-3.975-1.126-6.049-1.126c-9.365,0-17.016,7.649-17.016,17.077
						c0,9.309,7.053,17.018,17.551,17.018c4.861,0,10.08-1.898,13.635-4.98l-0.016-0.021
						C116.501,57.523,116.582,56.396,115.931,55.66"/>
					<path id="Fill-3_2_" fill="#1D1C1B" d="M110.738,52.039c-2.551,2.076-5.336,3.143-8.598,3.143
						c-5.932,0-9.547-3.912-9.547-9.012c0-5.039,4.031-9.072,9.012-9.072c3.025,0,5.396,1.482,6.049,3.201v3.932h0.002
						c0.021,0.963,0.807,1.738,1.773,1.738c0.969,0,1.752-0.775,1.773-1.738h0.01v-4.643c-1.068-3.736-5.1-6.049-9.607-6.049
						c-6.996,0-12.627,5.574-12.627,12.631c0,6.996,5.156,12.629,13.162,12.629c4.031,0,7.768-1.422,10.85-3.973l-0.01-0.012
						c0.73-0.648,0.799-1.766,0.15-2.498c-0.611-0.695-1.643-0.797-2.377-0.258L110.738,52.039z"/>
					<path id="Fill-5_2_" fill="#1D1C1B" d="M113.847,46.025c0.984,0,1.783-0.801,1.801-1.795h0.01V30.16h-0.008
						c0-1.011-0.807-1.83-1.803-1.83c-0.994,0-1.803,0.819-1.803,1.83h-0.002v14.07h0.004
						C112.066,45.225,112.863,46.025,113.847,46.025"/>
					<path id="Fill-7_2_" fill="#1D1C1B" d="M34.154,54.59V13.089h-3.619v45.118h6.731v-0.006c0.999,0,1.809-0.809,1.809-1.809
						c0-0.998-0.81-1.809-1.809-1.809c-0.034,0-0.068,0.004-0.104,0.006H34.154z"/>
					<path id="Fill-9_1_" fill="#1D1C1B" d="M17.017,55.182c-4.982,0-9.015-4.033-9.015-9.014c0-5.041,4.032-9.07,9.015-9.07
						c5.038,0,9.07,4.029,9.07,9.07C26.087,51.148,22.055,55.182,17.017,55.182 M17.017,33.537c-6.999,0-12.631,5.574-12.631,12.631
						c0,6.996,5.632,12.631,12.631,12.631c6.995,0,12.628-5.635,12.628-12.631C29.645,39.111,24.012,33.537,17.017,33.537"/>
					<path id="Fill-11_2_" fill="#1D1C1B" d="M37.267,59.031c-0.039,0-0.077,0.002-0.115,0.006h-7.445v-8.361
						c-1.898,5.158-6.937,8.953-12.689,8.953c-7.353,0-13.46-6.107-13.46-13.459c0-7.414,6.107-13.461,13.46-13.461
						c5.753,0,10.791,3.795,12.689,9.014V13.088V4.387h-6.709c-0.013,0-0.024-0.002-0.036-0.002c-1.019,0-1.837,0.811-1.837,1.811
						s0.818,1.811,1.837,1.811c0.004,0,0.008-0.001,0.013-0.001h3.175v5.083V31.76c-2.67-1.66-5.812-2.667-9.132-2.667
						C7.647,29.093,0,36.742,0,46.17c0,9.367,7.647,17.018,17.017,17.018c3.32,0,6.462-0.949,9.132-2.668v2.074h11.084
						c0.012,0.002,0.022,0.002,0.034,0.002c0.998,0,1.809-0.797,1.809-1.781C39.075,59.828,38.265,59.031,37.267,59.031"/>
					<path id="Fill-13_2_" fill="#1D1C1B" d="M22.966,3.545v0.012h7.572v9.531h3.615V3.657c0-2.022-1.639-3.657-3.66-3.657h-7.527
						l0,0c-0.998,0-1.808,0.792-1.808,1.773C21.158,2.752,21.968,3.545,22.966,3.545"/>
					<path id="Fill-15_2_" fill="#1D1C1B" d="M81.378,59.031c-0.031,0-0.063,0.002-0.094,0.004h-7.977V43.617
						c0-7.768-4.383-10.08-8.537-10.08c-4.268,0-8.537,2.551-11.739,6.523v18.145h7.153v-0.004c0.998-0.004,1.803-0.811,1.803-1.809
						s-0.807-1.809-1.809-1.809c-0.031,0-0.061,0.004-0.09,0.004h-3.441V41.365c2.371-2.727,5.396-4.27,8.123-4.27
						c2.787,0,4.98,1.482,4.98,6.521v15.262c-0.004,0.059-0.006,0.117-0.006,0.182c0,0.061,0.002,0.121,0.006,0.18
						c0.092,1.84,1.588,3.309,3.438,3.354c0.031,0.002,0.063,0.002,0.092,0.002c0.027,0,0.061,0,0.092-0.002h7.947
						c0.02,0,0.037,0.002,0.059,0.002c0.998,0,1.807-0.797,1.807-1.781C83.185,59.828,82.376,59.031,81.378,59.031"/>
					<path id="Fill-17_2_" fill="#1D1C1B" d="M60.179,59.031c-0.039,0-0.076,0.002-0.115,0.006H45.165
						c-0.038-0.004-0.077-0.006-0.115-0.006c-0.998,0-1.812,0.797-1.812,1.783c0,0.984,0.813,1.781,1.812,1.781
						c0.011,0,0.022,0,0.034-0.002h15.062c0.01,0.002,0.021,0.002,0.033,0.002c1.002,0,1.809-0.797,1.809-1.781
						C61.988,59.828,61.181,59.031,60.179,59.031"/>
					<path id="Fill-19_2_" fill="#1D1C1B" d="M45.46,3.55v0.012h7.572v9.488h-0.003v25.706c3.203-3.615,7.533-6.047,11.742-6.047
						c4.387,0,9.369,2.668,9.369,10.91v14.588h7.234v-0.006h0.004c0.998,0,1.807-0.809,1.807-1.809c0-0.998-0.809-1.809-1.807-1.809
						c-0.035,0-0.068,0.004-0.104,0.006h-3.52V43.619c0-10.851-7.352-14.527-12.984-14.527c-2.846,0-5.576,0.83-8.123,2.254V13.092
						V13.05V3.662c0-2.022-1.639-3.658-3.661-3.658H45.46l0,0c-0.998,0-1.808,0.793-1.808,1.772
						C43.652,2.757,44.462,3.55,45.46,3.55"/>
					<path id="Fill-21_2_" fill="#1D1C1B" d="M48.643,13.094V54.59h-3.49c-0.034-0.002-0.068-0.006-0.104-0.006
						c-0.997,0-1.811,0.811-1.811,1.809c0,1,0.813,1.809,1.811,1.809v0.006H52.2V13.094V13.05V4.393h-6.7
						c-0.016-0.002-0.03-0.002-0.046-0.002c-1.015,0-1.836,0.809-1.836,1.81c0,1,0.821,1.81,1.836,1.81
						c0.016,0,0.03-0.001,0.046-0.002h3.143v5.042V13.094z"/>
					<path id="Fill-23_1_" fill="#1D1C1B" d="M39.364,58.648c0,0.98,0.81,1.773,1.808,1.773c1.001,0,1.812-0.793,1.812-1.773
						c0-0.979-0.811-1.771-1.812-1.771C40.174,56.877,39.364,57.67,39.364,58.648"/>
					<path id="Fill-25_1_" fill="#1D1C1B" d="M83.619,58.648c0,0.98,0.813,1.773,1.811,1.773s1.809-0.793,1.809-1.773
						c0-0.979-0.811-1.771-1.809-1.771S83.619,57.67,83.619,58.648"/>
				</g>
			</g>
		</g>
	</g>
</g>
</svg>
