<?xml version="1.0" encoding="UTF-8" standalone="no"?>
<svg width="31px" height="28px" viewBox="0 0 31 28" version="1.1" xmlns="http://www.w3.org/2000/svg" xmlns:xlink="http://www.w3.org/1999/xlink">
    <!-- Generator: Sketch 3.8.3 (29802) - http://www.bohemiancoding.com/sketch -->
    <title>noun_432942_cc</title>
    <desc>Created with Sketch.</desc>
    <defs></defs>
    <g id="Page-1" stroke="none" stroke-width="1" fill="none" fill-rule="evenodd">
        <g id="home" transform="translate(-1328.000000, -917.000000)" fill="#FFFFFF">
            <g id="mute-+-noun_432942_cc-+-som" transform="translate(1197.000000, 913.000000)">
                <g id="noun_432942_cc" transform="translate(130.792035, 3.684211)">
                    <g id="Group" transform="translate(18.103982, 18.957925) rotate(-270.000000) translate(-18.103982, -18.957925) translate(-0.775885, 1.094482)">
                        <g transform="translate(-0.000000, 0.000000)" id="Shape">
                            <path d="M5.73250652,30.1198426 C-0.847414008,23.5332525 -1.34589284,13.1543833 4.58600522,5.96901231 L6.33068112,7.41606619 C1.1465013,13.7032658 1.54528437,22.7348779 7.32763877,28.5230935 C12.4619707,33.7125281 20.6868714,34.6106994 26.8181609,30.7186235 L28.0145101,32.614763 C25.073485,34.4610042 21.7835248,35.3591756 18.4437166,35.3591756 C13.8078635,35.3591756 9.17201044,33.5628328 5.73250652,30.1198426 Z"></path>
                            <polygon points="7.22794301 11.8570246 4.98478828 11.8570246 4.98478828 7.36616778 0.548326711 7.36616778 0.548326711 5.12073935 7.22794301 5.12073935"></polygon>
                        </g>
                    </g>
                </g>
            </g>
        </g>
    </g>
</svg>