<?xml version="1.0" encoding="UTF-8" standalone="no"?>
<svg width="45px" height="28px" viewBox="0 0 45 28" version="1.1" xmlns="http://www.w3.org/2000/svg" xmlns:xlink="http://www.w3.org/1999/xlink">
    <!-- Generator: Sketch 3.8.3 (29802) - http://www.bohemiancoding.com/sketch -->
    <title>behance-black</title>
    <desc>Created with Sketch.</desc>
    <defs></defs>
    <g id="Page-1" stroke="none" stroke-width="1" fill="none" fill-rule="evenodd">
        <g id="contact" transform="translate(-572.000000, -947.000000)" fill="#000000">
            <g id="Group-3" transform="translate(572.000000, 940.000000)">
                <g id="behance-black" transform="translate(0.000000, 7.000000)">
                    <g id="Capa_1">
                        <path d="M40.5555452,3.9858209 L29.3031439,3.9858209 L29.3031439,1.1858209 L40.5564849,1.1858209 L40.5564849,3.9858209 L40.5555452,3.9858209 L40.5555452,3.9858209 Z M21.8121578,15.4517164 C22.5382135,16.5770448 22.9010325,17.943403 22.9010325,19.5475522 C22.9010325,21.2064478 22.4919606,22.6946269 21.6597216,24.0091642 C21.1302668,24.8790448 20.4729118,25.6138358 19.6830626,26.2053881 C18.7935035,26.8895075 17.7403364,27.3586119 16.5296172,27.6092537 C15.3150348,27.8603134 14.0004292,27.9871493 12.5843387,27.9871493 L0,27.9871493 L0,0.0258059701 L13.4947796,0.0258059701 C16.8962993,0.0811791045 19.307819,1.06734328 20.7318445,3.00404478 C21.5863225,4.19185075 22.0096984,5.61713433 22.0096984,7.27383582 C22.0096984,8.98329851 21.5812065,10.3511194 20.7183759,11.3903582 C20.2384107,11.9730299 19.5293735,12.5030448 18.5907425,12.9814478 C20.012471,13.5022687 21.0912181,14.3224179 21.8121578,15.4517164 L21.8121578,15.4517164 Z M6.44429234,11.0495522 L12.3571462,11.0495522 C13.5722506,11.0495522 14.5545244,10.8184478 15.3110673,10.3564478 C16.0670882,9.8951791 16.4443155,9.07523881 16.4443155,7.89798507 C16.4443155,6.59734328 15.944826,5.73404478 14.9434455,5.31853731 C14.082703,5.02986567 12.9814037,4.88119403 11.6450812,4.88119403 L6.44429234,4.88119403 L6.44429234,11.0495522 L6.44429234,11.0495522 Z M17.0136543,19.1481343 C17.0136543,17.6956866 16.420406,16.6915522 15.2363109,16.1527612 C14.5741531,15.8465373 13.6399072,15.6900299 12.4420302,15.6788507 L6.44429234,15.6788507 L6.44429234,23.130403 L12.3492111,23.130403 C13.5623318,23.130403 14.5012761,22.9714925 15.1788863,22.6399851 C16.4008817,22.0304627 17.0136543,20.8704478 17.0136543,19.1481343 L17.0136543,19.1481343 Z M44.730522,14.5992836 C44.8664617,15.5140896 44.9279582,16.8413731 44.9030046,18.5762239 L30.3298956,18.5762239 C30.41029,20.5890896 31.10471,21.9967164 32.4217169,22.8022388 C33.2159513,23.3073881 34.1789095,23.5540597 35.3065197,23.5540597 C36.495522,23.5540597 37.4646404,23.2532687 38.2106381,22.6349701 C38.6170998,22.3072239 38.9756381,21.844597 39.2856265,21.2608806 L44.6271578,21.2608806 C44.4872506,22.4497313 43.8440951,23.6555075 42.6882947,24.8808209 C40.897587,26.8283881 38.3861485,27.8049403 35.1607657,27.8049403 C32.4962645,27.8049403 30.1480162,26.9813433 28.1097564,25.3401045 C26.0782831,23.6931194 25.0580046,21.0220448 25.0580046,17.3167463 C25.0580046,13.8421343 25.9739791,11.1826567 27.8120882,9.33152239 C29.6569838,7.4769403 32.0379118,6.5538806 34.9727262,6.5538806 C36.7122738,6.5538806 38.2803828,6.86501493 39.6793503,7.49052239 C41.0739327,8.11665672 42.2264965,9.10208955 43.1342227,10.4564328 C43.9557077,11.6491493 44.4840139,13.0282537 44.730522,14.5992836 L44.730522,14.5992836 Z M39.4728306,15.1210448 C39.3748956,13.729194 38.9104872,12.6757463 38.0742807,11.955791 C37.2449652,11.2338507 36.2089211,10.8714179 34.9727262,10.8714179 C33.6273202,10.8714179 32.5884571,11.2588209 31.85029,12.0202537 C31.1071114,12.7801194 30.6446868,13.813194 30.4551856,15.1211493 L39.4728306,15.1211493 L39.4728306,15.1210448 L39.4728306,15.1210448 Z" id="Behance"></path>
                    </g>
                </g>
            </g>
        </g>
    </g>
</svg>