<?xml version="1.0" encoding="UTF-8" standalone="no"?>
<svg width="326px" height="61px" viewBox="0 0 326 61" version="1.1" xmlns="http://www.w3.org/2000/svg" xmlns:xlink="http://www.w3.org/1999/xlink">
    <!-- Generator: Sketch 3.8.3 (29802) - http://www.bohemiancoding.com/sketch -->
    <title>logo</title>
    <desc>Created with Sketch.</desc>
    <defs></defs>
    <g id="Page-1" stroke="none" stroke-width="1" fill="none" fill-rule="evenodd">
        <g id="home" transform="translate(-49.000000, -52.000000)" fill="#FFFFFF">
            <g id="logo" transform="translate(49.000000, 52.000000)">
                <g id="Group">
                    <g id="Page-1">
                        <g id="Contact-New">
                            <g id="Group">
                                <path d="M155.021038,32.5976798 C152.474777,33.8211039 149.930771,35.0501399 147.38113,36.2664555 C145.156111,37.3286271 142.924328,38.3765815 140.695552,39.4308962 C140.770696,39.7612581 140.845841,40.09162 140.920985,40.4216079 C142.383667,40.2004936 143.90759,40.1701886 145.298884,39.7275859 C155.967479,36.3334258 166.607894,32.8532145 177.260709,29.4111651 C182.456176,27.7320435 187.618206,25.9346951 192.868906,24.447131 C198.701972,22.7945732 204.633102,21.4843496 210.496602,19.9335566 C218.726768,17.7572086 226.940027,15.5168833 235.147274,13.2574771 C237.264085,12.6741995 237.241541,12.5948827 238.54642,14.5890265 C225.340958,19.9477738 212.114456,25.3143779 198.88833,30.6813561 C198.945439,30.9541011 199.002549,31.2268462 199.059658,31.4999652 C199.981677,31.4999652 200.943899,31.6724418 201.82008,31.4726533 C210.277557,29.5402419 218.716999,27.5326292 227.167713,25.5714092 C238.138011,23.0257891 249.1162,20.5142154 260.082741,17.9536299 C261.156927,17.7025847 262.193165,17.2528736 263.215502,16.821495 C266.311442,15.5146385 266.923491,15.9336707 266.986988,19.5919707 C261.070511,21.0222918 256.15533,24.2043169 251.645177,28.0478141 C251.783067,28.4009983 251.92058,28.7549309 252.058845,29.1084892 C257.290008,28.2524664 262.522672,27.4080419 267.751205,26.537802 C276.610327,25.0625844 285.44916,23.455297 294.3297,22.1233735 C301.364697,21.0679364 308.440273,20.2571841 315.5166,19.5171434 C317.709682,19.2877982 319.979788,19.5227555 322.184142,19.7917592 C323.228271,19.9200878 325.020459,20.5800633 325.051644,21.0877657 C325.146701,22.6037639 325.069678,24.8702787 324.112718,25.5826333 C320.160134,28.5225925 315.964083,31.1871877 311.651183,33.5850242 C307.966113,35.6337918 304.097691,37.4457316 300.138719,38.898501 C286.655976,43.8475695 272.848984,47.2110505 258.309338,46.2671058 C256.247006,46.1335393 253.946844,46.1552392 253.110864,42.8766871 C254.07797,42.8766871 254.980076,42.5975818 255.518484,42.9200868 C260.187191,45.7182486 265.179019,44.3683665 269.953679,43.8138973 C276.007671,43.1097737 282.093973,42.0707985 287.94545,40.4062682 C294.127561,38.64783 300.109038,36.1250322 306.069098,33.6744427 C311.458815,31.4584362 316.618589,28.7523118 320.820651,24.576582 C321.283915,24.116395 321.649867,23.5593068 322.346453,22.69206 C316.885726,21.3320763 311.96491,21.7683187 307.026435,22.4065943 C300.52684,23.2469034 294.01184,23.9738492 287.519758,24.8624218 C285.445403,25.1463909 283.434921,25.8621128 281.371086,26.2538329 C274.064442,27.6403802 266.749532,28.9853985 259.432368,30.3191927 C254.981203,31.1306932 250.511627,31.8449185 246.067977,32.6953292 C243.570936,33.1727265 242.298368,31.7779482 241.776869,29.783056 C241.300454,27.9610146 242.549351,27.0417629 244.282926,26.4379077 C245.708036,25.9414295 246.951296,24.9271474 248.274961,24.1425845 C248.226117,23.8653499 248.177273,23.5892377 248.128805,23.3116289 C247.137278,23.3116289 246.103294,23.1275541 245.160986,23.3404373 C236.978537,25.1901648 228.764902,26.9321412 220.653089,29.0553618 C209.829698,31.8879441 199.092722,35.0452763 188.307278,38.0237714 C187.441241,38.2632183 186.362922,38.4981756 185.607348,38.1898877 C184.610185,37.7832021 183.834697,36.8377609 182.963776,36.1239098 C183.758425,35.4010794 184.432093,34.3897903 185.366887,34.0014373 C193.125523,30.7756384 200.942772,27.6886438 208.711552,24.4864154 C209.663253,24.0946951 210.436111,23.2712222 211.291627,22.6475378 C211.199575,22.3923772 211.1079,22.1364683 211.015848,21.8809336 C208.74424,22.2715313 206.416273,22.4653336 204.210792,23.0890181 C196.392416,25.3005349 188.611988,27.6441216 180.825924,29.9671308 C174.260577,31.9253577 167.661791,33.7889281 161.15919,35.9387125 C151.224378,39.2232509 141.37711,42.768936 131.453195,46.0882688 C128.916327,46.937183 126.252091,47.4763128 123.604009,47.884869 C122.883753,47.9963615 122.008323,47.113401 121.20428,46.686512 C121.72052,46.0156865 122.098496,44.9969147 122.775545,44.7301559 C127.15645,43.0023967 131.628656,41.5051052 136.018955,39.7994201 C139.194548,38.56552 142.244649,37.0076185 145.433017,35.8111323 C148.598841,34.6232511 151.867237,33.7066183 155.090922,32.6706362 L155.021038,32.5976798 L155.021038,32.5976798 L155.021038,32.5976798 Z" id="Shape"></path>
                                <path d="M155.090547,32.6687656 C155.874676,31.9534178 156.540077,30.9660735 157.462473,30.5646257 C165.09712,27.2449187 172.776104,24.0247318 180.449075,20.7921984 C184.891975,18.9200227 189.362678,17.1110761 193.788669,15.2014869 C194.743753,14.7895633 195.562824,14.0663588 196.44464,13.4864483 C196.347705,13.2425117 196.250769,12.9989494 196.153833,12.7553869 C194.123062,13.1759156 192.081394,13.551922 190.062646,14.0252038 C181.969993,15.9220725 173.885232,17.8544839 165.795962,19.7651955 C157.523715,21.7189328 149.239445,23.623284 140.978095,25.6219175 C131.723714,27.8603721 122.493378,30.1972244 113.245385,32.4618685 C99.4177292,35.8481717 85.5697846,39.1532874 71.7575336,42.5998266 C62.3363324,44.9505219 52.9380504,47.4018597 43.5705774,49.9560849 C31.405111,53.2735471 19.2873611,56.766105 7.12828193,60.1078861 C5.44242234,60.5710662 3.64196788,60.6769467 1.88472131,60.7880649 C1.43197765,60.8161251 0.940910463,60.2354664 0.467502153,59.9346612 C0.83345429,59.6046734 1.15131415,59.0745229 1.57212154,58.9753769 C9.76621823,57.0358569 18.0196788,55.3275528 26.1623018,53.1964752 C34.2354164,51.0837302 42.1417108,48.3342061 50.2242185,46.2641127 C61.4545156,43.3877566 72.7960261,40.9457721 84.0608896,38.1973705 C90.9046454,36.5276023 97.6725056,34.5473014 104.511377,32.854711 C117.07661,29.74452 129.666641,26.7357198 142.250661,23.6999819 C149.913489,21.852125 157.589466,20.0600146 165.248161,18.1979406 C178.938677,14.8692543 192.632577,11.5506696 206.296794,8.11685113 C208.985452,7.44116186 211.538476,6.23868936 214.170401,5.32729451 C215.846491,4.74663573 217.291514,4.88992975 218.132377,7.2409992 C216.771141,7.71652582 215.402013,8.09851848 214.112164,8.6608446 C208.775049,10.9860987 203.520593,13.5081482 198.123737,15.6844962 C192.554051,17.9308076 186.808152,19.7419991 181.22494,21.9568831 C174.66861,24.5578753 168.214101,27.4117833 161.694969,30.1074318 C159.502636,31.0139628 157.248687,31.7715879 155.02179,32.5980539 C155.021038,32.5976798 155.090547,32.6687656 155.090547,32.6687656 L155.090547,32.6687656 L155.090547,32.6687656 Z" id="Shape"></path>
                                <path d="M278.001996,2.51828283 C279.22572,1.40448053 279.989561,0.168335797 280.753777,0.168335797 C281.500334,0.167961662 282.247642,1.42917348 282.9942,2.13741258 C282.076314,2.97996643 281.219671,3.92241454 280.178548,4.56779882 C280.003087,4.6762982 279.025461,3.50076348 278.001996,2.51828283 L278.001996,2.51828283 L278.001996,2.51828283 Z" id="Shape"></path>
                            </g>
                        </g>
                    </g>
                </g>
            </g>
        </g>
    </g>
</svg>