<?xml version="1.0" encoding="UTF-8" standalone="no"?>
<svg width="37px" height="42px" viewBox="0 0 37 42" version="1.1" xmlns="http://www.w3.org/2000/svg" xmlns:xlink="http://www.w3.org/1999/xlink">
    <!-- Generator: Sketch 3.8.3 (29802) - http://www.bohemiancoding.com/sketch -->
    <title>mute</title>
    <desc>Created with Sketch.</desc>
    <defs></defs>
    <g id="Page-1" stroke="none" stroke-width="1" fill="none" fill-rule="evenodd">
        <g id="home" transform="translate(-1262.000000, -913.000000)" fill="#FFFFFF">
            <g id="mute-+-noun_432942_cc-+-som" transform="translate(1197.000000, 913.000000)">
                <g id="mute" transform="translate(65.765487, 0.000000)">
                    <g id="Group">
                        <path d="M8.11518191,30.04575 C8.65969715,30.04575 9.10043265,29.60475 9.10043265,29.061375 C9.10043265,28.518 8.65969715,28.077 8.11518191,28.077 L2.12157325,28.0665 L2.13142576,16.1155313 L10.7674769,16.1155313 C10.9816047,16.1155313 11.189821,16.0459688 11.3605978,15.9166875 L24.8053294,5.78025 L24.8053294,7.34146875 C24.8053294,7.8855 25.2467217,8.32584375 25.7905801,8.32584375 C26.3344385,8.32584375 26.7758309,7.8855 26.7758309,7.34146875 L26.7758309,3.803625 C26.7758309,3.43021875 26.5643304,3.08896875 26.230002,2.92228125 C25.8956735,2.75625 25.4950049,2.793 25.1974592,3.01809375 L10.4377463,14.1474375 L2.13142576,14.1474375 C1.03976794,14.1474375 0.15107178,15.036 0.15107178,16.1273438 L0.15107178,28.0671563 C0.15107178,29.1585 1.03976794,30.0464063 2.13142576,30.0464063 L8.11518191,30.0464063 L8.11518191,30.04575 Z M25.791237,15.0530625 C25.2473786,15.0530625 24.8059862,15.4934063 24.8059862,16.0374375 L24.8059862,38.411625 L13.7613255,30.0857813 C13.3271583,29.7583125 12.7097345,29.8449375 12.3813176,30.2787188 C12.0535575,30.7125 12.1396028,31.3300313 12.5744267,31.6575 L25.1974592,41.173125 C25.372177,41.304375 25.5803933,41.3719688 25.7905801,41.3719688 C25.9409951,41.3719688 26.0907532,41.3378438 26.230002,41.2689375 C26.5643304,41.10225 26.7758309,40.7616563 26.7758309,40.3875938 L26.7758309,16.0374375 C26.7764877,15.4934063 26.3350954,15.0530625 25.791237,15.0530625 L25.791237,15.0530625 Z M34.9665487,0.85903125 C34.5494592,0.50859375 33.9287512,0.56371875 33.5786588,0.97978125 L0.981966568,39.7543125 C0.63187414,40.1710313 0.685734513,40.7918438 1.10282399,41.1409688 C1.2873943,41.2958438 1.5126883,41.3719688 1.7360118,41.3719688 C2.01713668,41.3719688 2.29629105,41.2525313 2.49071386,41.020875 L35.0874061,2.24634375 C35.4374985,1.829625 35.3829813,1.2088125 34.9665487,0.85903125 L34.9665487,0.85903125 Z" id="Shape"></path>
                    </g>
                </g>
            </g>
        </g>
    </g>
</svg>