<?xml version="1.0" encoding="UTF-8" standalone="no"?>
<svg width="49px" height="40px" viewBox="0 0 49 40" version="1.1" xmlns="http://www.w3.org/2000/svg" xmlns:xlink="http://www.w3.org/1999/xlink">
    <!-- Generator: Sketch 3.8.3 (29802) - http://www.bohemiancoding.com/sketch -->
    <title>som</title>
    <desc>Created with Sketch.</desc>
    <defs></defs>
    <g id="Page-1" stroke="none" stroke-width="1" fill="none" fill-rule="evenodd">
        <g id="home" transform="translate(-1197.000000, -915.000000)" fill="#FFFFFF">
            <g id="mute-+-noun_432942_cc-+-som" transform="translate(1197.000000, 913.000000)">
                <g id="som" transform="translate(0.000000, 2.210526)">
                    <g id="Group">
                        <path d="M26.2639155,0.520578947 C25.9284575,0.352136842 25.5264353,0.389936842 25.2278844,0.6174 L10.4183076,11.8625684 L2.08392514,11.8625684 C0.988579287,11.8625684 0.0968807702,12.7604842 0.0968807702,13.8633158 L0.0968807702,25.9281474 C0.0968807702,27.0309789 0.988579287,27.9282316 2.08392514,27.9282316 L10.4183076,27.9282316 L25.2272253,39.1727368 C25.4018743,39.3053684 25.6114531,39.3736737 25.82235,39.3736737 C25.9732731,39.3736737 26.1235372,39.3391895 26.2632564,39.2695579 C26.5987143,39.1011158 26.8109293,38.7569368 26.8109293,38.3789368 L26.8109293,1.41053684 C26.8115884,1.03386316 26.5987143,0.689021053 26.2639155,0.520578947 L26.2639155,0.520578947 Z M24.8344298,36.3821684 L11.3442768,26.1390316 C11.1729231,26.0090526 10.9640033,25.9380947 10.7491521,25.9380947 L2.07403934,25.9274842 L2.08392514,13.8513789 L10.7491521,13.8513789 C10.9640033,13.8513789 11.1729231,13.7810842 11.3442768,13.6504421 L24.8337707,3.40730526 L24.8337707,36.3821684 L24.8344298,36.3821684 Z M32.3127026,11.7425368 C31.9264976,11.3539263 31.3010564,11.3539263 30.9148515,11.7425368 C30.5286465,12.1311474 30.5286465,12.7611474 30.9148515,13.1490947 C32.7054981,14.9508947 33.6921002,17.3468842 33.6921002,19.8947368 C33.6921002,22.4432526 32.7054981,24.8385789 30.9148515,26.6403789 C30.5286465,27.0289895 30.5286465,27.6583263 30.9148515,28.0469368 C31.107954,28.2412421 31.3610303,28.3380632 31.6141066,28.3380632 C31.8671829,28.3380632 32.1202591,28.2412421 32.3133616,28.0469368 C34.4776912,25.8697895 35.6699178,22.9744421 35.6699178,19.8947368 C35.6692588,16.8150316 34.4770322,13.9196842 32.3127026,11.7425368 L32.3127026,11.7425368 Z M36.856213,7.17072632 C36.470008,6.78211579 35.8445669,6.78211579 35.4583619,7.17072632 C35.0721569,7.55867368 35.0721569,8.18933684 35.4583619,8.57728421 C38.4629839,11.6006211 40.1172065,15.6200211 40.1172065,19.8947368 C40.1172065,24.1701158 38.4623248,28.1888526 35.4583619,31.2115263 C35.0721569,31.6001368 35.0721569,32.2294737 35.4583619,32.6180842 C35.6514644,32.8123895 35.9045407,32.9092105 36.157617,32.9092105 C36.4106933,32.9092105 36.6637696,32.8123895 36.856872,32.6180842 C40.235177,29.2200632 42.0950242,24.7013053 42.0950242,19.8947368 C42.0950242,15.0881684 40.2345179,10.5700737 36.856213,7.17072632 L36.856213,7.17072632 Z M41.5163757,2.48087368 C41.1301708,2.09226316 40.5047296,2.09226316 40.1185246,2.48087368 C39.7323197,2.86882105 39.7323197,3.49948421 40.1185246,3.88743158 C48.8898591,12.7134 48.8898591,27.0747474 40.1185246,35.9013789 C39.7323197,36.2899895 39.7323197,36.9193263 40.1185246,37.3079368 C40.3116271,37.5022421 40.5647034,37.5990632 40.8177797,37.5990632 C41.070856,37.5990632 41.3239323,37.5022421 41.5170348,37.3079368 C51.0588021,27.7060737 51.0588021,12.0827368 41.5163757,2.48087368 L41.5163757,2.48087368 Z" id="Shape"></path>
                    </g>
                </g>
            </g>
        </g>
    </g>
</svg>